<?xml version="1.0" encoding="utf-8"?>
<!-- Generator: Adobe Illustrator 27.5.0, SVG Export Plug-In . SVG Version: 6.00 Build 0)  -->
<svg version="1.1" id="Слой_1" xmlns="http://www.w3.org/2000/svg" xmlns:xlink="http://www.w3.org/1999/xlink" x="0px" y="0px"
	 viewBox="0 0 500 500" style="enable-background:new 0 0 500 500;" xml:space="preserve">
<rect style="fill:#FAFAFA;" width="500" height="500"/>
<g>
	<g>
		<polygon style="fill:#78C2FF;" points="105.321,224.825 86.382,224.825 86.382,238.551 86.382,241.442 89.273,238.551 
			105.321,238.551 		"/>
	</g>
	<g>
		<g>
			<g>
				<g>
					<path style="fill:#0E2D3D;" d="M77.105,230.229c0,0,4.633,2.266,3.487,8.431c-1.145,6.164-1.652,6.996-0.371,9.404
						c1.281,2.409,2.793,12.684,1.64,14.633c-1.153,1.947-14.273-8.56-16.093-17.375c-1.819-8.815,1.153-12.736,2.204-14.196
						C69.023,229.665,73.016,228.153,77.105,230.229z"/>
				</g>
			</g>
		</g>
	</g>
	<g>
		<g>
			<path style="fill:#285173;" d="M78.389,252.484c0,0,2.357,0.479,3.682,2.429c0.921,1.355,0.996,4.368,1.129,4.935
				s1.892,6.987,1.892,6.987l-4.912,3.292L78.389,252.484z"/>
		</g>
	</g>
	<g>
		<g>
			<path style="fill:#1D3B54;" d="M96.537,362.268c0,0,3.206,4.315,2.766,4.999c-0.439,0.685-3.81,0.781-5.862,0
				c-2.052-0.781-2.101-5.839-3.029-8.012c-0.389-0.91,0.443-3.596,1.612-3.79c1.17-0.195,2.441,0.377,2.441,0.377
				S93.252,358.902,96.537,362.268z"/>
		</g>
	</g>
	<g>
		<g>
			<g>
				<path style="fill:#EEA886;" d="M94.486,355.807c0,0,0.674,1.838,0.921,3.593c0.204,1.456,2.284,4.546,2.186,4.936
					c-0.098,0.392-2.736,0.745-3.811-0.262c-1.075-1.008-1.766-3.938-2.003-5.69c-0.221-1.633-0.498-2.439-0.498-2.439
					S93.46,354.732,94.486,355.807z"/>
			</g>
		</g>
	</g>
	<g>
		<g>
			<path style="fill:#1D3B54;" d="M68.636,362.339c0,0,3.09,4.244,2.65,4.928c-0.439,0.685-3.811,0.781-5.862,0
				c-2.052-0.781-2.101-5.839-3.029-8.012c-0.389-0.91,0.443-3.596,1.612-3.79c1.169-0.195,2.541,0.418,2.541,0.418
				S65.35,358.975,68.636,362.339z"/>
		</g>
	</g>
	<g>
		<g>
			<g>
				<path style="fill:#EEA886;" d="M66.547,355.883c0,0,0.244,2.004,0.635,3.42c0.391,1.418,2.491,4.643,2.394,5.032
					c-0.098,0.392-2.736,0.745-3.811-0.262c-1.075-1.008-1.905-3.926-2.003-5.69c-0.098-1.767,0.245-2.918,0.245-2.918
					S65.521,354.809,66.547,355.883z"/>
			</g>
		</g>
	</g>
	<g>
		<g>
			<g>
				<path style="fill:#EEA886;" d="M81.988,285.627c0,0,2.751,12.796,3.382,16.017c0.632,3.223,2.401,18.826,2.59,21.479
					c0.189,2.653,2.871,12.651,2.744,13.599c-0.126,0.947,3.975,19.983,3.975,19.983s-1.401,1.127-2.877,0.102
					c-0.759-0.527-8.998-17.821-8.998-22.56c0-6.549-4.843-15.098-5.468-16.563c-5.805-13.611-4.662-17.773-5.42-18.658
					c-0.758-0.884-0.824,0.547-1.266,2.505c-0.442,1.958-1.389,18.889-1.958,21.037c-0.568,2.148-0.127,9.413-0.443,13.077
					c-0.316,3.664-1.703,20.237-1.703,20.237s-1.074,1.684-2.581,0.044c-0.324-0.353-2.602-18.462-2.665-22.821
					c-0.063-4.358-0.13-10.37-0.252-12.256c-1.17-18.063-4.047-20.643,0.484-33.427C70.015,263.486,81.988,285.627,81.988,285.627z"
					/>
			</g>
		</g>
	</g>
	<g>
		<g>
			<path style="fill:#1D3B54;" d="M63.515,282.051c0,0-7.836,10.968-4.462,34.298c0,0,18.587,2.528,28.545-2.925
				c0,0-4.118-24.055-5.61-27.797C80.496,281.883,63.515,282.051,63.515,282.051z"/>
		</g>
	</g>
	<g>
		<g>
			<polygon style="fill:#1D3B54;" points="90.325,358.875 90.325,363.394 90.912,363.394 90.912,359.901 			"/>
		</g>
	</g>
	<g>
		<g>
			<polygon style="fill:#1D3B54;" points="62.308,358.875 62.308,363.394 62.895,363.394 62.895,359.901 			"/>
		</g>
	</g>
	<g>
		<g>
			<path style="fill:#EDDAD3;" d="M74.032,250.884c0,0,2.887,1.364,3.89,1.564c1.002,0.2,4.892,5.253,5.574,7.098
				c0.682,1.845,0,4.611-1.404,7.858c-1.403,3.248-0.08,4.331-0.722,7.579c-0.642,3.248-1.203,10.125-1.083,11.93
				c0.12,1.805-16.219,2.146-19.948-1.144c0,0,3.748-5.613,4.229-6.415c0.481-0.803,0.081-5.173-0.361-6.295
				c-0.441-1.124-3.376-10.671-3.376-10.671s-2.402-7.333-0.232-9.018c1.885-1.465,7.021-1.985,7.943-2.307
				C69.465,250.744,72.147,250.604,74.032,250.884z"/>
		</g>
	</g>
	<g>
		<g>
			<path style="fill:#D6C5BE;" d="M74.955,257.32l1.754-2.055l-1.523-5.408C75.186,249.857,74.674,252.869,74.955,257.32z"/>
		</g>
	</g>
	<g>
		<g>
			<path style="fill:#EEA886;" d="M75.411,247.553c0,0-0.079,0.724-0.172,1.725c-0.04,0.443-0.085,0.942-0.126,1.456
				c-0.118,1.458-0.213,3.037-0.157,3.84c0,0-3,3.007-6.412-3.509c0,0,1.435-2.686,0.355-6.345
				C67.816,241.061,75.411,247.553,75.411,247.553z"/>
		</g>
	</g>
	<g>
		<g>
			<polygon style="fill:#EEA886;" points="74.955,254.573 74.955,257.32 71.502,254.74 			"/>
		</g>
	</g>
	<g>
		<g>
			<polygon style="fill:#D6C5BE;" points="74.955,257.32 73.521,255.546 68.692,250.733 67.13,252.238 			"/>
		</g>
	</g>
	<g>
		<g>
			<path style="fill:#285173;" d="M68.022,251.193c0,0,4.052,6.15,4.246,8.856c0.194,2.706-1.506,22.954-2.867,29.462
				c-1.361,6.508-11.195-0.734-11.195-0.734s6.608-10.696,4.072-19.261c-2.537-8.564-3.458-11.989-3.458-11.989
				s0.873-4.77,3.966-5.439C65.497,251.499,68.022,251.193,68.022,251.193z"/>
		</g>
	</g>
	<g>
		<g>
			<path style="fill:#285173;" d="M83.762,260.367c0,0,0.731,2.586-2.116,8.303c0,0,0.045,7.316,0.125,9.602
				c0.08,2.285,1.696,10.505,1.696,10.505l-3.891,2.071c-0.567,0.333-1.27-0.129-1.19-0.78c0.797-6.578,3.392-31.527-2.212-38.233
				l2.249,0.663C78.423,252.497,82.418,255.766,83.762,260.367z"/>
		</g>
	</g>
	<g>
		<g>
			<polygon style="fill:#FAE6DE;" points="76.709,255.266 78.919,255.877 75.186,249.857 			"/>
		</g>
	</g>
	<g>
		<g>
			<polygon style="fill:#FAE6DE;" points="73.521,255.546 71.502,258.192 67.356,251.282 68.692,250.733 			"/>
		</g>
	</g>
	<g>
		
			<rect x="79.048" y="265.089" transform="matrix(0.7846 -0.6201 0.6201 0.7846 -149.9397 107.2815)" style="fill:#EB4747;" width="0.731" height="8.645"/>
	</g>
	<g>
		<path style="fill:#EEA886;" d="M76.112,272.261c0,0,0.512,0.009,0.849-0.245c0.582-0.438,0.791-1.519,1.818-1.439
			c1.026,0.078,1.503,3.299,1.246,3.908c-0.257,0.609-1.683,0.914-3.79,0.494C74.128,274.559,76.112,272.261,76.112,272.261z"/>
	</g>
	<g>
		<path style="fill:#EEA886;" d="M78.427,270.598c0,0,1.476-0.503,3.18-0.871c1.495-0.323,3.281-0.429,3.455-0.17
			c0.193,0.289-1.456,0.538-2.921,0.954c-1.348,0.383-1.027,0.522-1.027,0.522s-0.089-0.044,1.451-0.188
			c1.655-0.154,3.36-0.151,3.528,0.18c0.082,0.161,0.024,0.27-0.572,0.421c0.358-0.017,0.409,0.076,0.422,0.221
			c0.071,0.745-2.343,1.339-3.302,1.574c0.738-0.177,1.294-0.23,1.029,0.27c-0.304,0.571-3.749,1.262-4.964,1.623
			C77.381,275.527,78.427,270.598,78.427,270.598z"/>
	</g>
	<g>
		<path style="fill:#285173;" d="M63.356,252.197c-1.016-0.328-3.996,0.729-4.5,3.784c-0.504,3.056-0.705,6.448-1.176,8.094
			c-0.47,1.645-1.668,8.936-0.661,9.541c1.008,0.604,2.916,1.157,5.592,1.157c2.764,0,13.479,0.48,13.479,0.48l0.672-3.807
			c0,0-4.07-0.21-6.179-0.529c-1.877-0.285-4.479-1.084-7.542-1.42c0,0,0.649-4.517,1.12-5.792
			C64.633,262.43,67.924,253.675,63.356,252.197z"/>
	</g>
	<g>
		<polygon style="fill:#EEA886;" points="82.956,271.74 83.458,272.965 82.382,272.194 		"/>
	</g>
	<g>
		<g>
			<polygon style="fill:#E8734D;" points="77.052,278.125 87.846,275.984 95.852,258.855 84.331,260.065 			"/>
		</g>
	</g>
	<g>
		<g>
			<g>
				<path style="fill:#EEA886;" d="M89.192,273.078c0,0,0.592-0.55,1.119-1.319c0.527-0.77,2.252-3.706,2.094-3.89
					c-0.158-0.185-2.718-0.247-3.183,0.171c-0.464,0.417,0.457,0.582,0.457,0.582s-1.4,0.144-1.3,0.539
					c0.1,0.396,0.943,0.286,0.943,0.286s-1.127,0.216-0.957,0.563c0.171,0.348,0.713,0.343,0.713,0.343s-0.998,0.126-0.875,0.505
					c0.124,0.379,1.703,0.736,1.492,1.052C89.484,272.224,89.192,273.078,89.192,273.078z"/>
			</g>
		</g>
	</g>
	<g>
		<g>
			<g>
				<g>
					<path style="fill:#EEA987;" d="M76.434,230.913c0,0,6.727,2.114,3.075,13.723c-3.652,11.609-12.838-1.346-11.877-8.419
						C68.592,229.144,76.434,230.913,76.434,230.913z"/>
				</g>
			</g>
		</g>
	</g>
	<g>
		<g>
			<g>
				<g>
					<path style="fill:#0E2D3D;" d="M80.196,237.686c0,0-3.342,3.28-8.936,3.69c0,0-2.149,2.521-2.315,3.51
						c0,0-4.991-8.507,1.144-13.606C76.224,226.18,82.451,235.585,80.196,237.686z"/>
				</g>
			</g>
		</g>
	</g>
	<g>
		<g>
			<g>
				<g>
					<path style="fill:#EEA987;" d="M71.327,241.607c-0.043-0.845-0.563-2.768-1.819-2.23c-1.256,0.539,0.077,4.454,0.91,4.213
						C70.418,243.59,71.43,243.606,71.327,241.607z"/>
				</g>
			</g>
		</g>
	</g>
	<g>
		<path style="fill:#A77860;" d="M75.238,249.277c-0.04,0.443-0.085,0.942-0.126,1.456h-0.001c-3.889-1.92-4.485-4.689-4.502-4.775
			C73.379,249.539,75.238,249.277,75.238,249.277z"/>
	</g>
	<g>
		<g>
			<path style="fill:#869135;" d="M187.35,268.408c0,0-0.872,6.721,3.985,11.882c4.856,5.161,15.806,3.32,15.806,3.32
				s-1.811-6.1-5.781-8.612C197.391,272.484,189.592,271.619,187.35,268.408z"/>
		</g>
	</g>
	<g>
		<g>
			<path style="fill:#48753A;" d="M193,255.662c0,0-4.003,7.536-0.564,15.77c3.439,8.233,17.161,10.913,17.161,10.913
				s0.566-7.992-3-12.712C203.029,264.913,194.22,260.44,193,255.662z"/>
		</g>
	</g>
	<g>
		<g>
			<path style="fill:#BBD070;" d="M372.609,158.779c0,0,6.805,10.324,1.064,15.807c-5.741,5.483-6.417-0.64-6.417-0.64
				s-3.071,0.202,3.034-6.784C373.168,163.87,372.609,158.779,372.609,158.779z"/>
		</g>
		<g>
			<path style="fill:#97A43C;" d="M390.828,153.51c0,0,4.854,9.376-6.57,18.163c-11.423,8.787-11.368,14.84-11.368,14.84
				S364.848,164.781,390.828,153.51z"/>
		</g>
		<g>
			<path style="fill:#48753A;" d="M371.426,182.515c-4.342-0.121,2.018-11.146,9.088-13.383c7.07-2.238,12.718-1.308,17.021-4.043
				C397.534,165.089,392.805,183.111,371.426,182.515z"/>
		</g>
	</g>
	<g>
		<rect x="198.003" y="147.389" style="fill:#78C2FF;" width="0.913" height="109.278"/>
	</g>
	<g>
		<rect x="131.037" y="226.018" style="fill:#78C2FF;" width="75.442" height="0.914"/>
	</g>
	<g>
		<path style="fill:#4DA8F2;" d="M386.204,312.361H238.091c-6.875,0-12.469-5.844-12.469-13.027V195.051
			c0-7.182,5.594-13.025,12.469-13.025h148.113c6.876,0,12.469,5.843,12.469,13.025v104.283
			C398.673,306.518,393.08,312.361,386.204,312.361z M238.091,183.122c-6.271,0-11.373,5.352-11.373,11.929v104.283
			c0,6.578,5.102,11.931,11.373,11.931h148.113c6.271,0,11.373-5.353,11.373-11.931V195.051c0-6.578-5.102-11.929-11.373-11.929
			H238.091z"/>
	</g>
	<g>
		<path style="fill:#C2BEBC;" d="M335.798,265.943c-0.374,0-0.743-0.002-1.11-0.004l0.006-1.096
			c1.613,0.009,3.295-0.002,4.926-0.033l0.021,1.096C338.371,265.931,337.077,265.943,335.798,265.943z M329.74,265.853
			c-1.653-0.049-3.317-0.118-4.943-0.208l0.06-1.094c1.617,0.088,3.271,0.158,4.917,0.207L329.74,265.853z M344.593,265.749
			l-0.049-1.095c1.648-0.074,3.303-0.17,4.917-0.285l0.079,1.094C347.915,265.578,346.251,265.675,344.593,265.749z
			 M319.858,265.311c-3.102-0.254-4.922-0.492-4.939-0.495l0.143-1.087c0.019,0.002,1.816,0.238,4.887,0.489L319.858,265.311z
			 M354.478,265.04l-0.109-1.091c1.643-0.165,3.289-0.354,4.89-0.564l0.143,1.087C357.789,264.684,356.132,264.874,354.478,265.04z
			 M364.304,263.749l-0.178-1.081c1.634-0.27,3.261-0.566,4.839-0.884l0.216,1.074C367.591,263.179,365.95,263.479,364.304,263.749z
			 M374.014,261.788l-0.258-1.065c1.609-0.39,3.207-0.813,4.746-1.256l0.304,1.053C377.251,260.968,375.64,261.395,374.014,261.788z
			 M383.541,259.034l-0.353-1.037c1.569-0.535,3.119-1.107,4.606-1.703l0.408,1.018
			C386.697,257.914,385.129,258.494,383.541,259.034z M392.763,255.332l-0.466-0.992c1.498-0.705,2.968-1.454,4.368-2.227
			l0.529,0.959C395.773,253.857,394.282,254.617,392.763,255.332z M401.463,250.514l-0.598-0.919
			c1.382-0.899,2.725-1.849,3.99-2.824l0.668,0.869C404.235,248.632,402.869,249.599,401.463,250.514z M409.33,244.441l-0.741-0.808
			c1.205-1.105,2.36-2.269,3.436-3.457l0.813,0.736C411.739,242.126,410.56,243.313,409.33,244.441z M415.995,237.067l-0.881-0.653
			c0.966-1.3,1.875-2.661,2.704-4.046l0.941,0.563C417.911,234.347,416.981,235.739,415.995,237.067z M421.1,228.542l-0.991-0.468
			c0.685-1.451,1.311-2.964,1.862-4.497l1.031,0.371C422.44,225.514,421.799,227.06,421.1,228.542z M424.469,219.201l-1.06-0.277
			c0.402-1.544,0.749-3.147,1.028-4.764l1.081,0.186C425.231,215.994,424.88,217.627,424.469,219.201z M426.175,209.428
			l-1.091-0.105c0.151-1.587,0.251-3.229,0.294-4.88l1.097,0.029C426.43,206.149,426.329,207.816,426.175,209.428z M425.354,199.545
			c-0.057-1.595-0.161-3.241-0.311-4.893l1.092-0.099c0.152,1.671,0.258,3.338,0.313,4.953L425.354,199.545z M424.478,189.78
			c-0.222-1.583-0.489-3.213-0.793-4.844l1.077-0.201c0.307,1.646,0.577,3.292,0.802,4.892L424.478,189.78z M422.689,180.127
			c-0.135-0.591-0.275-1.19-0.419-1.782c-0.242-1.001-0.508-1.996-0.79-2.957l1.052-0.309c0.287,0.978,0.558,1.99,0.804,3.007
			c0.145,0.597,0.287,1.202,0.422,1.797L422.689,180.127z M419.922,170.776c-0.588-1.526-1.242-3.025-1.947-4.455l0.983-0.484
			c0.719,1.46,1.388,2.989,1.986,4.545L419.922,170.776z M83.079,164.026l-0.997-0.455c0.69-1.514,1.405-3.018,2.124-4.469
			l0.982,0.487C84.475,161.029,83.765,162.522,83.079,164.026z M415.623,162.069c-0.85-1.376-1.778-2.722-2.755-3.999l0.87-0.666
			c1,1.306,1.947,2.682,2.817,4.089L415.623,162.069z M87.443,155.225l-0.965-0.52c0.79-1.466,1.607-2.917,2.429-4.314l0.945,0.556
			C89.037,152.332,88.227,153.771,87.443,155.225z M409.726,154.365c-1.094-1.167-2.268-2.304-3.489-3.377l0.724-0.823
			c1.248,1.097,2.447,2.258,3.565,3.451L409.726,154.365z M402.436,147.944c-1.285-0.938-2.65-1.849-4.057-2.706l0.57-0.936
			c1.433,0.874,2.822,1.801,4.133,2.756L402.436,147.944z M92.425,146.768l-0.921-0.594c0.901-1.399,1.835-2.78,2.772-4.105
			l0.895,0.634C94.242,144.015,93.318,145.383,92.425,146.768z M394.115,142.856c-1.413-0.723-2.901-1.423-4.426-2.081l0.433-1.006
			c1.546,0.667,3.058,1.378,4.492,2.112L394.115,142.856z M385.137,138.967c-1.493-0.545-3.057-1.071-4.648-1.564l0.324-1.047
			c1.608,0.498,3.19,1.03,4.7,1.581L385.137,138.967z M98.098,138.769l-0.864-0.675c1.024-1.31,2.084-2.598,3.149-3.828l0.829,0.718
			C100.157,136.2,99.11,137.473,98.098,138.769z M375.768,136.054c-1.537-0.404-3.144-0.794-4.775-1.16l0.239-1.07
			c1.646,0.368,3.265,0.761,4.815,1.169L375.768,136.054z M366.177,133.9c-1.563-0.298-3.195-0.585-4.847-0.852l0.176-1.082
			c1.661,0.27,3.303,0.558,4.875,0.857L366.177,133.9z M356.461,132.319c-1.574-0.217-3.218-0.427-4.886-0.624l0.128-1.089
			c1.675,0.197,3.326,0.408,4.907,0.626L356.461,132.319z M104.517,131.367l-0.789-0.761c1.154-1.195,2.346-2.362,3.545-3.47
			l0.744,0.806C106.834,129.035,105.656,130.188,104.517,131.367z M346.677,131.161c-1.577-0.159-3.228-0.313-4.908-0.459
			l0.096-1.092c1.685,0.146,3.341,0.301,4.922,0.46L346.677,131.161z M336.853,130.306c-1.563-0.117-3.218-0.234-4.919-0.346
			l0.071-1.094c1.704,0.112,3.363,0.229,4.931,0.347L336.853,130.306z M327.011,129.653c-1.634-0.097-3.272-0.189-4.914-0.277
			l0.059-1.095c1.643,0.089,3.283,0.181,4.918,0.278L327.011,129.653z M317.174,129.118c-1.564-0.08-3.13-0.159-4.696-0.238
			l-0.234-0.012l0.055-1.095l0.234,0.012c1.566,0.079,3.133,0.158,4.697,0.238L317.174,129.118z M307.304,128.619
			c-1.65-0.085-3.3-0.171-4.946-0.26l0.059-1.095c1.647,0.089,3.294,0.175,4.943,0.26L307.304,128.619z M297.426,128.081
			c-1.739-0.103-3.352-0.203-4.932-0.307l0.071-1.094c1.578,0.104,3.19,0.205,4.924,0.307L297.426,128.081z M287.565,127.427
			c-1.692-0.128-3.351-0.261-4.928-0.397l0.095-1.092c1.573,0.136,3.226,0.269,4.915,0.396L287.565,127.427z M277.715,126.571
			c-1.679-0.169-3.333-0.348-4.917-0.533l0.128-1.089c1.579,0.185,3.227,0.364,4.897,0.531L277.715,126.571z M267.89,125.416
			c-1.669-0.228-3.316-0.473-4.893-0.726l0.173-1.082c1.57,0.252,3.208,0.494,4.87,0.722L267.89,125.416z M111.71,124.728
			l-0.694-0.848c1.28-1.048,2.604-2.065,3.935-3.023l0.641,0.89C114.278,122.69,112.973,123.694,111.71,124.728z M258.119,123.845
			c-1.653-0.31-3.285-0.642-4.853-0.986l0.235-1.071c1.556,0.342,3.177,0.671,4.818,0.979L258.119,123.845z M248.448,121.713
			c-0.717-0.184-1.436-0.376-2.139-0.57l-2.628-0.725l0.291-1.057l2.628,0.725c0.696,0.192,1.41,0.382,2.121,0.565L248.448,121.713z
			 M238.925,119.113c-1.583-0.432-3.17-0.863-4.759-1.29l0.285-1.059c1.591,0.428,3.179,0.859,4.763,1.291L238.925,119.113z
			 M119.651,119.015l-0.582-0.929c1.397-0.876,2.84-1.717,4.288-2.5l0.521,0.964C122.451,117.322,121.029,118.151,119.651,119.015z
			 M229.401,116.555c-1.642-0.432-3.248-0.847-4.772-1.236l0.27-1.062c1.527,0.389,3.136,0.806,4.78,1.238L229.401,116.555z
			 M128.256,114.362l-0.458-0.996c1.49-0.687,3.028-1.336,4.572-1.933l0.395,1.023C131.242,113.044,129.726,113.685,128.256,114.362
			z M219.847,114.124c-1.63-0.399-3.243-0.785-4.792-1.146l0.249-1.068c1.554,0.362,3.17,0.749,4.804,1.149L219.847,114.124z
			 M210.249,111.889c-1.631-0.358-3.252-0.702-4.818-1.021l0.219-1.074c1.571,0.32,3.198,0.665,4.835,1.024L210.249,111.889z
			 M137.381,110.835l-0.331-1.045c1.556-0.494,3.162-0.952,4.771-1.361l0.27,1.063C140.502,109.895,138.917,110.347,137.381,110.835
			z M200.598,109.925c-1.637-0.305-3.269-0.592-4.849-0.854l0.18-1.082c1.587,0.264,3.225,0.552,4.869,0.858L200.598,109.925z
			 M146.874,108.416l-0.211-1.076c1.597-0.313,3.244-0.592,4.894-0.828l0.155,1.085C150.08,107.831,148.453,108.106,146.874,108.416
			z M190.885,108.316c-1.646-0.236-3.288-0.452-4.878-0.641l0.129-1.089c1.6,0.19,3.25,0.407,4.905,0.645L190.885,108.316z
			 M181.116,107.161c-1.652-0.15-3.302-0.276-4.903-0.373l0.066-1.094c1.612,0.098,3.273,0.225,4.936,0.376L181.116,107.161z
			 M156.587,107.021l-0.103-1.091c1.614-0.152,3.277-0.272,4.943-0.355l0.055,1.095C159.833,106.752,158.186,106.87,156.587,107.021
			z M171.303,106.57c-1.236-0.034-2.476-0.051-3.683-0.051c-0.41,0-0.82,0.002-1.229,0.006l-0.01-1.096
			c0.412-0.004,0.826-0.006,1.239-0.006c1.218,0,2.467,0.017,3.713,0.051L171.303,106.57z"/>
	</g>
	<g>
		<path style="fill:#73C0FF;" d="M415.649,158.172c-0.753-2.914-1.907-5.666-3.399-8.195l3.46-5.205l-4.8-4.801l-4.801-4.801
			l-5.205,3.46c-2.53-1.492-5.281-2.646-8.195-3.399l-1.232-6.122h-6.79h-6.789l-1.232,6.122c-2.913,0.753-5.666,1.908-8.195,3.399
			l-5.204-3.46l-4.801,4.801l-4.801,4.801l3.46,5.205c-1.491,2.53-2.646,5.282-3.399,8.195l-6.122,1.232v6.79v6.79l6.122,1.232
			c0.753,2.914,1.908,5.666,3.399,8.195l-3.46,5.205l4.801,4.801l4.801,4.801l5.204-3.461c2.529,1.491,5.282,2.646,8.195,3.399
			l1.232,6.122h6.789h6.79l1.232-6.122c2.914-0.752,5.665-1.908,8.195-3.399l5.205,3.461l4.801-4.801l4.8-4.801l-3.46-5.205
			c1.492-2.529,2.647-5.281,3.399-8.195l6.122-1.232v-6.79v-6.79L415.649,158.172z M384.686,189.985
			c-13.139,0-23.79-10.651-23.79-23.791c0-13.14,10.651-23.791,23.79-23.791c13.141,0,23.791,10.651,23.791,23.791
			C408.478,179.334,397.827,189.985,384.686,189.985z"/>
	</g>
	<g>
		<path style="fill:#DAE8F5;" d="M384.686,181.613v104.282c0,6.892-5.587,12.479-12.478,12.479H217.159
			c-6.892,0-12.479-5.588-12.479-12.479V181.613c0-6.892,5.587-12.478,12.479-12.478h155.049
			C379.1,169.136,384.686,174.721,384.686,181.613z"/>
	</g>
	<g>
		<g>
			<path style="fill:#78C2FF;" d="M288.163,201.772c-5.528-15.458-20.302-24.953-35.872-24.484
				c-3.77,0.113-7.585,0.811-11.331,2.149c-11.341,4.057-19.474,13.091-22.815,23.763c-2.316,7.396-2.331,15.58,0.481,23.441
				c0.279,0.781,0.584,1.551,0.909,2.302c1.479,3.405,3.419,6.485,5.724,9.192c9.662,11.36,25.696,16.161,40.57,10.842
				C285.032,242.108,295.031,220.974,288.163,201.772z M262.718,240.273c-11.151,3.989-23.172,0.389-30.418-8.127
				c-1.727-2.03-3.183-4.339-4.29-6.893c-0.245-0.564-0.473-1.14-0.683-1.726c-2.108-5.893-2.096-12.029-0.36-17.573
				c2.505-8.003,8.602-14.776,17.105-17.816c2.807-1.004,5.668-1.526,8.494-1.613c11.673-0.353,22.751,6.767,26.896,18.357
				C284.611,219.28,277.114,235.124,262.718,240.273z"/>
		</g>
		<g>
			<path style="fill:#1A598C;" d="M226.967,205.955l-8.822-2.755c3.341-10.672,11.474-19.707,22.815-23.763
				c3.745-1.339,7.561-2.036,11.331-2.149l0.275,9.238c-2.826,0.086-5.688,0.609-8.494,1.613
				C235.569,191.178,229.472,197.952,226.967,205.955z"/>
		</g>
		<g>
			<path style="fill:#2273B5;" d="M228.01,225.254l-8.475,3.688c-0.326-0.751-0.63-1.52-0.909-2.302
				c-2.812-7.861-2.797-16.044-0.481-23.441l8.822,2.755c-1.736,5.544-1.748,11.68,0.36,17.573
				C227.538,224.114,227.766,224.69,228.01,225.254z"/>
		</g>
		<g>
			<path style="fill:#4DA8F2;" d="M225.26,238.134c-2.305-2.707-4.245-5.787-5.724-9.192l8.475-3.688
				c1.107,2.553,2.563,4.863,4.29,6.893L225.26,238.134z"/>
		</g>
	</g>
	<g>
		<g>
			<path style="fill:#6EB2EB;" d="M227.558,291.233c7.52,3.558,16.217,1.667,21.628-4.081c1.31-1.392,2.428-3.009,3.291-4.83
				c2.609-5.518,2.287-11.67-0.341-16.691c-1.82-3.479-4.747-6.418-8.572-8.227c-0.38-0.181-0.765-0.348-1.15-0.5
				c-1.75-0.69-3.549-1.098-5.345-1.242c-7.533-0.608-14.999,3.416-18.423,10.652C214.225,275.657,218.215,286.813,227.558,291.233z
				 M222.879,268.318c2.567-5.426,8.164-8.443,13.812-7.987c1.346,0.108,2.696,0.413,4.007,0.933
				c0.29,0.113,0.578,0.238,0.863,0.373c2.867,1.357,5.062,3.56,6.426,6.169c1.97,3.765,2.213,8.377,0.255,12.513
				c-0.646,1.366-1.484,2.579-2.466,3.623c-4.057,4.309-10.578,5.728-16.216,3.06C222.557,283.687,219.565,275.322,222.879,268.318z
				"/>
		</g>
		<g>
			<path style="fill:#1A598C;" d="M247.988,267.806l4.148-2.175c2.628,5.021,2.95,11.174,0.341,16.691
				c-0.862,1.821-1.98,3.438-3.291,4.83l-3.409-3.211c0.982-1.044,1.82-2.257,2.466-3.623
				C250.201,276.183,249.958,271.57,247.988,267.806z"/>
		</g>
		<g>
			<path style="fill:#2273B5;" d="M240.698,261.264l1.715-4.359c0.386,0.152,0.77,0.319,1.15,0.5
				c3.824,1.809,6.751,4.747,8.572,8.227l-4.148,2.175c-1.365-2.609-3.559-4.813-6.426-6.169
				C241.276,261.502,240.988,261.377,240.698,261.264z"/>
		</g>
		<g>
			<path style="fill:#4DA8F2;" d="M237.068,255.662c1.796,0.145,3.595,0.553,5.345,1.242l-1.715,4.359
				c-1.311-0.52-2.661-0.824-4.007-0.933L237.068,255.662z"/>
		</g>
	</g>
	<g>
		<path style="fill:#4DA8F2;" d="M384.686,181.613v104.282c0,6.892-5.587,12.479-12.478,12.479h-68.646V169.136h68.646
			C379.1,169.136,384.686,174.721,384.686,181.613z"/>
	</g>
	<g>
		<path style="fill:#E3F2FF;" d="M372.635,189.113h-57.02c-0.898,0-1.628-0.729-1.628-1.628v-3.312c0-0.899,0.729-1.628,1.628-1.628
			h57.02c0.899,0,1.628,0.729,1.628,1.628v3.312C374.263,188.385,373.534,189.113,372.635,189.113z"/>
	</g>
	<g>
		<path style="fill:#73C0FF;" d="M372.635,203.2h-57.02c-0.898,0-1.628-0.729-1.628-1.628v-3.312c0-0.899,0.729-1.628,1.628-1.628
			h57.02c0.899,0,1.628,0.729,1.628,1.628v3.312C374.263,202.471,373.534,203.2,372.635,203.2z"/>
	</g>
	<g>
		<path style="fill:#73C0FF;" d="M368.789,287.047h-49.328c-3.023,0-5.474-2.45-5.474-5.474v-63.313c0-3.023,2.45-5.474,5.474-5.474
			h49.328c3.022,0,5.474,2.451,5.474,5.474v63.313C374.263,284.597,371.811,287.047,368.789,287.047z"/>
	</g>
	<g style="opacity:0.58;">
		<path style="fill:#E0F1FF;" d="M324.74,264.666h-7.946c-3.717,0-6.729-3.013-6.729-6.728v-41.581c0-3.716,3.013-6.729,6.729-6.729
			h7.946c3.716,0,6.728,3.012,6.728,6.729v41.581C331.469,261.653,328.456,264.666,324.74,264.666z"/>
	</g>
	<g>
		<rect x="170.679" y="163.165" style="fill:#78C2FF;" width="137.56" height="0.914"/>
	</g>
	<g>
		<path style="fill:#4DA8F2;" d="M184.456,155.611c-4.066,0-7.374-3.308-7.374-7.373c0-4.066,3.308-7.374,7.374-7.374
			c4.065,0,7.373,3.308,7.373,7.374C191.829,152.303,188.521,155.611,184.456,155.611z M184.456,141.961
			c-3.462,0-6.277,2.815-6.277,6.277c0,3.461,2.816,6.277,6.277,6.277c3.461,0,6.277-2.816,6.277-6.277
			C190.732,144.776,187.917,141.961,184.456,141.961z"/>
	</g>
	<g>
		<g>
			<path style="fill:#EEA886;" d="M164.695,239.63c0,0,6.887,1.23,6.948,7.063c0.061,5.833-5.275,14.28-8.744,13.655
				c-3.468-0.625-7.413-3.704-7.279-7.252c0.134-3.548,1.117-8.21,2.716-10.768C159.935,239.77,162.77,239.504,164.695,239.63z"/>
		</g>
	</g>
	<g>
		<g>
			<path style="fill:#E8734D;" d="M155.86,250.395c0,0,0.013,1.19,2.382,2.133c2.369,0.943,6.721-0.377,7.813-0.158
				c1.093,0.219,1.416-0.309,1.416-0.309l0.077,1.164l0.926,0.629c0,0,0.649-3.099,2.595-3.368c1.945-0.27,3.567-9.165-4.824-10.848
				c0,0-6.211-1.688-7.814,1.465C156.829,244.255,155.56,248.175,155.86,250.395z"/>
		</g>
	</g>
	<g style="opacity:0.82;">
		<path style="fill:#87C9FF;" d="M207.183,351.805h-53.965c-4.448,0-8.055-3.607-8.055-8.054v-53.966
			c0-4.448,3.606-8.055,8.055-8.055h53.965c4.448,0,8.054,3.606,8.054,8.055v53.966
			C215.237,348.198,211.631,351.805,207.183,351.805z"/>
	</g>
	<g>
		<path style="fill:#E3F2FF;" d="M209.808,176.156v39.182c0,3.877-3.143,7.02-7.02,7.02h-56.036c-3.877,0-7.02-3.143-7.02-7.02
			v-39.182c0-3.878,3.143-7.02,7.02-7.02h56.036C206.665,169.136,209.808,172.278,209.808,176.156z"/>
	</g>
	<g>
		<path style="fill:#E3F2FF;" d="M208.24,299.568h-23.927c-0.909,0-1.646-0.737-1.646-1.647v-4.245c0-0.909,0.737-1.647,1.646-1.647
			h23.927c0.909,0,1.646,0.737,1.646,1.647v4.245C209.887,298.831,209.149,299.568,208.24,299.568z"/>
	</g>
	<g>
		<path style="fill:#E3F2FF;" d="M206.096,343.35h-19.639c-2.093,0-3.79-1.697-3.79-3.79v-32.37c0-2.093,1.697-3.79,3.79-3.79
			h19.639c2.093,0,3.79,1.697,3.79,3.79v32.37C209.887,341.652,208.189,343.35,206.096,343.35z"/>
	</g>
	<g>
		<g>
			<path style="fill:#E3F2FF;" d="M160.908,313.283c1.21,0.41,2.506,0.64,3.855,0.657c4.085,0.053,7.738-1.856,10.063-4.852
				c1.611-2.077,2.584-4.676,2.619-7.507c0.004-0.282-0.002-0.563-0.016-0.839c-0.067-1.258-0.32-2.466-0.732-3.6
				c-1.727-4.753-6.254-8.175-11.61-8.245c-2.887-0.037-5.556,0.904-7.695,2.518c-2.988,2.253-4.938,5.813-4.989,9.843
				C152.331,306.825,155.904,311.59,160.908,313.283z M155.535,301.299c0.038-3,1.481-5.653,3.694-7.343
				c1.612-1.232,3.631-1.952,5.816-1.925c4.016,0.051,7.41,2.617,8.706,6.183l0.002,0.005c0.308,0.848,0.497,1.752,0.547,2.693
				c0.011,0.207,0.014,0.417,0.012,0.629c-0.027,2.122-0.758,4.069-1.964,5.627c-1.743,2.247-4.481,3.68-7.544,3.639
				c-1.012-0.013-1.983-0.185-2.892-0.492C158.162,309.047,155.482,305.475,155.535,301.299z"/>
		</g>
		<g>
			<path style="fill:#1A598C;" d="M172.347,307.168l2.478,1.92c-2.324,2.996-5.977,4.905-10.062,4.853
				c-1.349-0.018-2.644-0.248-3.855-0.657l1.005-2.97c0.908,0.308,1.879,0.479,2.891,0.492
				C167.866,310.847,170.605,309.415,172.347,307.168z"/>
		</g>
		<g>
			<path style="fill:#2273B5;" d="M174.299,300.911l3.13-0.17c0.015,0.277,0.02,0.558,0.017,0.84c-0.037,2.83-1.009,5.43-2.62,7.507
				l-2.478-1.92c1.208-1.557,1.937-3.506,1.964-5.627C174.314,301.329,174.31,301.119,174.299,300.911z"/>
		</g>
		<g>
			<path style="fill:#2273B5;" d="M174.3,300.912c-0.051-0.941-0.24-1.846-0.547-2.693l-0.002-0.005l2.946-1.071
				c0.412,1.134,0.665,2.342,0.732,3.6L174.3,300.912z"/>
		</g>
		<g>
			<path style="fill:#4DA8F2;" d="M157.392,291.416c2.139-1.614,4.808-2.556,7.695-2.518c5.356,0.07,9.883,3.492,11.61,8.245
				l-2.944,1.076l-0.002-0.005c-1.295-3.565-4.689-6.132-8.706-6.183c-2.185-0.027-4.204,0.693-5.816,1.925L157.392,291.416z"/>
		</g>
	</g>
	<g>
		<g>
			<polygon style="fill:#D6D6D6;" points="72.657,192.85 87.752,169.266 80.085,172.742 			"/>
		</g>
		<g>
			<polygon style="fill:#E8E8E8;" points="72.657,192.85 73.579,178.636 79.062,175.51 			"/>
		</g>
		<g>
			<polygon style="fill:#C2C2C2;" points="84.28,174.69 86.165,177.174 72.657,192.85 			"/>
		</g>
	</g>
	<g>
		<path style="fill:#EEA886;" d="M177.528,285.328c0,0,0.675-0.088,1.068-0.488c0.678-0.691,0.741-2.152,2.106-2.251
			c1.365-0.099,2.625,4.041,2.407,4.893c-0.218,0.851-2.032,1.533-4.885,1.396C175.372,288.739,177.528,285.328,177.528,285.328z"/>
	</g>
	<g>
		<path style="fill:#EEA886;" d="M180.244,282.687c0,0,1.841-0.951,4.008-1.771c1.901-0.719,4.252-1.23,4.507-0.903
			c0.567,0.727-1.65,1.238-3.493,2.073c-1.697,0.769-1.405,0.646-1.405,0.646s-0.125-0.042,1.87-0.533
			c2.146-0.529,4.387-0.86,4.673-0.459c0.139,0.195,0.39,0.877-0.511,0.849c0.468-0.092,0.395-0.163,0.441,0.023
			c0.24,0.966-2.817,2.222-4.031,2.72c0.935-0.377,1.656-0.558,1.405,0.151c-0.287,0.811-4.679,2.398-6.206,3.112
			C179.838,289.373,180.244,282.687,180.244,282.687z"/>
	</g>
	<g>
		<path style="fill:#D4D8E8;" d="M147.627,256.806c0,0-4.304-0.312-7.341,0c-3.037,0.31-7.234,2.796-9.774,3.514
			c-2.54,0.718-8.669,4.837-8.504,5.4c0.166,0.563,2.54,7.267,6.93,12.712C132.696,283.092,147.627,256.806,147.627,256.806z"/>
	</g>
	<g>
		<path style="fill:#A9ADBA;" d="M138.341,259.507c0,0-4.64,3.435-6.255,6.583c-1.615,3.147-2.166,6.897-2.166,6.897
			L138.341,259.507z"/>
	</g>
	<g>
		<path style="fill:#1C4154;" d="M141.857,361.798c0,0,1.326,1.408,2.092,1.781c0.766,0.373,9.919,1.947,10.54,2.691
			c0.621,0.746,0.621,3.686-1.74,3.686c-2.36,0-10.229-0.042-11.555,0c-1.325,0.041-6.923,1.16-7.5,0
			c-0.576-1.159-0.523-6.571,0.501-7.868C135.219,360.791,141.857,361.798,141.857,361.798z"/>
	</g>
	<g>
		<path style="fill:#2A617D;" d="M141.575,360.154l0.282,1.644c0,0-2.443,1.118-7.662,0.291v-1.699L141.575,360.154z"/>
	</g>
	<g>
		<path style="fill:#1C4154;" d="M85.992,357.243c0,0-1.025,1.19-1.532,2.733c-0.324,0.987-1.864,5.592-1.201,6.709
			c0.663,1.119,5.881,1.284,8.49,0.87c2.609-0.414,8.283,0.455,8.863-0.662c0.58-1.118,0.911-2.75-0.787-3.384
			c-1.698-0.634-5.591-2.291-6.295-4.03C92.825,357.74,85.992,357.243,85.992,357.243z"/>
	</g>
	<g>
		<path style="fill:#2A617D;" d="M94.253,357.616l-0.724,1.863c0,0-7.476-0.561-7.538-2.236l2.361-3.438L94.253,357.616z"/>
	</g>
	<g>
		<g>
			<g>
				<path style="fill:#EEA886;" d="M155.631,253.632c0,0-4.167,3.539-5.353,3.25c-1.186-0.289,4.086,7.486,4.086,7.486
					s5.02-4.941,6.151-5.091C161.646,259.127,155.631,253.632,155.631,253.632z"/>
			</g>
		</g>
	</g>
	<g>
		<path style="fill:#D4D8E8;" d="M155.914,267.607c-1.419,0.857-1.657,1.133-1.491,5.191c0.165,4.059,1.85,7.33,1.974,8.448
			c0.124,1.118,2.378,12.21,3,12.831c0.621,0.621,8.046-0.826,9.548-1.291c2.248-0.697,11.762-3.919,11.762-3.919l-2.093-4.364
			c0,0-12.01,2.679-12.397,1.74c-0.386-0.938-1.327-8.822-1.658-10.534c-0.331-1.712,0.246-4.402-1.799-8.463
			C160.928,263.611,155.914,267.607,155.914,267.607z"/>
	</g>
	<g>
		<path style="fill:#326EA0;" d="M141.831,298.144c0,0,2.545,2.708,3.258,3.589c4.876,6.025,11.513,17.091,12.341,19.023
			c0.829,1.932-4.103,15.6-6.129,20.375c-1.063,2.505-8.09,19.756-7.869,20.142c0.221,0.387-7.434,0.642-10.857-1.125
			c0,0,4.922-14.584,5.959-17.443c1.566-4.318,6.996-16.278,7.162-17.438c0.165-1.16-8.778-10.723-11.76-12.545
			c-2.982-1.822-10.271-8.283-11.099-9.111c-0.828-0.828-5.522-3.037-5.08-7.234c0.442-4.196,3.562-7.509,3.562-7.509
			L141.831,298.144z"/>
	</g>
	<g>
		<path style="fill:#326EA0;" d="M128.45,308.526c0,0-0.466,1.226-1.12,2.944c-1.405,3.689-3.674,9.643-4.052,10.584
			c-0.552,1.381-3.313,7.345-4.639,8.505c-1.325,1.159-23.136,27.333-23.192,27.554c-0.054,0.221-8.172-3.977-8.669-5.578
			c0,0,11.816-15.406,13.639-17.669c1.822-2.265,5.632-5.632,6.903-10.989c1.271-5.357,10.378-25.953,10.407-26.727
			c0,0,1.466-6.35,3.591-8.282c2.125-1.934,9.857,0.331,11.071,4.361C133.605,297.262,128.45,308.526,128.45,308.526z"/>
	</g>
	<g>
		<path style="fill:#D4D8E8;" d="M149.901,256.845l1.76-0.694c0,0,4.445,1.021,7.013,4.583l-0.221,1.065
			C158.454,261.798,151.675,260.328,149.901,256.845z"/>
	</g>
	<g>
		<path style="fill:#A9ADBA;" d="M156.688,282.773c-0.357,0.497-0.646,0.852-0.83,1.015c-0.126,0.108-0.278,0.236-0.454,0.379
			c-0.001,0.002-0.003,0.002-0.003,0.002l-0.167-6.68c0,0,0.838,2.574,0.962,2.955C156.322,280.827,156.688,282.773,156.688,282.773
			z"/>
	</g>
	<g>
		<path style="fill:#215B8A;" d="M128.45,308.526c0,0-0.466,1.226-1.12,2.944c-1.484-1.709-4.872-8.166-4.872-8.166
			c0.221,0.158,0.93,0.823,1.094,0.971C123.714,304.425,128.45,308.526,128.45,308.526z"/>
	</g>
	<g>
		<g>
			<path style="fill:#EEA886;" d="M166.383,251.845c0.157-0.506-0.222-2.44-1.456-1.339c-1.234,1.101-1.229,3.568-0.533,3.77
				C165.092,254.477,165.987,253.128,166.383,251.845z"/>
		</g>
	</g>
	<g>
		<g>
			<path style="fill:#E8734D;" d="M161.768,240.987c0,0-5.977-4.25-6.009,10.24L161.768,240.987z"/>
		</g>
	</g>
	<g>
		<path style="fill:#D4D8E8;" d="M156.688,282.773c-0.357,0.497-0.646,0.852-0.83,1.015c-0.126,0.108-0.278,0.236-0.454,0.379
			c-0.001,0.002-0.003,0.002-0.003,0.002c-1.687,1.349-5.47,3.971-7.218,4.92c-1.933,1.051-5.598,9.892-5.598,9.892
			s-17.291-1.167-21.267-10.111c0,0,2.816-6.295,5.384-10.023c2.567-3.727,8.2-17.146,11.182-19.051
			c2.982-1.905,5.55-3.148,11.431-2.982c5.881,0.166,9.139,4.832,9.139,4.832s4.473,4.805,4.914,7.345
			C163.749,271.174,158.893,279.7,156.688,282.773z"/>
	</g>
	<g>
		<path style="fill:#4DA8F2;" d="M209.808,176.156l-0.122,3.897h-70.075l0.122-3.897c0-3.878,3.143-7.02,7.02-7.02h56.036
			C206.665,169.136,209.808,172.278,209.808,176.156z"/>
	</g>
	<g>
		<path style="fill:#78C2FF;" d="M161.713,217.874h-14.099c-1.822,0-3.304-1.482-3.304-3.304v-28.107
			c0-1.822,1.482-3.304,3.304-3.304h14.099c1.822,0,3.304,1.482,3.304,3.304v28.107
			C165.018,216.392,163.535,217.874,161.713,217.874z M147.614,184.255c-1.218,0-2.208,0.99-2.208,2.208v28.107
			c0,1.217,0.99,2.208,2.208,2.208h14.099c1.217,0,2.208-0.99,2.208-2.208v-28.107c0-1.217-0.991-2.208-2.208-2.208H147.614z"/>
	</g>
	<g>
		<path style="fill:#78C2FF;" d="M203.446,186.63h-33.591c-0.607,0-1.098-0.491-1.098-1.098v-0.728c0-0.606,0.491-1.098,1.098-1.098
			h33.591c0.606,0,1.098,0.492,1.098,1.098v0.728C204.544,186.139,204.053,186.63,203.446,186.63z"/>
	</g>
	<g>
		<path style="fill:#78C2FF;" d="M203.446,192.568h-33.591c-0.607,0-1.098-0.491-1.098-1.098v-0.728
			c0-0.606,0.491-1.098,1.098-1.098h33.591c0.606,0,1.098,0.492,1.098,1.098v0.728C204.544,192.077,204.053,192.568,203.446,192.568
			z"/>
	</g>
	<g>
		<path style="fill:#6EB2EB;" d="M285.012,266.61h-22.184c-0.939,0-1.697-0.761-1.697-1.698v-3.426c0-0.938,0.759-1.697,1.697-1.697
			h22.184c0.938,0,1.698,0.76,1.698,1.697v3.426C286.71,265.85,285.949,266.61,285.012,266.61z"/>
	</g>
	<g>
		<path style="fill:#4DA8F2;" d="M285.012,277.729h-22.184c-0.939,0-1.697-0.76-1.697-1.697v-3.426c0-0.938,0.759-1.697,1.697-1.697
			h22.184c0.938,0,1.698,0.76,1.698,1.697v3.426C286.71,276.969,285.949,277.729,285.012,277.729z"/>
	</g>
	<g>
		<path style="fill:#2273B5;" d="M285.012,288.848h-22.184c-0.939,0-1.697-0.76-1.697-1.697v-3.426c0-0.938,0.759-1.697,1.697-1.697
			h22.184c0.938,0,1.698,0.76,1.698,1.697v3.426C286.71,288.088,285.949,288.848,285.012,288.848z"/>
	</g>
	<g>
		<path style="fill:#E3F2FF;" d="M150.949,175.059c0,1.682-1.364,3.045-3.045,3.045c-1.682,0-3.045-1.363-3.045-3.045
			c0-1.682,1.363-3.045,3.045-3.045C149.585,172.014,150.949,173.377,150.949,175.059z"/>
	</g>
	<g>
		<g>
			<path style="fill:#2273B5;" d="M380.013,280.327c0,0,12.38,3.995,15.237,3.292c1.511-0.373,3.873-2.516,6.068-4.825
				c0.362-0.383,0.721-0.771,1.071-1.154c2.42-2.663,4.398-5.2,4.398-5.2s5.996-7.027,1.185-10.159c0,0-2.123,0.2-3.728,1.919
				c-1.605,1.719-3.109,4.459-3.529,5.376c-0.42,0.917-6.309,9.411-6.615,9.602c-0.305,0.19-2.878-0.485-4.94-0.657
				c-3.365-0.28-8.399-1.995-8.399-1.995L380.013,280.327z"/>
		</g>
	</g>
	<g>
		<path style="fill:#16202E;" d="M397.03,356.596c0,0-1.575,2.818-2.512,3.39c-1.166,0.711-3.429,2.993-4.22,3.1
			c-0.79,0.105-3.631,0.609-3.082,2.213c0.449,1.315,7.227,1.126,7.99,0.467c0.765-0.658,3.05-3.022,3.973-2.97
			c0.923,0.053,0.58,3.41,0.58,3.41h1.001c0,0,0.35-3.268,0.392-3.829c0.125-1.662-1.06-2.886-1.112-3.834
			c-0.054-0.948-0.107-1.656-0.107-1.656L397.03,356.596z"/>
	</g>
	<g>
		<path style="fill:#EEA886;" d="M390.526,363.008c0,0,2.233,0.771,3.953-0.217c1.719-0.988,5.018-2.488,6.186-2.499
			c0,0-0.637-1.946-0.649-2.164c-0.014-0.218-0.083-1.242-0.083-1.242l-2.885-0.463c0,0-1.871,2.747-2.696,3.395
			C393.527,360.464,391.415,362.077,390.526,363.008z"/>
	</g>
	<g>
		<path style="fill:#EEA886;" d="M424.268,359.247c0,0-0.279,1.95-0.583,2.481c-0.304,0.532-1.14,3.243-1.52,3.749
			c-0.38,0.507-1.216,4.307,0,4.762c1.216,0.456,4.078,1.216,5.04-0.304c0.963-1.521,1.089-3.04,0.938-4.204
			c-0.152-1.165-1.308-6.513-1.292-7.042C426.867,358.16,424.268,359.247,424.268,359.247z"/>
	</g>
	<g>
		<path style="fill:#16202E;" d="M422.65,364.426c0,0-0.131,2.951,2.098,2.951c2.23,0,3.217-2.686,3.217-2.686s0.76,1.318,0,4.129
			c-0.76,2.813-3.926,2.229-4.635,2.128C422.621,370.848,419.26,369.958,422.65,364.426z"/>
	</g>
	<g>
		<path style="fill:#1A598C;" d="M420.59,292.002c0,0,2.882,3.672,3.898,6.1s2.711,7.754,2.485,11.878
			c-0.226,4.123-1.582,11.863-1.186,13.614c0.395,1.751,0.79,5.366,1.215,6.609c0.424,1.243,2.118,4.858,2.288,8.586
			c0.169,3.729-1.206,20.084-1.094,21.609c0.113,1.524-4.936,0.593-4.936,0.593s-0.129-14.744-0.693-17.286
			c-0.565-2.543-1.243-11.187-1.752-11.808c-0.508-0.621-1.935-7.175-2.026-8.244c-0.089-1.035-6.133-18.952-6.471-22.002
			c-0.34-3.051-7.907-9.65-7.907-9.65S411.834,289.163,420.59,292.002z"/>
	</g>
	<g>
		<path style="fill:#1A598C;" d="M401.819,357.404c1.074-0.169,3.949-16.693,3.61-19.631c-0.34-2.938-0.678-9.2,0.283-11.746
			c0.63-1.671,4.567-10.172,7.217-16.141c0.373-0.843,0.722-1.634,1.031-2.35c0.841-1.941,1.396-3.318,1.411-3.602
			c0.058-1.13,3.74-20.592-10.812-11.934c0,0-0.147,1.539-0.316,2.103c-0.171,0.564-4.068,14.971-4.463,20.507
			c-0.396,5.536-1.413,10.231-1.582,11.415c-0.17,1.183,0.169,5.138,0.508,6.154c0.339,1.017-2.204,23.975-2.373,24.54
			C396.165,357.287,400.747,357.573,401.819,357.404z"/>
	</g>
	<g>
		<g>
			<path style="fill:#EDDAD3;" d="M410.269,261.252c0,0-2.754,1.3-3.71,1.491c-0.956,0.19-4.666,5.009-5.317,6.767
				c-0.65,1.759-0.001,4.397,1.337,7.495c1.338,3.098,0.075,4.131,0.686,7.228c0.611,3.097,1.146,9.655,1.03,11.376
				c-0.115,1.721,15.467,2.05,19.023-1.085c0,0-3.572-5.355-4.031-6.119c-0.459-0.766-0.075-4.934,0.346-6.004
				c0.421-1.071,3.402-9.916,3.402-9.916s2.112-7.253,0.043-8.86c-1.797-1.396-6.695-1.895-7.574-2.2
				C414.624,261.119,412.065,260.985,410.269,261.252z"/>
		</g>
	</g>
	<g>
		<g>
			<path style="fill:#D6C5BE;" d="M409.387,267.39l-1.672-1.959l1.454-5.158C409.169,260.273,409.656,263.145,409.387,267.39z"/>
		</g>
	</g>
	<g>
		<g>
			<path style="fill:#EEA886;" d="M408.955,258.074c0,0,0.548,5.052,0.434,6.696c0,0,2.859,2.868,6.115-3.345
				c0,0-1.368-2.561-0.338-6.052C416.198,251.885,408.955,258.074,408.955,258.074z"/>
		</g>
	</g>
	<g>
		<g>
			<polygon style="fill:#EEA886;" points="409.389,264.771 409.387,267.39 412.681,264.931 			"/>
		</g>
	</g>
	<g>
		<g>
			<polygon style="fill:#D6C5BE;" points="409.387,267.39 410.755,265.698 415.36,261.109 416.851,262.545 			"/>
		</g>
	</g>
	<g>
		<g>
			<path style="fill:#2273B5;" d="M414.677,298.092c1.296,6.207,10.676-0.698,10.676-0.698s-6.081-10.22-3.661-18.388
				c0.019-0.065,0.038-0.129,0.058-0.193c0.154-0.516,0.309-1.007,0.463-1.474c0.027-0.084,0.055-0.169,0.082-0.251
				c0.528-1.605,0.96-2.934,1.31-4.026v-0.001c1.081-3.361,1.395-4.469,1.395-4.469s-0.463-5.232-3.047-5.807
				c-2.595-0.576-5.336-1.118-5.336-1.118s-4.48,5.745-4.666,8.327C411.764,272.574,413.38,291.884,414.677,298.092z"/>
		</g>
	</g>
	<g>
		<g>
			<path style="fill:#2273B5;" d="M400.857,270.699c0,0-0.29,3.559,2.153,8.232c0,0-0.052,6.258-0.129,8.438
				c-0.077,2.18-0.596,10.421-0.596,10.421l2.686,1.574c0.541,0.316,1.211-0.122,1.135-0.745
				c-0.759-6.272-3.227-30.067,2.119-36.462l-2.382,0.822C405.844,262.98,400.857,268.21,400.857,270.699z"/>
		</g>
	</g>
	<g>
		<g>
			<polygon style="fill:#FAE6DE;" points="407.715,265.431 405.606,266.012 409.169,260.273 			"/>
		</g>
	</g>
	<g>
		<g>
			<polygon style="fill:#FAE6DE;" points="410.755,265.698 412.68,268.223 416.615,261.667 415.36,261.109 			"/>
		</g>
	</g>
	<g>
		<path style="fill:#EEA886;" d="M410.948,241.772c-2.015-0.194-6.542,0.609-7.486,5.928c0,0,0.093,1.451,0.39,2.601
			c0.296,1.15-0.879,4.444-0.621,4.622c0.256,0.177,1.342,0.44,1.342,0.44s1.005,3.707,2.288,3.736
			c1.283,0.03,6.184-0.741,8.685-5.176C418.048,249.49,419.085,242.554,410.948,241.772z"/>
	</g>
	<g>
		<path style="fill:#344052;" d="M403.462,247.7c0,0,3.172,2.391,6.403,2.997c3.232,0.606,4.98,6.229,4.98,6.229
			s5.421-8.147,1.666-13.364C412.757,238.345,403.051,241.428,403.462,247.7z"/>
	</g>
	<g>
		<path style="fill:#EEA886;" d="M411.226,250.611c0.048-0.629,0.794-1.541,1.785-0.631c0.991,0.909-0.539,3.838-1.371,3.505
			C410.808,253.151,411.177,251.262,411.226,250.611z"/>
	</g>
	<g>
		<path style="fill:#A77860;" d="M408.948,258.805c0.073,0.393,0.147,0.852,0.209,1.338c2.712-1.547,4.134-3.516,4.134-3.516
			C411.722,257.916,408.948,258.805,408.948,258.805z"/>
	</g>
	<g style="opacity:0.86;">
		<path style="fill:#E0F1FF;" d="M351.276,292.94l40.204,0.198c2.201,0.011,3.995-1.765,4.006-3.966l0.133-26.826
			c0.011-2.202-1.766-3.996-3.967-4.007l-40.204-0.198c-2.201-0.011-3.995,1.765-4.006,3.967l-0.133,26.826
			C347.299,291.135,349.074,292.928,351.276,292.94z"/>
	</g>
	<g>
		<path style="fill:#A1D4FF;" d="M369.177,290.246l20.49,0.102c1.443,0.006,2.619-1.158,2.627-2.601l0.112-22.79
			c0.007-1.442-1.157-2.618-2.6-2.626l-20.491-0.101c-1.442-0.008-2.619,1.156-2.626,2.601l-0.112,22.788
			C366.568,289.063,367.733,290.239,369.177,290.246z"/>
	</g>
	<g>
		<path style="fill:#A1D4FF;" d="M352.471,290.236l11.843,0.059c0.405,0.002,0.736-0.325,0.738-0.73l0.014-2.807
			c0.002-0.406-0.325-0.736-0.73-0.738l-11.843-0.059c-0.406-0.002-0.736,0.325-0.738,0.732l-0.015,2.806
			C351.738,289.904,352.065,290.234,352.471,290.236z"/>
	</g>
	<g>
		<path style="fill:#A1D4FF;" d="M352.144,284.67l12.513,0.061c0.221,0.001,0.4-0.177,0.401-0.397l0.002-0.466
			c0.001-0.222-0.177-0.401-0.397-0.402l-12.513-0.061c-0.221-0.002-0.4,0.177-0.401,0.397l-0.002,0.467
			C351.744,284.489,351.923,284.669,352.144,284.67z"/>
	</g>
	<g>
		<g>
			<path style="fill:#EEA886;" d="M397.102,281.878c0,0-0.475,0.11-0.838-0.059c-0.628-0.293-1.036-1.257-1.976-0.98
				c-0.939,0.276-0.747,3.364-0.387,3.88c0.359,0.517,1.745,0.518,3.621-0.288C399.399,283.624,397.102,281.878,397.102,281.878z"/>
		</g>
		<g>
			<path style="fill:#EEA886;" d="M394.62,280.789c0,0-1.472-0.177-3.128-0.184c-1.454-0.006-3.136,0.248-3.246,0.523
				c-0.123,0.307,1.46,0.213,2.904,0.311c1.328,0.091,1.059,0.285,1.059,0.285s0.073-0.06-1.387,0.11
				c-1.57,0.183-3.154,0.521-3.245,0.862c-0.045,0.166,0.029,0.256,0.614,0.279c-0.337,0.055-0.365,0.151-0.35,0.288
				c0.081,0.707,2.443,0.783,3.381,0.813c-0.721-0.018-1.249,0.041-0.903,0.453c0.396,0.472,3.735,0.435,4.937,0.531
				C396.566,285.166,394.62,280.789,394.62,280.789z"/>
		</g>
	</g>
	<g>
		<path style="fill:#344052;" d="M414.252,249.482c-0.991,2.255-0.392,4.699,1.338,5.459c1.729,0.761,3.936-0.451,4.926-2.706
			c0.991-2.255,0.392-4.7-1.338-5.46C417.448,246.016,415.242,247.228,414.252,249.482z"/>
	</g>
	<g>
		<g>
			<path style="fill:#2273B5;" d="M422.478,262.98c0,0-2.565,0.473-3.835,2.452c-1.269,1.979-2.566,4.795-2.815,5.772
				c-0.248,0.978-5.06,9.949-5.327,10.191c-0.266,0.243-2.92,0.04-4.979,0.242c-3.361,0.328-8.621-0.453-8.621-0.453l-0.053,3.875
				c0,0,12.898,1.705,15.582,0.498c3.282-1.475,11.225-12.566,11.225-12.566S427.775,265.195,422.478,262.98z"/>
		</g>
	</g>
	<g>
		<path style="fill:#1A598C;" d="M417.267,281.114l5.027-4.026c0.528-1.605,0.96-2.934,1.31-4.026
			C423.603,273.062,418.508,279.737,417.267,281.114z"/>
	</g>
	<g>
		<path style="fill:#1A598C;" d="M401.318,278.794c0.362-0.383,0.721-0.771,1.071-1.154c0,0-1.362-3.622-1.452-5.154
			C400.938,272.485,400.618,275.91,401.318,278.794z"/>
	</g>
	<g>
		<g>
			<path style="fill:#73C0FF;" d="M363.17,265.527c-0.881-2.463-3.234-3.975-5.714-3.9c-0.6,0.018-1.208,0.129-1.805,0.343
				c-1.807,0.645-3.102,2.085-3.634,3.784c-0.369,1.179-0.371,2.482,0.076,3.734c0.045,0.124,0.093,0.247,0.146,0.366
				c0.235,0.542,0.545,1.033,0.912,1.464c1.538,1.809,4.093,2.574,6.462,1.727C362.671,271.952,364.264,268.585,363.17,265.527z
				 M359.117,271.659c-1.776,0.636-3.69,0.061-4.845-1.295c-0.275-0.323-0.508-0.69-0.684-1.097
				c-0.039-0.091-0.075-0.183-0.108-0.275c-0.336-0.939-0.334-1.916-0.058-2.799c0.399-1.275,1.37-2.354,2.725-2.838
				c0.446-0.16,0.902-0.243,1.353-0.257c1.859-0.056,3.623,1.078,4.284,2.924C362.603,268.315,361.41,270.84,359.117,271.659z"/>
		</g>
		<g>
			<path style="fill:#73C0FF;" d="M353.423,266.193l-1.405-0.44c0.532-1.699,1.827-3.139,3.634-3.784
				c0.597-0.214,1.205-0.324,1.805-0.343l0.044,1.472c-0.45,0.014-0.906,0.097-1.353,0.257
				C354.793,263.84,353.822,264.919,353.423,266.193z"/>
		</g>
		<g>
			<path style="fill:#73C0FF;" d="M353.589,269.268l-1.35,0.587c-0.053-0.119-0.101-0.242-0.146-0.366
				c-0.447-1.252-0.445-2.556-0.076-3.734l1.405,0.44c-0.276,0.883-0.278,1.86,0.058,2.799
				C353.514,269.085,353.55,269.177,353.589,269.268z"/>
		</g>
		<g>
			<path style="fill:#73C0FF;" d="M353.151,271.318c-0.367-0.431-0.677-0.922-0.912-1.464l1.35-0.587
				c0.176,0.406,0.408,0.773,0.684,1.097L353.151,271.318z"/>
		</g>
	</g>
	<g>
		<g>
			<path style="fill:#73C0FF;" d="M356.547,275.85c-0.361-1.011-1.328-1.633-2.347-1.602c-0.247,0.007-0.497,0.053-0.741,0.141
				c-0.742,0.266-1.274,0.855-1.492,1.555c-0.152,0.483-0.153,1.02,0.031,1.533c0.018,0.051,0.037,0.102,0.059,0.15
				c0.098,0.223,0.225,0.425,0.375,0.602c0.632,0.743,1.682,1.057,2.654,0.709C356.342,278.488,356.996,277.105,356.547,275.85z
				 M354.882,278.368c-0.729,0.261-1.516,0.025-1.989-0.531c-0.113-0.133-0.208-0.284-0.281-0.451
				c-0.016-0.036-0.03-0.075-0.044-0.113c-0.139-0.386-0.138-0.786-0.023-1.15c0.163-0.523,0.563-0.967,1.118-1.166
				c0.184-0.064,0.371-0.1,0.556-0.104c0.764-0.023,1.488,0.442,1.76,1.2C356.315,276.995,355.824,278.031,354.882,278.368z"/>
		</g>
		<g>
			<path style="fill:#73C0FF;" d="M352.544,276.123l-0.577-0.18c0.218-0.699,0.75-1.289,1.492-1.555
				c0.244-0.088,0.494-0.134,0.741-0.141l0.018,0.605c-0.185,0.005-0.372,0.04-0.556,0.104
				C353.106,275.156,352.707,275.6,352.544,276.123z"/>
		</g>
		<g>
			<path style="fill:#73C0FF;" d="M352.611,277.386l-0.555,0.241c-0.021-0.049-0.041-0.1-0.059-0.15
				c-0.184-0.514-0.183-1.05-0.031-1.533l0.577,0.18c-0.114,0.363-0.115,0.764,0.023,1.15
				C352.581,277.311,352.596,277.35,352.611,277.386z"/>
		</g>
		<g>
			<path style="fill:#73C0FF;" d="M352.432,278.229c-0.15-0.177-0.277-0.379-0.375-0.602l0.555-0.241
				c0.073,0.167,0.168,0.318,0.281,0.451L352.432,278.229z"/>
		</g>
	</g>
	<g>
		<rect x="169.592" y="201.626" style="fill:#78C2FF;" width="4.268" height="15.7"/>
	</g>
	<g>
		<rect x="175.665" y="200.042" style="fill:#78C2FF;" width="4.269" height="17.284"/>
	</g>
	<g>
		<rect x="181.821" y="203.331" style="fill:#78C2FF;" width="4.268" height="13.995"/>
	</g>
	<g>
		<rect x="187.977" y="196.845" style="fill:#78C2FF;" width="4.268" height="20.481"/>
	</g>
	<g>
		<rect x="194.436" y="198.885" style="fill:#78C2FF;" width="4.268" height="18.441"/>
	</g>
</g>
</svg>
