<svg xmlns="http://www.w3.org/2000/svg" width="780" height="169" fill-rule="nonzero" xmlns:v="https://vecta.io/nano"><path d="M73.245 140.468c-2.748 2.517-6.164 5.206-10.243 8.067s-8.49 5.493-13.22 7.896-9.556 4.407-14.477 6.01-9.596 2.403-14.02 2.403c-3.967 0-7.307-.554-10.014-1.66s-4.904-2.65-6.58-4.635-2.88-4.406-3.605-7.268S0 145.273 0 141.84c0-4.806.553-10.396 1.66-16.766s2.46-12.97 4.063-19.8l5.093-20.43 4.75-18.768c.533-1.985 1.603-3.68 3.205-5.094a20.54 20.54 0 0 1 5.436-3.433 30.28 30.28 0 0 1 6.294-1.946c2.174-.417 4.138-.63 5.894-.63 3.205 0 5.38.59 6.523 1.773s1.716 2.767 1.716 4.75c0 1.68-.382 4.102-1.144 7.268s-1.717 6.75-2.86 10.757l-3.662 12.934c-1.3 4.617-2.518 9.23-3.663 13.848s-2.1 9.116-2.86 13.504-1.144 8.336-1.144 11.845c0 3.434.38 6.163 1.144 8.184s2.328 3.03 4.693 3.03c2.746 0 5.797-.953 9.156-2.86s6.752-4.215 10.186-6.923 6.79-5.51 10.07-8.412 6.18-5.378 8.7-7.438l.001 23.233zM22.087 22.817c0-1.755.382-3.737 1.145-5.95s2.003-4.292 3.72-6.237 4.006-3.585 6.867-4.922 6.426-2.002 10.7-2.002c2.67 0 5.188.305 7.553.915s4.423 1.546 6.18 2.804 3.147 2.918 4.178 4.98 1.543 4.503 1.543 7.324a23.08 23.08 0 0 1-1.258 7.553c-.84 2.443-2.175 4.617-4.006 6.523s-4.14 3.452-6.924 4.635-6.122 1.773-10.014 1.773c-6.714 0-11.673-1.583-14.877-4.75s-4.807-7.38-4.807-12.645" fill="#59c77f"/><path d="M229.216 164.844h-36.802l-47.817-54.85h-29.77v54.85H83.885V.527l78.058.234c38.675.235 59.07 26.02 59.07 54.382 0 22.502-10.315 45.24-41.5 51.57l49.693 56.02v2.11zm-114.39-135.25V82.1h47.116c19.7 0 28.128-13.127 28.128-26.254s-8.674-26.252-28.128-26.252h-47.116z" fill="#142133"/><path d="M223.213 115.522c2.972-13.763 8.238-27.688 14.803-40.967 6.826-13.8 15.335-28.28 27.48-39.054 10.715-9.51 23.98-15.127 35.112-9.36 10.743 5.578 17.54 16.708 23.254 26.888 12.813 22.786 22.502 47.45 33.522 71.328 5.03 10.902-5.328 25.858-15.22 34.637-4.284 3.8-9.406 7.033-13.866 4.157-4.397-2.84-6.346-8.973-8.39-13.605-5.756-13.066-10.706-26.575-16.47-39.632-5.676-12.836-11.547-26.94-21.906-36.36-3.573-3.24-8.403-6.517-13.91-1.634-6.186 5.49-9.236 13.414-11.84 20.466-5.587 15.155-8.306 30.54-12.462 45.796l-20.106-22.66" fill="#59c77f"/><path d="M414.13 16.702c0 22.267-33.754 22.267-33.754 0s33.754-22.27 33.754 0m-31.175 148.142h28.597V48.814h-28.597v116.03zM512.807 80c-8.205-7.733-17.58-10.312-28.6-10.312-13.593 0-21.096 4.22-21.096 11.485 0 7.5 6.797 11.72 21.566 12.658 21.8 1.407 49.46 6.33 49.46 37.035 0 20.394-16.643 37.974-49.695 37.974-18.283 0-36.566-3.046-53.444-20.626l14.064-20.395c8.205 9.142 26.957 15.94 39.848 16.174 10.783.234 20.863-5.392 20.863-13.828 0-7.97-6.565-11.253-22.972-12.2-21.8-1.64-47.818-9.6-47.818-35.864 0-26.722 27.66-36.098 48.757-36.098 18.046 0 31.644 3.515 45.006 15.237l-15.94 18.75zm63.983 37.27c1.875 14.298 14.3 24.612 34.457 24.612 10.548 0 24.376-3.986 30.94-10.783l18.282 18.05c-12.188 12.657-32.114 18.752-49.693 18.752-39.85 0-63.523-24.613-63.523-61.647 0-35.16 23.9-60.476 61.416-60.476 38.676 0 62.816 23.9 58.362 71.493H576.8zm62.82-23.677c-1.875-15.002-13.596-22.5-30.002-22.5-15.474 0-28.133 7.5-32.35 22.5h62.353zm75.93-44.3l2.1 13.36c8.906-14.298 20.86-16.407 32.58-16.407 11.952 0 23.44 4.687 29.77 11.017L767.1 82.1c-5.86-4.923-11.25-7.5-20.63-7.5-15 0-28.83 7.968-28.83 29.3v60.945h-28.6V49.283h26.488z" fill="#142133"/></svg>