<svg id="Calque_1" data-name="Calque 1" xmlns="http://www.w3.org/2000/svg" viewBox="0 0 606 111"><defs><style>.cls-1,.cls-2{fill:#252626;}.cls-2{opacity:0.65;}</style></defs><title>Adsup-LOGO-XS - landscape - gris</title><path class="cls-1" d="M206.86,64.48c0,4.22,2.59,7.06,6.45,7.06s6.45-2.84,6.45-7.06V48.84h7.72V65c0,8.09-5.63,13.47-14.17,13.47S199.14,73.11,199.14,65V48.84h7.72Z"/><path class="cls-1" d="M243.87,48.84V52a12,12,0,0,1,9.24-4c8,0,14.55,6.28,14.55,15.28,0,8.75-6.14,15.34-14.55,15.34a12,12,0,0,1-9.24-3.75V91.2h-7.72V48.84Zm0,14.49a8,8,0,1,0,8-8.39A8,8,0,0,0,243.87,63.33Z"/><path class="cls-1" d="M136.58,34.62V77.76H128.8V74.62a12,12,0,0,1-9.24,4c-8,0-14.55-6.28-14.55-15.28C105,54.58,111.15,48,119.56,48a12,12,0,0,1,9.24,3.75V34.62ZM128.8,63.27a8,8,0,1,0-16.07,0,8.1,8.1,0,0,0,8.1,8.39C125.44,71.66,128.8,67.92,128.8,63.27Z"/><path class="cls-1" d="M179.18,69.55c0,4.89-4.36,9.06-12.59,9.06-5.75,0-10.12-2-12.71-4.9l4.3-4.7A11.6,11.6,0,0,0,167,72.69c3,0,4.49-1.21,4.49-3,0-5.19-16.26-2.66-16.26-13,0-4.41,3.92-8.64,11.64-8.64,5.44,0,9.74,1.76,12,4.77l-4.36,4.35a9.44,9.44,0,0,0-7.47-3.2c-2.66,0-4.24,1.15-4.24,2.72C162.86,61.7,179.18,58.74,179.18,69.55Z"/><rect class="cls-1" x="145.07" y="34.62" width="6.02" height="12.1"/><path class="cls-1" d="M35,87.63a4,4,0,0,1-1.67-.36,4,4,0,0,1-2-5.34L58.58,22.16a4,4,0,0,1,7.34,3.34L38.62,85.28A4,4,0,0,1,35,87.63Z"/><path class="cls-1" d="M60.33,80a4,4,0,0,1-3.67-5.71L74,36.29a4,4,0,0,1,7.33,3.35L64,77.59A4,4,0,0,1,60.33,80Z"/><path class="cls-2" d="M95,80a4,4,0,0,1-3.67-2.36L74,39.64a4,4,0,0,1,7.34-3.35L98.68,74.24A4,4,0,0,1,95,80Z"/><path class="cls-1" d="M302.08,54.16A9.73,9.73,0,0,0,302,73.61a11.1,11.1,0,0,0,7.8-2.82l2.78,3.75c-2.3,2.37-6.35,3.86-10.76,3.86a14.52,14.52,0,1,1,.06-29c4.65,0,8.46,1.5,10.88,3.87l-3.08,3.63A11.08,11.08,0,0,0,302.08,54.16Z"/><path class="cls-1" d="M317,63.86A14.78,14.78,0,1,1,331.71,78.4,14.52,14.52,0,0,1,317,63.86Zm24.18,0c0-5.43-3.93-9.7-9.37-9.7a9.73,9.73,0,0,0,0,19.45C337.21,73.61,341.14,69.23,341.14,63.86Z"/><path class="cls-1" d="M360.8,77.71h-5.38V50.06h5.38v3.41c1.81-2.6,4.89-4.1,8.7-4.1,6.83,0,11.25,4.44,11.25,11.43V77.71h-5.38V61.61c0-4.56-2.79-7.45-7.32-7.45s-7.25,2.89-7.25,7.45Z"/><path class="cls-1" d="M411,70.15c0,4.67-4.05,8.25-11.31,8.25-5.32,0-9.31-1.78-11.6-4.5l3.14-3.35a11.27,11.27,0,0,0,8.82,3.7c3.63,0,5.63-1.62,5.63-4,0-6.29-16.38-3.4-16.38-13.21,0-4,3.68-7.68,10.45-7.68,5,0,8.77,1.56,10.76,4.27l-3.2,3.06c-1.94-2.31-4.29-3.17-7.43-3.17S394.6,55,394.6,57.05C394.6,63,411,59.93,411,70.15Z"/><path class="cls-1" d="M424.34,65.36c0,4.85,3,8.08,7.44,8.08s7.56-3.23,7.56-8.08V50.06h5.37v15.7c0,7.51-5.14,12.47-12.93,12.47S419,73.27,419,65.76V50.06h5.37Z"/><path class="cls-1" d="M455.24,38h5.39V77.71h-5.39Z"/><path class="cls-1" d="M468.3,50.06h4.84V43.19h5.32v6.87h8.22v4.56h-8.16V69.23c0,2.94,1.39,4.38,4,4.38a5.16,5.16,0,0,0,3.75-1.44L488.73,76a10.1,10.1,0,0,1-6.94,2.36c-5.45,0-8.71-3.05-8.71-9V54.62H468.3Z"/><path class="cls-1" d="M495.15,42.09a3.33,3.33,0,1,1,3.33,3.18A3.28,3.28,0,0,1,495.15,42.09Zm6.05,35.62h-5.38V50.06h5.38Z"/><path class="cls-1" d="M517.52,77.71h-5.38V50.06h5.38v3.41c1.81-2.6,4.9-4.1,8.71-4.1,6.82,0,11.24,4.44,11.24,11.43V77.71h-5.38V61.61c0-4.56-2.79-7.45-7.32-7.45s-7.25,2.89-7.25,7.45Z"/><path class="cls-1" d="M560.15,85c6.1,0,9.61-3.11,9.61-9V72.75a12.3,12.3,0,0,1-10.16,4.9c-7.73,0-13.78-6-13.78-14.14a13.66,13.66,0,0,1,13.78-14,12.44,12.44,0,0,1,10.16,4.68v-4.1h5.32V75.75c0,10.22-6.77,14-14.63,14-5.32,0-9.55-1.27-12.33-3.52l2.72-4A16.09,16.09,0,0,0,560.15,85Zm9.61-21.58a9.28,9.28,0,1,0-18.56,0,9.28,9.28,0,1,0,18.56,0Z"/></svg>