<?xml version="1.0" standalone="no"?>
<!DOCTYPE svg PUBLIC "-//W3C//DTD SVG 20010904//EN"
 "http://www.w3.org/TR/2001/REC-SVG-20010904/DTD/svg10.dtd">
<svg version="1.0" xmlns="http://www.w3.org/2000/svg"
 width="450.000000pt" height="455.000000pt" viewBox="0 0 450.000000 455.000000"
 preserveAspectRatio="xMidYMid meet">

<g transform="translate(0.000000,455.000000) scale(0.100000,-0.100000)"
fill="#000000" stroke="none">
<path d="M1679 4093 c-13 -16 -12 -17 4 -4 16 13 21 21 13 21 -2 0 -10 -8 -17
-17z"/>
<path d="M1735 4090 c-3 -6 1 -7 9 -4 18 7 21 14 7 14 -6 0 -13 -4 -16 -10z"/>
<path d="M1843 4015 c0 -8 4 -12 9 -9 5 3 6 10 3 15 -9 13 -12 11 -12 -6z"/>
<path d="M1891 4004 c0 -11 3 -14 6 -6 3 7 2 16 -1 19 -3 4 -6 -2 -5 -13z"/>
<path d="M2416 3965 c-11 -8 -15 -15 -9 -15 6 0 16 7 23 15 16 19 11 19 -14 0z"/>
<path d="M2228 3963 c6 -2 18 -2 25 0 6 3 1 5 -13 5 -14 0 -19 -2 -12 -5z"/>
<path d="M2810 3881 c0 -6 4 -13 10 -16 6 -3 7 1 4 9 -7 18 -14 21 -14 7z"/>
<path d="M1536 3845 c-11 -8 -15 -15 -9 -15 6 0 16 7 23 15 16 19 11 19 -14 0z"/>
<path d="M2162 3767 c-56 -75 -65 -99 -52 -148 14 -50 50 -92 119 -136 119
-75 157 -133 147 -221 -13 -113 -57 -177 -362 -523 -206 -235 -352 -430 -402
-537 -32 -71 -40 -158 -18 -201 32 -61 35 -61 566 -61 264 0 480 3 480 8 0 4
25 36 56 71 68 78 68 93 5 221 -53 107 -65 120 -110 120 -33 0 -45 -9 -146
-115 -61 -63 -113 -115 -117 -115 -4 0 -23 33 -41 73 -19 39 -43 87 -54 104
l-20 33 -66 -55 -67 -55 35 -70 35 -70 -194 0 c-242 0 -241 0 -240 113 1 130
17 156 383 584 297 348 358 447 368 603 8 108 -7 136 -111 204 -44 30 -91 64
-103 77 -20 23 -40 78 -45 128 -3 22 -7 19 -46 -32z m371 -1555 c16 -18 30
-48 41 -94 l6 -28 -105 0 c-59 0 -105 4 -105 9 0 14 79 104 104 118 29 17 40
16 59 -5z"/>
<path d="M1412 3790 c0 -14 2 -19 5 -12 2 6 2 18 0 25 -3 6 -5 1 -5 -13z"/>
<path d="M3225 3720 c-3 -6 1 -7 9 -4 18 7 21 14 7 14 -6 0 -13 -4 -16 -10z"/>
<path d="M3466 3703 c-6 -14 -5 -15 5 -6 7 7 10 15 7 18 -3 3 -9 -2 -12 -12z"/>
<path d="M2024 3628 c-44 -46 -54 -69 -54 -125 0 -67 31 -112 141 -208 101
-87 132 -134 131 -197 l-1 -42 20 30 c39 57 69 125 75 168 10 69 -14 106 -120
185 -127 95 -149 122 -158 199 -3 23 -4 23 -34 -10z"/>
<path d="M1019 3593 c-13 -16 -12 -17 4 -4 9 7 17 15 17 17 0 8 -8 3 -21 -13z"/>
<path d="M3824 3406 c-17 -13 -16 -15 13 -40 43 -36 60 -80 43 -112 -7 -13
-17 -24 -21 -24 -5 0 -31 34 -60 76 l-51 76 -39 -38 c-51 -49 -59 -89 -28
-143 40 -71 112 -86 188 -40 39 23 71 75 71 113 0 36 -41 108 -73 129 -21 13
-27 14 -43 3z m-44 -150 c38 -56 38 -66 0 -66 -31 0 -70 33 -70 59 0 12 27 51
36 51 2 0 17 -20 34 -44z"/>
<path d="M3572 3167 c11 -16 27 -23 57 -25 74 -6 46 25 -38 42 -33 6 -33 6
-19 -17z"/>
<path d="M3997 3149 c-14 -8 -15 -14 -6 -30 16 -31 6 -43 -67 -78 -63 -30 -69
-31 -81 -15 -7 9 -14 21 -16 27 -1 5 -13 7 -26 2 -16 -5 -20 -12 -16 -23 18
-42 16 -49 -14 -62 -30 -12 -30 -13 -13 -36 14 -20 23 -23 50 -19 28 5 34 3
39 -14 6 -24 8 -25 34 -11 15 9 17 15 9 30 -5 10 -10 21 -10 23 0 2 31 19 70
36 105 49 129 95 86 163 -12 21 -15 21 -39 7z"/>
<path d="M454 3114 c-8 -20 -14 -37 -12 -38 2 -1 42 -19 89 -40 l87 -38 -29
-64 c-16 -35 -29 -66 -29 -68 0 -3 12 -12 27 -20 l28 -14 32 70 c18 38 36 68
40 65 5 -2 26 -12 48 -22 22 -10 41 -19 43 -20 1 -1 -11 -32 -28 -69 -16 -38
-30 -70 -30 -72 0 -2 13 -10 28 -18 l29 -15 49 112 50 112 -195 87 c-107 49
-198 88 -203 88 -5 0 -16 -16 -24 -36z"/>
<path d="M1509 3050 c-69 -92 -64 -2 -64 -1047 0 -630 3 -945 10 -952 14 -14
1357 -16 1383 -2 25 13 71 81 80 117 4 16 6 447 4 957 l-3 929 -21 -19 c-12
-10 -34 -38 -50 -62 l-28 -45 0 -873 0 -873 -38 0 -39 0 -64 135 c-35 74 -66
134 -69 135 -3 0 -31 -24 -63 -53 l-58 -52 30 -70 c41 -94 40 -97 -15 -93
l-47 3 -81 155 c-91 173 -105 186 -167 156 -19 -9 -108 -77 -199 -151 -90 -75
-169 -134 -175 -132 -5 2 -24 27 -41 55 l-32 52 -61 -46 c-68 -51 -76 -60 -61
-69 33 -20 -22 -34 -77 -19 l-23 6 -2 947 -3 946 -26 -35z m660 -1689 c11 -16
37 -62 56 -102 l35 -74 -95 -3 c-52 -1 -139 -1 -192 0 l-98 3 84 73 c82 70
167 132 182 132 4 0 17 -13 28 -29z"/>
<path d="M4000 2851 c-106 -35 -115 -40 -112 -62 1 -13 6 -27 10 -31 7 -7 236
63 249 76 8 7 -14 56 -24 55 -5 0 -60 -17 -123 -38z"/>
<path d="M3787 2783 c-14 -4 -17 -11 -13 -26 3 -12 6 -25 6 -29 0 -9 32 -10
53 -2 12 4 13 11 5 35 -10 29 -16 31 -51 22z"/>
<path d="M3026 2729 c-60 -70 -56 -25 -57 -821 0 -403 0 -748 0 -767 1 -24 11
-43 35 -67 31 -31 39 -34 95 -34 61 0 63 1 109 47 26 27 62 77 81 112 l34 64
-41 -33 c-47 -37 -122 -51 -161 -30 -51 27 -51 24 -51 820 0 438 -4 740 -9
740 -5 0 -21 -14 -35 -31z"/>
<path d="M316 2734 c-12 -31 -6 -54 14 -54 26 0 124 -26 149 -40 23 -12 37
-51 27 -75 -5 -14 27 -35 55 -35 18 0 9 66 -11 88 l-21 22 31 0 c28 0 31 3 28
27 -3 30 5 27 -150 63 -104 24 -114 25 -122 4z"/>
<path d="M3933 2683 c-31 -12 -6 -58 42 -78 18 -8 17 -9 -8 -13 -26 -3 -28 -6
-22 -30 4 -15 8 -28 10 -30 4 -4 246 45 252 52 3 2 2 18 -2 34 l-6 29 -57 -13
c-106 -25 -162 -11 -162 39 0 17 -21 21 -47 10z"/>
<path d="M1946 2469 c-25 -28 -46 -56 -46 -63 0 -6 24 -37 53 -69 l52 -59 54
67 54 66 -54 55 c-29 30 -56 54 -60 54 -4 0 -28 -23 -53 -51z"/>
<path d="M292 2435 c-39 -33 -48 -78 -23 -127 13 -27 15 -38 6 -38 -7 0 -15
-13 -17 -29 l-4 -29 100 -7 c117 -8 147 0 177 47 16 27 19 44 16 90 -6 70 -11
78 -47 78 -28 0 -29 -1 -14 -27 29 -56 12 -123 -31 -123 -23 0 -25 4 -25 49 0
67 -17 109 -51 126 -39 21 -53 19 -87 -10z m80 -62 c12 -11 18 -30 18 -60 0
-39 -2 -43 -24 -43 -26 0 -66 41 -66 67 0 24 20 53 37 53 9 0 25 -7 35 -17z"/>
<path d="M4110 2448 c-124 -12 -140 -25 -140 -114 0 -80 6 -94 40 -94 l28 0
-16 44 c-19 52 -6 96 28 96 20 0 24 -9 34 -84 7 -55 30 -76 82 -76 33 0 46 5
58 22 23 32 21 99 -4 126 -24 25 -25 32 -5 32 10 0 15 10 15 30 0 18 -5 29
-12 29 -7 -1 -56 -6 -108 -11z m65 -83 c29 -28 32 -51 9 -76 -31 -35 -74 6
-74 71 0 38 30 41 65 5z"/>
<path d="M3848 2124 c-4 -32 -3 -32 47 -39 27 -3 60 -9 72 -12 l23 -5 -20 -25
c-24 -31 -26 -94 -4 -128 34 -52 152 -72 211 -35 44 26 62 85 40 129 -13 26
-13 31 -1 31 8 0 14 6 14 14 0 8 3 21 6 29 7 19 -7 23 -116 37 -47 6 -126 16
-177 23 l-91 13 -4 -32z m310 -97 c46 -43 12 -97 -62 -97 -98 0 -131 90 -46
123 26 10 84 -4 108 -26z"/>
<path d="M455 2059 c-49 -9 -111 -20 -138 -23 -44 -7 -47 -9 -47 -36 0 -16 4
-32 10 -35 5 -3 38 -1 72 6 118 22 168 6 168 -52 0 -35 -14 -43 -105 -59 -38
-6 -80 -14 -92 -16 -19 -4 -22 -9 -16 -37 3 -17 6 -33 7 -33 5 -8 212 38 231
50 44 29 46 108 3 154 -17 18 -20 25 -9 31 7 5 11 21 9 37 l-3 30 -90 -17z"/>
<path d="M3795 1809 c-8 -35 -8 -35 27 -44 23 -6 27 -3 33 25 8 36 9 35 -27
44 -23 5 -27 3 -33 -25z"/>
<path d="M2560 1755 l-55 -56 -48 53 -49 52 -54 -59 c-29 -33 -53 -62 -53 -65
0 -3 24 -33 53 -67 l54 -62 49 70 49 69 53 -65 c28 -36 56 -65 61 -65 4 0 29
30 54 66 52 74 52 75 -16 141 l-44 43 -54 -55z"/>
<path d="M3906 1779 c-3 -18 -5 -33 -4 -35 2 -1 58 -18 126 -37 l123 -35 10
25 c5 13 9 27 9 31 0 4 -53 22 -117 41 -65 18 -123 35 -129 38 -6 2 -14 -10
-18 -28z"/>
<path d="M1835 1742 c-26 -34 -48 -63 -48 -66 -2 -6 96 -126 104 -126 3 0 27
29 53 65 54 73 54 75 -17 143 l-44 44 -48 -60z"/>
<path d="M3740 1664 c-6 -14 -10 -28 -10 -32 1 -4 81 -39 180 -78 l178 -72 13
29 c6 16 10 31 8 33 -3 4 -121 51 -312 127 l-48 19 -9 -26z"/>
<path d="M470 1651 c-73 -39 -95 -113 -56 -193 18 -38 38 -46 66 -28 12 8 12
11 -2 27 -50 55 -13 129 70 140 36 5 47 2 67 -17 14 -13 25 -34 25 -47 0 -24
22 -31 48 -15 19 13 -14 97 -50 127 -37 31 -116 35 -168 6z"/>
<path d="M3825 1468 c-67 -17 -117 -108 -95 -173 15 -44 70 -92 116 -101 112
-21 203 122 139 220 -28 42 -106 69 -160 54z m108 -99 c37 -45 10 -109 -47
-109 -39 0 -92 32 -101 60 -11 34 3 68 33 84 23 12 32 12 62 0 19 -8 43 -24
53 -35z"/>
<path d="M623 1363 c-23 -15 -50 -41 -59 -58 -23 -44 -15 -114 20 -160 37 -48
61 -60 87 -42 20 15 20 15 -9 36 -56 39 -74 110 -37 141 12 10 23 -2 66 -69
29 -45 55 -81 59 -81 4 0 26 20 49 45 47 52 52 84 21 145 -37 73 -123 92 -197
43z m151 -66 c19 -26 19 -29 4 -55 -9 -14 -20 -28 -25 -29 -11 -3 -73 99 -66
110 11 18 66 2 87 -26z"/>
<path d="M3453 1277 c-66 -69 -82 -121 -56 -174 39 -79 102 -95 196 -49 90 44
131 37 129 -25 -1 -33 -28 -70 -73 -98 l-27 -16 23 -27 23 -26 34 23 c37 25
80 83 98 130 17 45 4 89 -35 124 -55 48 -75 49 -170 7 -46 -20 -86 -36 -89
-36 -13 0 -46 46 -46 63 0 11 20 40 45 65 l46 46 -24 23 -23 24 -51 -54z"/>
<path d="M1037 960 c-75 -93 -137 -173 -137 -178 0 -7 54 -52 63 -52 2 0 25
27 51 60 26 33 51 60 56 60 5 0 29 -13 52 -30 81 -55 156 -45 205 29 47 71 17
145 -94 233 l-59 46 -137 -168z m197 29 c63 -75 -6 -157 -87 -104 -15 9 -27
21 -27 26 0 12 73 108 82 108 3 1 18 -13 32 -30z"/>
<path d="M3165 815 c-77 -39 -97 -120 -50 -200 56 -96 151 -107 238 -26 38 36
39 38 25 65 l-15 28 -21 -30 c-40 -55 -121 -74 -146 -34 -3 6 30 33 74 61 44
29 80 54 80 57 0 3 -9 18 -21 32 -47 60 -105 77 -164 47z m85 -60 c15 -18 12
-21 -44 -58 -44 -29 -56 -27 -56 10 0 53 69 85 100 48z"/>
<path d="M1642 763 c-5 -15 -39 -103 -75 -195 l-64 -166 24 -11 c13 -6 29 -11
36 -11 9 0 68 143 152 371 4 11 0 18 -12 22 -10 2 -25 8 -34 11 -12 5 -19 0
-27 -21z"/>
<path d="M1322 756 c-10 -22 -8 -24 29 -29 53 -7 89 -32 89 -61 0 -35 -7 -36
-66 -10 -30 13 -66 24 -80 24 -37 0 -84 -51 -84 -90 0 -22 9 -41 29 -61 24
-24 38 -29 76 -29 38 0 46 -3 41 -15 -3 -10 5 -20 24 -30 l30 -15 50 100 c27
55 50 110 50 123 0 34 -33 72 -83 96 -58 28 -91 27 -105 -3z m60 -152 l30 -16
-23 -24 c-26 -28 -70 -32 -93 -8 -18 17 -19 24 -10 48 8 21 56 21 96 0z"/>
<path d="M2577 703 c-26 -4 -28 -7 -21 -36 8 -41 6 -39 47 -32 32 6 34 9 28
38 -7 33 -12 36 -54 30z"/>
<path d="M2875 668 c-11 -6 -30 -23 -42 -37 -13 -15 -22 -20 -23 -12 0 9 -8
11 -27 6 -16 -3 -32 -10 -36 -14 -4 -4 15 -67 44 -138 l51 -131 31 13 c36 16
36 16 2 103 -30 76 -32 115 -5 142 39 39 66 19 105 -81 47 -118 41 -110 75
-98 16 6 30 15 30 20 0 25 -72 195 -91 215 -25 26 -78 32 -114 12z"/>
<path d="M2388 619 c-20 -8 -28 -18 -30 -42 -2 -24 -8 -33 -25 -35 -17 -3 -23
-10 -23 -28 0 -20 5 -24 29 -24 l29 0 7 -87 c7 -77 11 -90 36 -115 27 -28 53
-33 97 -22 16 5 22 14 22 35 0 26 -2 28 -29 23 -37 -8 -46 9 -55 102 l-7 71
31 6 c24 5 30 12 30 33 0 23 -3 25 -32 22 -32 -3 -33 -1 -36 35 -3 40 -4 40
-44 26z"/>
<path d="M1801 587 c-48 -15 -84 -74 -89 -146 -4 -54 -2 -61 28 -94 34 -39 79
-57 143 -57 31 0 39 4 47 26 6 14 10 27 10 29 0 3 -19 2 -43 -1 -54 -8 -104
15 -113 52 -4 14 -4 28 0 31 3 4 46 -3 95 -14 l90 -20 5 21 c10 36 7 75 -8
111 -23 53 -99 82 -165 62z m86 -55 c16 -10 34 -60 24 -67 -13 -7 -121 16
-121 26 0 5 9 18 20 29 20 20 55 26 77 12z"/>
<path d="M2606 583 c-32 -5 -33 9 6 -175 22 -103 24 -108 48 -108 49 0 50 7
17 153 -17 75 -33 136 -36 136 -3 -1 -19 -4 -35 -6z"/>
<path d="M2080 522 c-48 -49 -35 -106 32 -132 52 -21 69 -39 57 -61 -11 -21
-52 -25 -94 -9 -25 10 -26 9 -23 -22 3 -30 7 -33 48 -40 86 -15 150 21 150 85
0 44 -15 62 -70 86 -52 22 -61 39 -34 62 12 10 25 10 54 2 36 -9 39 -8 45 15
3 13 3 27 0 30 -3 3 -35 8 -70 10 -61 4 -66 3 -95 -26z"/>
</g>
</svg>
