<?xml version="1.0" encoding="UTF-8"?>
<svg xmlns="http://www.w3.org/2000/svg" width="220" height="77" viewBox="0 0 220 77" fill="none">
  <g clip-path="url(#clip0_1256_5739)">
    <path d="M47.0352 4.77174C47.7892 6.36086 47.0352 9.26781 46.6389 11.1089C46.2426 12.9499 45.2663 15.9537 43.9421 17.0099C42.0088 18.6184 39.283 17.8336 36.6055 17.2231C34.5563 16.758 31.5888 16.2541 30.4482 14.7619C29.0563 12.9015 29.7426 9.80072 30.3032 7.38796C30.8639 4.97521 31.3955 2.27178 33.4254 1.19621C35.1556 0.227235 38.2584 0.798919 40.3463 1.27372C42.9755 1.87448 45.9816 2.55278 47.0352 4.77174Z" fill="#00AD52"></path>
    <path d="M21.2172 22.7075C38.3648 27.6202 47.3156 22.0098 54.7391 16.3122C58.9275 13.0249 62.4594 8.97476 65.1495 4.37443C65.2986 4.05163 65.5593 3.79384 65.8833 3.6487C66.2072 3.50356 66.5727 3.48088 66.912 3.58483C67.2514 3.68878 67.5418 3.91233 67.7296 4.21421C67.9173 4.5161 67.9897 4.87591 67.9333 5.22713C67.595 12.0681 63.661 22.5234 59.4272 27.7074C53.3762 35.1201 44.2901 40.3719 31.9369 40.3041C26.3198 40.322 20.8128 38.7429 16.0549 35.7501C11.2969 32.7573 7.48291 28.4734 5.05551 23.3955C3.30307 19.6104 2.24233 15.5408 1.92371 11.3801C1.89135 11.1195 1.94301 10.8554 2.07114 10.6263C2.19927 10.3972 2.39712 10.2153 2.6358 10.107C2.87448 9.99874 3.14146 9.96986 3.39769 10.0246C3.65392 10.0793 3.88594 10.2148 4.05987 10.4112C7.03702 13.7154 12.8753 20.3238 21.2172 22.7269" fill="#00AD52"></path>
    <path d="M27.2389 6.6612L27.3259 6.27362C27.5289 5.42092 27.7512 4.47131 28.0702 3.51202C27.5869 3.51202 27.1036 3.51203 26.6396 3.57986C24.9481 3.68645 22.4735 3.97715 21.3619 5.07209C20.057 6.34145 20.2697 8.54104 20.3953 10.4693C20.521 12.3976 20.6756 14.9363 22.1449 16.0312C23.3531 16.9421 25.7117 16.632 27.3646 16.5254H27.8479C25.6924 13.4634 26.6396 9.39372 27.2679 6.69027" fill="#00AD52"></path>
    <path d="M32.2654 44.5773H31.9078C26.3844 44.5744 20.942 43.2453 16.0361 40.7014C15.2435 41.3022 14.4606 41.9514 13.6873 42.6394C12.0386 44.1643 10.5369 45.8416 9.2022 47.649C3.18989 55.7012 -0.106223 66.1952 0.0387684 74.0148C0.0458358 74.2005 0.0684769 74.3853 0.106438 74.5672C0.118191 74.6201 0.134346 74.672 0.154757 74.7222C0.183447 74.8353 0.222265 74.9456 0.270745 75.0517L0.34809 75.2164C0.396421 75.3036 0.4544 75.3908 0.512397 75.478L0.61871 75.6137L0.831394 75.8462L0.947382 75.9431C1.06176 76.0412 1.18469 76.1287 1.3147 76.2047C1.4501 76.28 1.59256 76.3416 1.74001 76.3889L1.87535 76.4373L2.18461 76.5148H2.35865H2.6583H2.81293C3.00769 76.5147 3.20194 76.4952 3.39287 76.4567H3.47989C3.65372 76.4141 3.82232 76.3524 3.98255 76.2726H4.06951C4.24115 76.1841 4.4004 76.0733 4.54314 75.9431L4.63016 75.8559C4.78753 75.7207 4.92142 75.5602 5.02644 75.3811C5.58707 74.4121 6.13808 73.4431 6.69871 72.5904C7.79685 70.749 9.01412 68.9817 10.3428 67.2998C11.0291 66.4375 11.7831 65.5751 12.624 64.703C13.9289 63.3658 15.2049 62.1352 16.4905 61.0209C17.0511 60.5557 17.631 60.1003 18.2207 59.674C20.6985 57.8638 23.4914 56.5329 26.4562 55.7496C26.9975 55.5946 27.5581 55.4589 28.1381 55.3427C30.7824 54.8004 33.4717 54.5084 36.1706 54.4706H37.5335H38.0748H38.5871L39.1091 54.5287L39.6117 54.5965L40.124 54.6741L40.617 54.7613L41.1196 54.8678L41.5932 54.9841L42.0862 55.1101L42.5502 55.2458L43.0238 55.4008L43.4781 55.5558L43.9421 55.7302C44.0903 55.78 44.2355 55.8382 44.3771 55.9047L44.8314 56.0985L45.2567 56.2922L45.6917 56.5054L46.1073 56.7186L46.5423 56.9512L46.9386 57.174L47.3639 57.426L47.7505 57.6682L48.1565 57.9395L48.5335 58.2011L48.9298 58.4821L49.2971 58.7535L49.6741 59.0441L50.0317 59.3348L50.4087 59.6449L50.7567 59.9356L51.1143 60.2651L51.4527 60.5654L51.8006 60.9046L52.1293 61.2147L52.4676 61.5635L52.7769 61.8833L53.1056 62.2321L53.4148 62.5615L53.7338 62.92L54.0238 63.2592L54.3331 63.6274L54.6135 63.9666L54.9227 64.3541C55.0097 64.4607 55.0968 64.577 55.1934 64.6836L55.4834 65.0712L55.7444 65.4103L56.0247 65.8076C56.1117 65.9142 56.189 66.0305 56.276 66.1468L56.5467 66.544C56.6337 66.6506 56.711 66.7669 56.7884 66.8832L57.059 67.2804C57.1363 67.3967 57.2136 67.5033 57.2813 67.6196C57.3489 67.7359 57.465 67.8909 57.552 68.0266C57.6389 68.1622 57.6872 68.2397 57.7646 68.3463L58.0256 68.7727C58.0932 68.8793 58.1609 68.9762 58.2189 69.0828L58.4799 69.5091L58.6636 69.8095C58.7506 69.9548 58.8279 70.1002 58.9148 70.2358L59.0888 70.5265L59.4948 71.2339C59.5642 71.3659 59.6485 71.4895 59.7462 71.6021L59.8331 71.699L60.0361 71.9122L60.1521 72.0091L60.3744 72.1641L60.5001 72.2416L60.7611 72.3676L60.8674 72.4257C60.993 72.4747 61.1223 72.5135 61.2541 72.542C61.3714 72.5716 61.4911 72.591 61.6117 72.6001H61.9887H62.3076H62.472L62.878 72.4935H62.936C63.0818 72.4422 63.224 72.3807 63.3613 72.3094L63.4869 72.2319C63.581 72.1729 63.6713 72.1082 63.7576 72.0381C63.805 72.0022 63.8502 71.9634 63.8929 71.9219C63.9685 71.8557 64.0396 71.7845 64.1055 71.7087L64.2216 71.5633L64.3956 71.3017L64.4825 71.1273C64.5318 71.0204 64.5738 70.9104 64.6082 70.7978C64.6125 70.743 64.6125 70.688 64.6082 70.6331C64.6575 70.4528 64.6867 70.2676 64.6952 70.0808C64.8152 67.7582 64.77 65.43 64.5599 63.1139C64.4632 62.1449 64.3472 61.079 64.1925 60.0519C63.9487 58.5086 63.6261 56.9788 63.2259 55.4686C62.965 54.4997 62.6653 53.5307 62.327 52.5617C61.9996 51.6422 61.6188 50.7428 61.1864 49.8679C60.7844 49.0386 60.3191 48.2417 59.7945 47.4842C59.3692 46.8738 58.9342 46.2827 58.4992 45.7207L58.0449 45.1781C57.755 44.8195 57.4553 44.4514 57.1556 44.1025L56.6047 43.5114C56.3244 43.211 56.0537 42.9107 55.7638 42.62L55.1644 42.0483C54.8937 41.7867 54.6231 41.525 54.3525 41.2828L53.7145 40.7402C53.4438 40.5173 53.1732 40.2847 52.8929 40.0716C52.6126 39.8584 52.4579 39.7421 52.2356 39.5774L52.0519 39.4417C45.9816 42.896 39.0998 44.6592 32.1205 44.5482" fill="#00AD52"></path>
    <path d="M194.056 43.4049H202.756V30.0039H216.501V22.1649H202.756V13.696H219.401V5.79884H194.056V43.4049ZM168.267 43.9378C174.289 43.9378 181.954 40.7014 181.954 31.8546C181.954 24.5001 176.938 22.7462 170.355 20.2269C166.228 18.6378 164.855 17.7948 164.913 16.0991C164.971 14.4034 166.228 13.1921 168.345 13.1921C170.461 13.1921 172.888 14.2483 176.077 16.7967L181.094 10.2271C177.49 7.04414 172.848 5.29325 168.045 5.30465C161.279 5.41124 155.788 10.2271 155.788 16.477C155.788 23.8412 161.443 26.535 167.146 28.502C171.428 29.9264 172.752 30.8275 172.752 32.8914C172.752 34.5872 171.583 35.9631 168.518 35.9631C165.928 35.9631 162.555 34.5872 159.703 31.467L154.464 37.9301C156.251 39.813 158.397 41.3173 160.775 42.3542C163.152 43.3911 165.713 43.9394 168.306 43.9668M139.462 5.82791L131.323 30.8857L123.243 5.82791H113.673L127.515 43.4339H135.248L148.983 5.82791H139.462ZM89.566 29.1609L93.6257 16.4964H93.732L97.8595 29.1609H89.566ZM102.509 43.4049H111.75L97.9078 5.79884H89.4596L75.7241 43.4049H84.9649L87.1301 36.6801H100.286L102.509 43.4049Z" fill="#00AD52"></path>
    <path d="M220 60.4298H149.148V70.3812H220V60.4298Z" fill="#00AD52"></path>
    <path d="M219.836 55.1973C219.857 54.8857 219.794 54.5741 219.655 54.2947C219.516 54.0153 219.304 53.7783 219.043 53.6082C218.386 53.3178 217.694 53.1158 216.984 53.0074C216.317 52.833 215.96 52.6198 215.96 52.0384C215.96 51.4571 216.482 50.9532 217.371 50.9532C217.621 50.9474 217.871 50.9735 218.115 51.0307C218.502 51.1082 218.647 51.2342 218.84 51.2342C218.913 51.2329 218.985 51.2171 219.052 51.1876C219.119 51.158 219.18 51.1154 219.23 51.0622C219.281 51.009 219.32 50.9462 219.346 50.8776C219.372 50.809 219.384 50.7358 219.381 50.6625C219.378 50.5459 219.338 50.4334 219.267 50.3412C219.195 50.2489 219.097 50.1816 218.985 50.1489C218.443 49.9525 217.869 49.8604 217.294 49.8776C216.974 49.8445 216.652 49.8799 216.347 49.9815C216.043 50.083 215.763 50.2483 215.527 50.4664C215.291 50.6846 215.105 50.9505 214.979 51.2466C214.854 51.5427 214.793 51.8622 214.8 52.1838C214.774 52.511 214.845 52.8386 215.005 53.125C215.165 53.4113 215.407 53.6436 215.699 53.7923C216.325 54.0314 216.972 54.213 217.632 54.3349C218.376 54.5481 218.598 54.8 218.598 55.3039C218.598 56.0209 218.096 56.4957 216.946 56.4957C216.644 56.4982 216.342 56.4689 216.047 56.4085C215.771 56.3081 215.491 56.224 215.206 56.1566C215.135 56.159 215.066 56.1756 215.003 56.2055C214.939 56.2353 214.882 56.2777 214.835 56.3302C214.788 56.3827 214.752 56.4442 214.729 56.5109C214.707 56.5777 214.698 56.6483 214.703 56.7186C214.703 56.8369 214.741 56.9521 214.81 57.0478C214.88 57.1435 214.977 57.2148 215.09 57.2515C215.708 57.4778 216.365 57.5831 217.023 57.5616C218.627 57.5616 219.758 56.7477 219.758 55.1876M213.456 56.9124C213.456 56.7624 213.397 56.6185 213.292 56.5115C213.188 56.4046 213.045 56.3432 212.895 56.3407H209.996V54.2477H212.46C212.531 54.249 212.601 54.2362 212.667 54.2099C212.732 54.1837 212.792 54.1447 212.843 54.0951C212.893 54.0455 212.933 53.9863 212.96 53.921C212.988 53.8557 213.002 53.7856 213.002 53.7148C213.002 53.5699 212.945 53.4309 212.844 53.3276C212.743 53.2243 212.605 53.165 212.46 53.1625H209.996V51.0695H212.712C212.861 51.0695 213.003 51.0102 213.108 50.9048C213.213 50.7994 213.272 50.6565 213.272 50.5074C213.272 50.3584 213.213 50.2155 213.108 50.1101C213.003 50.0047 212.861 49.9454 212.712 49.9454H209.377C209.23 49.948 209.09 50.0083 208.987 50.1134C208.884 50.2186 208.826 50.3601 208.826 50.5074V56.9124C208.826 57.0589 208.884 57.1994 208.987 57.3029C209.091 57.4065 209.231 57.4647 209.377 57.4647H212.847C212.92 57.466 212.993 57.4527 213.061 57.4255C213.129 57.3983 213.191 57.3578 213.243 57.3064C213.295 57.255 213.337 57.1937 213.365 57.126C213.393 57.0584 213.408 56.9858 213.408 56.9124M205.878 52.397C205.878 52.9687 205.443 53.3659 204.621 53.3659H203.307V51.0307H204.66C205.52 51.0307 205.878 51.4183 205.878 51.9997V52.397ZM207.076 56.7283C206.661 55.8853 206.216 55.0616 205.714 54.238C206.114 54.1319 206.466 53.8912 206.711 53.556C206.955 53.2209 207.078 52.8117 207.057 52.397V51.9803C207.057 50.7497 206.294 49.9454 204.679 49.9454H202.746C202.669 49.9454 202.593 49.9608 202.522 49.9906C202.451 50.0204 202.387 50.0641 202.333 50.1191C202.279 50.1742 202.236 50.2394 202.207 50.3111C202.179 50.3827 202.165 50.4594 202.166 50.5365V56.9705C202.165 57.0477 202.179 57.1243 202.207 57.196C202.236 57.2676 202.279 57.3329 202.333 57.3879C202.387 57.4429 202.451 57.4866 202.522 57.5164C202.593 57.5463 202.669 57.5616 202.746 57.5616C202.902 57.5616 203.052 57.4993 203.163 57.3885C203.274 57.2776 203.336 57.1273 203.336 56.9705V54.4512H204.592C205.155 55.341 205.665 56.2631 206.119 57.2128C206.158 57.3173 206.228 57.4071 206.32 57.4697C206.412 57.5323 206.521 57.5644 206.632 57.5616C206.732 57.5655 206.832 57.5437 206.921 57.4982C207.011 57.4526 207.088 57.385 207.144 57.3015C207.2 57.218 207.234 57.1216 207.242 57.0212C207.251 56.9209 207.234 56.8201 207.192 56.7283M200.233 56.9705V50.4396C200.233 50.2829 200.171 50.1325 200.06 50.0217C199.95 49.9108 199.8 49.8485 199.643 49.8485C199.487 49.8485 199.337 49.9108 199.226 50.0217C199.116 50.1325 199.054 50.2829 199.054 50.4396V56.9705C199.054 57.1273 199.116 57.2776 199.226 57.3885C199.337 57.4993 199.487 57.5616 199.643 57.5616C199.8 57.5616 199.95 57.4993 200.06 57.3885C200.171 57.2776 200.233 57.1273 200.233 56.9705ZM195.951 54.7516H193.844C194.163 53.7148 194.52 52.6974 194.897 51.709C195.274 52.678 195.622 53.7148 195.951 54.7516ZM197.72 56.8543C197.195 54.6778 196.511 52.5434 195.671 50.4687C195.468 49.9455 195.168 49.8485 194.907 49.8485C194.646 49.8485 194.356 49.9455 194.153 50.4687C193.313 52.5434 192.628 54.6778 192.104 56.8543C192.083 56.9398 192.082 57.0289 192.101 57.1148C192.12 57.2007 192.159 57.2811 192.214 57.3495C192.269 57.418 192.34 57.4727 192.419 57.5095C192.499 57.5463 192.586 57.5641 192.674 57.5616C192.805 57.5609 192.931 57.5138 193.03 57.4286C193.129 57.3435 193.195 57.2258 193.215 57.0965C193.322 56.6605 193.438 56.2341 193.554 55.8174H196.231C196.347 56.2341 196.473 56.6605 196.579 57.0965C196.6 57.2274 196.667 57.3464 196.768 57.4318C196.869 57.5172 196.998 57.5633 197.13 57.5616C197.219 57.5652 197.307 57.5483 197.389 57.5122C197.47 57.4762 197.542 57.4219 197.599 57.3535C197.656 57.2851 197.696 57.2046 197.717 57.118C197.738 57.0314 197.739 56.9412 197.72 56.8543ZM190.77 57.0287V50.3912C190.767 50.2464 190.708 50.1084 190.605 50.0069C190.502 49.9054 190.363 49.8485 190.219 49.8485C190.077 49.8511 189.942 49.9094 189.842 50.0109C189.743 50.1123 189.687 50.2489 189.687 50.3912V55.1392L186.671 50.1586C186.61 50.0605 186.525 49.9801 186.423 49.9257C186.321 49.8713 186.207 49.8447 186.091 49.8485C186.017 49.8432 185.943 49.8533 185.872 49.8782C185.802 49.903 185.738 49.9422 185.683 49.9931C185.629 50.044 185.586 50.1057 185.556 50.1741C185.526 50.2426 185.511 50.3165 185.511 50.3912V57.0287C185.513 57.0999 185.528 57.1703 185.556 57.2356C185.585 57.301 185.626 57.3601 185.677 57.4095C185.728 57.459 185.788 57.498 185.855 57.524C185.921 57.5501 185.991 57.5629 186.062 57.5616C186.133 57.5629 186.202 57.55 186.267 57.5237C186.332 57.4974 186.392 57.4582 186.441 57.4084C186.491 57.3587 186.53 57.2994 186.556 57.2342C186.582 57.1689 186.595 57.099 186.594 57.0287V52.3001L189.62 57.2806C189.678 57.3773 189.763 57.4557 189.864 57.5071C189.964 57.5584 190.077 57.5806 190.19 57.5713C190.263 57.5752 190.336 57.5644 190.405 57.5397C190.474 57.5149 190.537 57.4765 190.591 57.4269C190.645 57.3773 190.689 57.3173 190.72 57.2506C190.75 57.1839 190.767 57.1118 190.77 57.0384M183.501 56.9802V50.4493C183.501 50.2925 183.439 50.1422 183.328 50.0314C183.218 49.9205 183.068 49.8582 182.911 49.8582C182.755 49.8582 182.605 49.9205 182.494 50.0314C182.384 50.1422 182.322 50.2925 182.322 50.4493V56.9802C182.322 57.137 182.384 57.2873 182.494 57.3982C182.605 57.509 182.755 57.5713 182.911 57.5713C183.068 57.5713 183.218 57.509 183.328 57.3982C183.439 57.2873 183.501 57.137 183.501 56.9802ZM179.373 52.4067C179.373 52.9784 178.938 53.3756 178.117 53.3756H176.802V51.0404H178.156C179.016 51.0404 179.373 51.428 179.373 52.0094V52.4067ZM180.572 56.738C180.156 55.895 179.721 55.0713 179.209 54.2477C179.61 54.1416 179.962 53.9009 180.206 53.5657C180.451 53.2306 180.573 52.8214 180.553 52.4067V51.99C180.553 50.7594 179.789 49.9551 178.175 49.9551H176.242C176.165 49.9551 176.088 49.9705 176.017 50.0003C175.946 50.0301 175.882 50.0738 175.828 50.1288C175.774 50.1839 175.732 50.2491 175.703 50.3208C175.674 50.3924 175.66 50.4691 175.662 50.5462V56.9802C175.66 57.0574 175.674 57.134 175.703 57.2057C175.732 57.2773 175.774 57.3426 175.828 57.3976C175.882 57.4526 175.946 57.4963 176.017 57.5261C176.088 57.556 176.165 57.5713 176.242 57.5713C176.398 57.5713 176.548 57.509 176.659 57.3982C176.769 57.2873 176.831 57.137 176.831 56.9802V54.4609H178.011C178.566 55.353 179.073 56.2749 179.528 57.2225C179.567 57.3286 179.638 57.4196 179.732 57.4823C179.826 57.545 179.937 57.5762 180.05 57.5713C180.151 57.5763 180.251 57.555 180.34 57.5095C180.43 57.464 180.507 57.3959 180.562 57.3118C180.618 57.2278 180.651 57.1307 180.657 57.0301C180.664 56.9295 180.645 56.8288 180.601 56.738M172.617 47.5811C172.623 47.5182 172.615 47.4547 172.594 47.3951C172.572 47.3356 172.539 47.2813 172.494 47.2362C172.45 47.191 172.397 47.156 172.338 47.1336C172.279 47.1111 172.216 47.1019 172.153 47.1064C172.055 47.1033 171.96 47.1319 171.879 47.1877C171.799 47.2435 171.739 47.3237 171.708 47.4164L171.099 48.5792C171.045 48.6702 171.015 48.7736 171.012 48.8796C171.01 48.9329 171.018 48.9862 171.037 49.0362C171.056 49.0861 171.085 49.1316 171.122 49.1698C171.159 49.208 171.204 49.2381 171.253 49.2582C171.302 49.2783 171.355 49.288 171.409 49.2866C171.506 49.288 171.601 49.2601 171.682 49.2065C171.763 49.153 171.826 49.0762 171.863 48.9862L172.501 47.9494C172.566 47.8365 172.605 47.7108 172.617 47.5811ZM174.096 56.9221C174.096 56.7721 174.037 56.6282 173.932 56.5212C173.827 56.4143 173.685 56.3529 173.535 56.3504H170.635V54.2574H173.1C173.171 54.2587 173.241 54.2459 173.307 54.2196C173.372 54.1934 173.432 54.1544 173.482 54.1048C173.533 54.0551 173.573 53.996 173.6 53.9307C173.627 53.8654 173.641 53.7953 173.641 53.7245C173.641 53.5796 173.585 53.4406 173.484 53.3373C173.382 53.234 173.245 53.1747 173.1 53.1721H170.664V51.0792H173.371C173.52 51.0792 173.662 51.0199 173.767 50.9145C173.872 50.8091 173.931 50.6662 173.931 50.5171C173.931 50.3681 173.872 50.2251 173.767 50.1197C173.662 50.0143 173.52 49.9551 173.371 49.9551H170.046C169.973 49.9551 169.9 49.9697 169.833 49.9981C169.765 50.0264 169.704 50.068 169.653 50.1203C169.601 50.1726 169.561 50.2347 169.534 50.3028C169.507 50.3709 169.493 50.4438 169.495 50.5171V56.9221C169.493 56.995 169.507 57.0674 169.534 57.135C169.561 57.2026 169.602 57.264 169.653 57.3156C169.705 57.3671 169.766 57.4077 169.833 57.435C169.901 57.4623 169.973 57.4757 170.046 57.4744H173.516C173.589 57.4757 173.662 57.4624 173.73 57.4352C173.798 57.408 173.859 57.3675 173.912 57.3161C173.964 57.2647 174.005 57.2034 174.034 57.1357C174.062 57.0681 174.076 56.9955 174.076 56.9221M168.18 50.5365C168.183 50.4619 168.17 50.3875 168.144 50.3177C168.118 50.2479 168.078 50.1841 168.026 50.13C167.975 50.0758 167.913 50.0325 167.845 50.0025C167.777 49.9725 167.704 49.9564 167.629 49.9551H162.931C162.78 49.9551 162.635 50.0154 162.528 50.1226C162.421 50.2298 162.361 50.3752 162.361 50.5268C162.361 50.6785 162.421 50.8239 162.528 50.9311C162.635 51.0383 162.78 51.0985 162.931 51.0985H164.691V56.9802C164.691 57.137 164.753 57.2873 164.863 57.3982C164.974 57.509 165.124 57.5713 165.28 57.5713C165.437 57.5713 165.587 57.509 165.697 57.3982C165.808 57.2873 165.87 57.137 165.87 56.9802V51.0985H167.629C167.776 51.096 167.916 51.0357 168.019 50.9305C168.122 50.8254 168.18 50.6839 168.18 50.5365ZM160.041 47.5811C160.047 47.5182 160.039 47.4547 160.018 47.3951C159.997 47.3356 159.963 47.2813 159.919 47.2362C159.875 47.191 159.821 47.156 159.762 47.1336C159.703 47.1111 159.64 47.1019 159.577 47.1064C159.478 47.1012 159.38 47.1287 159.298 47.1847C159.216 47.2407 159.155 47.3221 159.123 47.4164L158.514 48.5792C158.467 48.6726 158.441 48.775 158.437 48.8796C158.434 48.9321 158.442 48.9846 158.46 49.0339C158.479 49.0832 158.507 49.1282 158.543 49.1663C158.579 49.2043 158.623 49.2346 158.671 49.2553C158.719 49.276 158.771 49.2866 158.823 49.2866C158.92 49.288 159.016 49.2601 159.097 49.2065C159.178 49.153 159.241 49.0762 159.278 48.9862L159.916 47.9494C159.982 47.8364 160.025 47.7111 160.041 47.5811ZM161.511 56.9221C161.512 56.8483 161.499 56.7749 161.472 56.7063C161.445 56.6376 161.404 56.5749 161.353 56.5218C161.302 56.4687 161.241 56.4263 161.173 56.3969C161.106 56.3674 161.033 56.3516 160.96 56.3504H158.06V54.2574H160.525C160.596 54.2587 160.666 54.2459 160.732 54.2198C160.799 54.1937 160.859 54.1548 160.91 54.1054C160.961 54.0559 161.002 53.9967 161.031 53.9314C161.059 53.866 161.074 53.7957 161.076 53.7245C161.073 53.5787 161.014 53.4397 160.911 53.3367C160.809 53.2336 160.67 53.1746 160.525 53.1721H158.098V51.0792H160.815C160.963 51.0792 161.106 51.0199 161.211 50.9145C161.316 50.8091 161.375 50.6662 161.375 50.5171C161.375 50.3681 161.316 50.2251 161.211 50.1197C161.106 50.0143 160.963 49.9551 160.815 49.9551H157.489C157.341 49.9551 157.198 50.0143 157.093 50.1197C156.988 50.2251 156.929 50.3681 156.929 50.5171V56.9221C156.929 56.9955 156.943 57.0681 156.972 57.1357C157 57.2034 157.041 57.2647 157.094 57.3161C157.146 57.3675 157.208 57.408 157.276 57.4352C157.344 57.4624 157.416 57.4757 157.489 57.4744H160.96C161.032 57.4757 161.105 57.4623 161.172 57.435C161.239 57.4077 161.301 57.3671 161.352 57.3156C161.404 57.264 161.444 57.2026 161.471 57.135C161.498 57.0674 161.512 56.995 161.511 56.9221ZM155.595 50.5656C155.618 50.4807 155.62 50.3918 155.602 50.3057C155.585 50.2197 155.547 50.1391 155.492 50.0703C155.438 50.0015 155.368 49.9465 155.288 49.9097C155.209 49.8729 155.122 49.8552 155.034 49.8582C154.917 49.8579 154.802 49.8982 154.711 49.9723C154.619 50.0464 154.556 50.1498 154.532 50.2652C154.039 51.9415 153.459 53.7826 152.811 55.6236C152.173 53.7923 151.612 51.9706 151.129 50.2943C151.103 50.1704 151.034 50.0594 150.936 49.98C150.837 49.9006 150.714 49.8576 150.588 49.8582C150.495 49.8539 150.402 49.8722 150.317 49.9116C150.232 49.951 150.158 50.0103 150.101 50.0845C150.044 50.1587 150.006 50.2456 149.99 50.3378C149.974 50.43 149.98 50.5248 150.008 50.614C150.588 52.6295 151.268 54.7451 152.047 56.9608C152.202 57.4163 152.453 57.5713 152.782 57.5713C153.111 57.5713 153.333 57.4066 153.497 56.9608C154.29 54.7225 155.005 52.6004 155.595 50.5656ZM144.286 55.9531C144.108 56.1381 143.895 56.2843 143.659 56.3827C143.423 56.4811 143.169 56.5295 142.913 56.5248C142.76 56.5346 142.607 56.5119 142.464 56.458C142.32 56.4042 142.19 56.3205 142.081 56.2124C141.973 56.1043 141.888 55.9744 141.833 55.8312C141.778 55.6879 141.754 55.5346 141.763 55.3814C141.763 54.7806 142.207 54.364 142.797 54.0055L144.286 55.9531ZM146.354 57.019C146.352 56.886 146.308 56.7571 146.228 56.6508L145.677 55.9337C146.011 55.3595 146.209 54.7166 146.257 54.0539C146.259 53.9818 146.246 53.9102 146.219 53.8433C146.192 53.7763 146.153 53.7153 146.102 53.6639C146.052 53.6125 145.992 53.5717 145.926 53.5438C145.859 53.5159 145.788 53.5016 145.716 53.5016C145.583 53.5029 145.454 53.5528 145.355 53.6419C145.255 53.731 145.191 53.8533 145.175 53.9861C145.153 54.321 145.071 54.6493 144.933 54.9551L143.184 52.6586C142.889 52.3587 142.69 51.9774 142.613 51.5637C142.609 51.4692 142.625 51.375 142.659 51.2868C142.693 51.1986 142.744 51.1184 142.81 51.0511C142.877 50.9839 142.956 50.931 143.043 50.8958C143.131 50.8606 143.225 50.8438 143.319 50.8466C143.592 50.8527 143.854 50.9597 144.054 51.147C144.143 51.2145 144.227 51.289 144.305 51.3698C144.345 51.4162 144.393 51.4539 144.448 51.4806C144.503 51.5073 144.563 51.5224 144.624 51.5249C144.768 51.5198 144.905 51.4581 145.004 51.3529C145.104 51.2478 145.158 51.1077 145.156 50.9629C145.129 50.7772 145.057 50.601 144.946 50.4504C144.835 50.2997 144.687 50.1795 144.518 50.1005C144.147 49.9113 143.735 49.818 143.319 49.8292C143.084 49.8034 142.845 49.8275 142.62 49.8998C142.394 49.9722 142.186 50.0912 142.009 50.2493C141.833 50.4073 141.691 50.6008 141.594 50.8172C141.496 51.0336 141.445 51.2681 141.444 51.5055C141.501 52.1199 141.751 52.7002 142.159 53.1625C141.739 53.3731 141.38 53.6889 141.118 54.0794C140.855 54.4698 140.698 54.9217 140.661 55.3911C140.648 55.6812 140.696 55.9707 140.803 56.2408C140.909 56.5109 141.071 56.7554 141.278 56.9585C141.485 57.1615 141.733 57.3184 142.004 57.419C142.276 57.5196 142.566 57.5616 142.855 57.5422C143.621 57.5648 144.365 57.2827 144.924 56.7574L145.349 57.3194C145.398 57.3913 145.465 57.4495 145.542 57.4885C145.62 57.5275 145.707 57.546 145.793 57.5422C145.941 57.5422 146.082 57.4844 146.187 57.3811C146.291 57.2778 146.352 57.1373 146.354 56.9899M135.886 55.1682C135.907 54.8555 135.843 54.5429 135.702 54.2633C135.561 53.9837 135.347 53.7473 135.084 53.5791C134.427 53.2874 133.735 53.0854 133.025 52.9784C132.358 52.8039 132.01 52.5908 132.01 52.0094C132.01 51.428 132.522 50.9241 133.421 50.9241C133.671 50.9184 133.921 50.9444 134.165 51.0016C134.542 51.0791 134.697 51.2051 134.881 51.2051C135.014 51.2052 135.143 51.1567 135.244 51.0686C135.344 50.9805 135.409 50.8588 135.427 50.7261C135.445 50.5935 135.414 50.4589 135.34 50.3473C135.266 50.2358 135.154 50.155 135.026 50.1199C134.484 49.9227 133.91 49.8306 133.334 49.8485C133.015 49.8169 132.694 49.8534 132.391 49.9556C132.087 50.0578 131.809 50.2234 131.574 50.4413C131.339 50.6593 131.153 50.9247 131.029 51.2201C130.904 51.5154 130.843 51.834 130.85 52.1547C130.824 52.4807 130.895 52.807 131.053 53.0931C131.211 53.3791 131.45 53.6121 131.739 53.7632C132.366 54.0018 133.013 54.1834 133.672 54.3058C134.407 54.519 134.639 54.771 134.639 55.2748C134.639 55.9919 134.136 56.4667 132.986 56.4667C132.684 56.4701 132.383 56.4409 132.087 56.3794C131.812 56.279 131.531 56.1949 131.246 56.1275C131.175 56.13 131.106 56.1466 131.042 56.1763C130.977 56.206 130.92 56.2483 130.872 56.3006C130.824 56.353 130.788 56.4143 130.764 56.4811C130.74 56.5479 130.73 56.6187 130.734 56.6895C130.733 56.8094 130.771 56.9263 130.843 57.0225C130.914 57.1186 131.015 57.1888 131.13 57.2225C131.748 57.4502 132.405 57.5554 133.063 57.5325C134.668 57.5325 135.808 56.7186 135.808 55.1586M129.506 56.8833C129.506 56.7334 129.447 56.5894 129.343 56.4825C129.238 56.3755 129.095 56.3142 128.946 56.3116H126.046V54.2186H128.511C128.652 54.2187 128.789 54.1628 128.89 54.0632C128.991 53.9635 129.049 53.8279 129.052 53.6857C129.052 53.5409 128.995 53.4019 128.894 53.2985C128.793 53.1952 128.655 53.1359 128.511 53.1334H126.046V51.0404H128.752C128.901 51.0404 129.044 50.9812 129.149 50.8758C129.254 50.7704 129.313 50.6274 129.313 50.4784C129.313 50.3293 129.254 50.1864 129.149 50.081C129.044 49.9756 128.901 49.9164 128.752 49.9164H125.427C125.278 49.9164 125.136 49.9756 125.031 50.081C124.926 50.1864 124.866 50.3293 124.866 50.4784V56.8833C124.866 56.9567 124.881 57.0293 124.909 57.097C124.938 57.1646 124.979 57.2259 125.031 57.2773C125.083 57.3287 125.145 57.3692 125.213 57.3964C125.281 57.4236 125.354 57.4369 125.427 57.4357H128.897C128.97 57.4369 129.043 57.4236 129.111 57.3964C129.179 57.3692 129.241 57.3287 129.293 57.2773C129.345 57.2259 129.387 57.1646 129.415 57.097C129.443 57.0293 129.458 56.9567 129.458 56.8833M122.856 56.9899V50.3718C122.856 50.2984 122.841 50.2258 122.813 50.1582C122.785 50.0905 122.743 50.0292 122.691 49.9778C122.639 49.9264 122.577 49.8859 122.509 49.8587C122.441 49.8315 122.368 49.8182 122.295 49.8195C122.183 49.8097 122.071 49.8353 121.974 49.8926C121.877 49.9499 121.8 50.0361 121.754 50.1393L119.589 54.6256L117.443 50.1683C117.401 50.0564 117.323 49.9615 117.222 49.8984C117.12 49.8353 117.001 49.8075 116.882 49.8195C116.808 49.8169 116.735 49.8292 116.665 49.8558C116.596 49.8824 116.533 49.9227 116.48 49.9742C116.427 50.0258 116.385 50.0876 116.356 50.1559C116.327 50.2242 116.312 50.2976 116.312 50.3718V56.9996C116.312 57.1435 116.369 57.2815 116.471 57.3833C116.572 57.485 116.71 57.5422 116.853 57.5422C116.997 57.5422 117.134 57.485 117.236 57.3833C117.338 57.2815 117.395 57.1435 117.395 56.9996V52.426L119.047 55.9241C119.095 56.0252 119.17 56.1107 119.264 56.1708C119.358 56.2308 119.468 56.2628 119.579 56.2632C119.69 56.2659 119.799 56.235 119.892 56.1745C119.985 56.114 120.058 56.0267 120.101 55.9241L121.764 52.426V56.9899C121.766 57.133 121.824 57.2696 121.925 57.3709C122.026 57.4721 122.162 57.53 122.305 57.5325C122.449 57.5326 122.588 57.4757 122.691 57.3742C122.794 57.2727 122.853 57.1347 122.856 56.9899ZM113.402 54.8194C113.402 55.7884 113.064 56.5442 111.943 56.5442C110.822 56.5442 110.493 55.8078 110.493 54.8194V52.6876C110.493 51.7187 110.831 50.9726 111.943 50.9726C113.055 50.9726 113.402 51.7187 113.402 52.6876V54.8194ZM114.572 54.8194V52.6876C114.572 51.9886 114.295 51.3183 113.802 50.824C113.309 50.3297 112.64 50.052 111.943 50.052C111.246 50.052 110.577 50.3297 110.084 50.824C109.591 51.3183 109.314 51.9886 109.314 52.6876V54.8194C109.314 55.5184 109.591 56.1888 110.084 56.6831C110.577 57.1774 111.246 57.455 111.943 57.455C112.64 57.455 113.309 57.1774 113.802 56.6831C114.295 56.1888 114.572 55.5184 114.572 54.8194ZM107.448 57.0771V50.4396C107.448 50.2957 107.391 50.1577 107.29 50.0559C107.188 49.9542 107.05 49.897 106.907 49.897C106.763 49.897 106.626 49.9542 106.524 50.0559C106.423 50.1577 106.366 50.2957 106.366 50.4396V55.1876L103.35 50.2071C103.29 50.1103 103.205 50.0309 103.105 49.9766C103.005 49.9222 102.893 49.8948 102.779 49.897C102.705 49.8917 102.631 49.9017 102.56 49.9266C102.49 49.9515 102.426 49.9906 102.371 50.0416C102.317 50.0925 102.274 50.1541 102.244 50.2226C102.214 50.2911 102.199 50.365 102.199 50.4396V57.0771C102.202 57.2193 102.26 57.3549 102.361 57.4546C102.463 57.5543 102.599 57.6101 102.741 57.6101C102.811 57.6114 102.882 57.5985 102.947 57.5723C103.013 57.5461 103.073 57.507 103.123 57.4574C103.173 57.4078 103.213 57.3486 103.241 57.2833C103.268 57.218 103.282 57.1479 103.282 57.0771V52.3001L106.308 57.2806C106.366 57.3773 106.451 57.4557 106.552 57.5071C106.652 57.5584 106.765 57.5806 106.878 57.5713C106.951 57.5752 107.023 57.5644 107.092 57.5395C107.16 57.5146 107.223 57.4761 107.276 57.4264C107.329 57.3766 107.372 57.3166 107.402 57.2499C107.431 57.1833 107.447 57.1113 107.448 57.0384M99.1643 54.8194C99.1643 55.7884 98.826 56.5442 97.6951 56.5442C96.5641 56.5442 96.2451 55.8078 96.2451 54.8194V52.6876C96.2451 51.7187 96.5835 50.9726 97.6951 50.9726C98.8067 50.9726 99.1643 51.7187 99.1643 52.6876V54.8194ZM100.334 54.8194V52.6876C100.334 51.9886 100.057 51.3183 99.5639 50.824C99.0708 50.3297 98.402 50.052 97.7047 50.052C97.0074 50.052 96.3387 50.3297 95.8456 50.824C95.3526 51.3183 95.0756 51.9886 95.0756 52.6876V54.8194C95.0443 55.1845 95.089 55.5521 95.207 55.899C95.3249 56.2459 95.5135 56.5644 95.7607 56.8344C96.0079 57.1043 96.3083 57.3199 96.643 57.4673C96.9776 57.6148 97.3392 57.6909 97.7047 57.6909C98.0703 57.6909 98.4319 57.6148 98.7666 57.4673C99.1012 57.3199 99.4017 57.1043 99.6489 56.8344C99.8961 56.5644 100.085 56.2459 100.202 55.899C100.32 55.5521 100.365 55.1845 100.334 54.8194ZM92.2821 52.4454C92.2821 53.0171 91.8375 53.4144 91.0255 53.4144H89.7109V51.0792H91.0545C91.9244 51.0792 92.2821 51.4668 92.2821 52.0481V52.4454ZM93.4807 56.7767C93.065 55.9337 92.6204 55.1101 92.1178 54.2865C92.5183 54.1804 92.8702 53.9396 93.1148 53.6045C93.3594 53.2693 93.4818 52.8601 93.4614 52.4454V52.0287C93.4614 50.7981 92.6977 49.9939 91.0738 49.9939H89.1406C89.0632 49.9939 88.9865 50.0092 88.9149 50.0389C88.8434 50.0686 88.7784 50.1121 88.7237 50.167C88.6689 50.2219 88.6255 50.2871 88.5959 50.3588C88.5663 50.4305 88.551 50.5074 88.551 50.585V57.019C88.551 57.1757 88.6131 57.3261 88.7237 57.4369C88.8342 57.5478 88.9842 57.6101 89.1406 57.6101C89.297 57.6101 89.447 57.5478 89.5575 57.4369C89.6681 57.3261 89.7302 57.1757 89.7302 57.019V54.4997H90.8998C91.4623 55.3895 91.9723 56.3116 92.4271 57.2612C92.4654 57.3657 92.5354 57.4556 92.6273 57.5182C92.7192 57.5807 92.8283 57.6129 92.9394 57.6101C93.0397 57.614 93.1394 57.5922 93.229 57.5466C93.3186 57.5011 93.3951 57.4334 93.4512 57.3499C93.5074 57.2665 93.5413 57.17 93.5499 57.0697C93.5584 56.9694 93.5413 56.8685 93.5 56.7767M86.7821 55.0229V54.112C86.786 54.0358 86.7744 53.9596 86.748 53.888C86.7216 53.8165 86.681 53.751 86.6285 53.6957C86.5761 53.6404 86.5129 53.5964 86.4429 53.5664C86.3729 53.5363 86.2976 53.5209 86.2214 53.521H84.6942C84.5489 53.5235 84.4102 53.5825 84.3074 53.6855C84.2046 53.7886 84.1457 53.9276 84.1433 54.0733C84.1432 54.1454 84.1576 54.2167 84.1854 54.2832C84.2132 54.3497 84.2539 54.4099 84.3052 54.4604C84.3565 54.511 84.4173 54.5507 84.4841 54.5774C84.5509 54.6041 84.6223 54.6172 84.6942 54.6159H85.6608V55.0519C85.6608 55.9531 85.3032 56.5442 84.3172 56.5442C83.3313 56.5442 82.819 55.924 82.819 54.3349V53.1818C82.819 51.6605 83.3216 50.9629 84.3752 50.9629C84.6683 50.9578 84.9577 51.0279 85.2162 51.1664C85.4868 51.3117 85.5932 51.4183 85.7575 51.4183C85.8267 51.4236 85.8962 51.4146 85.9617 51.3917C86.0272 51.3688 86.0873 51.3325 86.1382 51.2852C86.189 51.2378 86.2295 51.1804 86.2572 51.1166C86.2848 51.0528 86.299 50.984 86.2988 50.9144C86.2861 50.8032 86.2493 50.696 86.1908 50.6006C86.1324 50.5052 86.0537 50.4238 85.9605 50.3621C85.4953 50.041 84.9397 49.878 84.3752 49.897C82.3937 49.897 81.6397 51.2923 81.6397 53.1528V54.3446C81.6397 56.2826 82.3744 57.6101 84.3172 57.6101C84.6586 57.6367 85.0017 57.5872 85.3218 57.4652C85.6419 57.3431 85.931 57.1516 86.1684 56.9042C86.4059 56.6569 86.5859 56.36 86.6953 56.0347C86.8047 55.7094 86.841 55.3639 86.8014 55.0229M78.6916 54.8H76.5844C76.9034 53.7632 77.2513 52.7458 77.6379 51.7574C78.0149 52.7264 78.3726 53.7632 78.6916 54.8ZM80.4605 56.9027C79.9363 54.7262 79.2513 52.5918 78.4113 50.5171C78.2083 49.9939 77.9086 49.897 77.6476 49.897C77.3866 49.897 77.1063 49.9939 76.8937 50.5171C76.0537 52.5918 75.3687 54.7262 74.8445 56.9027C74.8236 56.9882 74.8227 57.0774 74.8418 57.1633C74.861 57.2492 74.8997 57.3295 74.9549 57.398C75.0101 57.4664 75.0803 57.5212 75.1601 57.558C75.2398 57.5947 75.327 57.6126 75.4148 57.6101C75.5453 57.6094 75.6714 57.5623 75.7706 57.4771C75.8697 57.3919 75.9354 57.2742 75.9561 57.1449C76.0624 56.7089 76.1784 56.2825 76.2944 55.8659H78.9332C79.0492 56.2825 79.1749 56.7089 79.2715 57.1449C79.2945 57.2767 79.3636 57.3958 79.4663 57.4811C79.5691 57.5663 79.6988 57.6121 79.8322 57.6101C79.921 57.6137 80.0094 57.5968 80.0906 57.5607C80.1719 57.5246 80.2438 57.4703 80.3008 57.4019C80.3578 57.3336 80.3983 57.253 80.4193 57.1665C80.4403 57.0799 80.4411 56.9896 80.4218 56.9027" fill="#00AD52"></path>
    <path d="M146.016 66.4471C146.034 66.2037 145.985 65.96 145.877 65.7417C145.768 65.5235 145.602 65.3387 145.397 65.2068C144.884 64.9832 144.345 64.8269 143.793 64.7417C143.271 64.6061 143 64.4316 143 63.9665C143 63.5014 143.406 63.1235 144.102 63.1235C144.297 63.1233 144.491 63.1428 144.682 63.1817C144.972 63.2398 145.097 63.3367 145.242 63.3367C145.299 63.3367 145.355 63.3254 145.408 63.3034C145.46 63.2813 145.507 63.2491 145.547 63.2084C145.586 63.1678 145.617 63.1196 145.638 63.0668C145.659 63.0139 145.669 62.9575 145.668 62.9007C145.665 62.8076 145.632 62.7178 145.575 62.6446C145.518 62.5714 145.438 62.5185 145.349 62.4937C144.927 62.3441 144.481 62.275 144.034 62.2902C143.787 62.2655 143.536 62.2937 143.3 62.3731C143.064 62.4524 142.848 62.581 142.665 62.7504C142.483 62.9199 142.338 63.1263 142.24 63.3559C142.143 63.5856 142.096 63.8334 142.101 64.0828C142.081 64.3368 142.136 64.5911 142.26 64.8136C142.384 65.0361 142.571 65.2168 142.797 65.3328C143.291 65.5241 143.803 65.6668 144.324 65.7592C144.904 65.9239 145.117 66.1274 145.117 66.5343C145.117 67.0963 144.721 67.5033 143.822 67.5033C143.588 67.5065 143.354 67.4837 143.126 67.4355C142.768 67.3579 142.633 67.2417 142.468 67.2417C142.414 67.2442 142.36 67.2574 142.311 67.2807C142.261 67.304 142.217 67.3368 142.18 67.3773C142.143 67.4178 142.115 67.4652 142.096 67.5167C142.078 67.5683 142.069 67.623 142.072 67.6777C142.072 67.77 142.1 67.8601 142.154 67.935C142.208 68.0099 142.284 68.0657 142.372 68.0944C142.858 68.2688 143.373 68.3509 143.889 68.3366C145.146 68.3366 146.025 67.6971 146.025 66.4859M141.086 67.8328C141.086 67.7162 141.041 67.6043 140.959 67.521C140.878 67.4376 140.767 67.3896 140.651 67.387H138.428V65.7495H140.361C140.472 65.7495 140.579 65.7059 140.659 65.628C140.738 65.5502 140.784 65.4442 140.786 65.3328C140.786 65.2197 140.742 65.1113 140.662 65.0313C140.582 64.9514 140.474 64.9064 140.361 64.9064H138.428V63.2786H140.535C140.65 63.2786 140.761 63.2326 140.843 63.1509C140.924 63.0691 140.97 62.9582 140.97 62.8425C140.97 62.726 140.925 62.614 140.843 62.5307C140.762 62.4474 140.651 62.3993 140.535 62.3968H137.896C137.78 62.3993 137.669 62.4474 137.588 62.5307C137.507 62.614 137.461 62.726 137.461 62.8425V67.8328C137.461 67.8896 137.473 67.9458 137.495 67.9982C137.517 68.0505 137.549 68.098 137.589 68.1377C137.63 68.1774 137.678 68.2086 137.731 68.2295C137.783 68.2503 137.84 68.2604 137.896 68.2591H140.603C140.659 68.2604 140.716 68.2503 140.768 68.2295C140.821 68.2086 140.869 68.1774 140.91 68.1377C140.95 68.098 140.982 68.0505 141.004 67.9982C141.026 67.9458 141.038 67.8896 141.038 67.8328M135.132 64.3154C135.132 64.7514 134.793 65.0809 134.165 65.0809H133.141V63.2592H134.194C134.861 63.2592 135.161 63.5692 135.161 63.9859L135.132 64.3154ZM136.098 67.6874C135.778 67.0232 135.423 66.3764 135.035 65.7495C135.346 65.6658 135.62 65.4779 135.809 65.217C135.999 64.9561 136.094 64.6379 136.079 64.3154V63.9859C136.079 63.0169 135.489 62.3968 134.223 62.3968H132.706C132.584 62.3968 132.468 62.4444 132.381 62.5296C132.294 62.6147 132.244 62.7306 132.242 62.8522V67.8812C132.242 68.0097 132.293 68.1329 132.383 68.2238C132.474 68.3147 132.597 68.3657 132.725 68.3657C132.853 68.3657 132.976 68.3147 133.067 68.2238C133.157 68.1329 133.208 68.0097 133.208 67.8812V65.9433H134.126C134.562 66.636 134.956 67.3544 135.306 68.0944C135.337 68.1759 135.393 68.2457 135.466 68.2942C135.539 68.3427 135.624 68.3677 135.712 68.3657C135.79 68.3699 135.868 68.3536 135.939 68.3184C136.009 68.2832 136.069 68.2303 136.113 68.1648C136.157 68.0994 136.183 68.0237 136.189 67.9451C136.195 67.8665 136.18 67.7877 136.147 67.7165M128.597 60.5751C128.611 60.6787 128.647 60.778 128.704 60.8658L129.197 61.6701C129.303 61.8445 129.39 61.9026 129.554 61.9026C129.595 61.904 129.636 61.8969 129.674 61.8818C129.713 61.8667 129.747 61.8439 129.776 61.8148C129.805 61.7857 129.828 61.751 129.843 61.7128C129.858 61.6745 129.865 61.6336 129.864 61.5925C129.858 61.5111 129.835 61.4318 129.796 61.36L129.322 60.4491C129.29 60.3698 129.231 60.3039 129.156 60.2625C129.081 60.221 128.994 60.2064 128.91 60.2211C128.825 60.2357 128.748 60.2788 128.692 60.3432C128.635 60.4075 128.602 60.4893 128.597 60.5751ZM131.043 67.8618C131.043 67.7453 130.998 67.6333 130.916 67.55C130.835 67.4667 130.724 67.4186 130.608 67.4161H128.385V65.7785H130.318C130.429 65.7786 130.536 65.735 130.615 65.6571C130.695 65.5792 130.741 65.4733 130.743 65.3619C130.743 65.2488 130.699 65.1404 130.619 65.0604C130.539 64.9804 130.431 64.9355 130.318 64.9355H128.385V63.3076H130.492C130.607 63.3076 130.718 63.2617 130.8 63.1799C130.881 63.0982 130.927 62.9872 130.927 62.8716C130.927 62.755 130.882 62.6431 130.8 62.5598C130.719 62.4765 130.608 62.4284 130.492 62.4259H127.902C127.785 62.4284 127.675 62.4765 127.593 62.5598C127.512 62.6431 127.467 62.755 127.467 62.8716V67.8618C127.467 67.9186 127.478 67.9749 127.5 68.0273C127.522 68.0796 127.554 68.1271 127.595 68.1668C127.635 68.2065 127.683 68.2377 127.736 68.2585C127.789 68.2794 127.845 68.2895 127.902 68.2882H130.608C130.665 68.2895 130.721 68.2794 130.774 68.2585C130.827 68.2377 130.874 68.2065 130.915 68.1668C130.956 68.1271 130.988 68.0796 131.01 68.0273C131.032 67.9749 131.043 67.9186 131.043 67.8618ZM125.862 67.9103V62.8135C125.862 62.685 125.811 62.5617 125.72 62.4709C125.63 62.38 125.507 62.329 125.379 62.329C125.25 62.329 125.128 62.38 125.037 62.4709C124.946 62.5617 124.895 62.685 124.895 62.8135V67.9103C124.895 68.0388 124.946 68.162 125.037 68.2529C125.128 68.3437 125.25 68.3948 125.379 68.3948C125.507 68.3948 125.63 68.3437 125.72 68.2529C125.811 68.162 125.862 68.0388 125.862 67.9103ZM123.929 62.8813C123.93 62.8228 123.92 62.7645 123.899 62.71C123.878 62.6554 123.846 62.6055 123.805 62.5632C123.765 62.5209 123.717 62.4871 123.663 62.4635C123.61 62.4399 123.552 62.4271 123.494 62.4259H119.83C119.772 62.4271 119.714 62.4399 119.661 62.4635C119.607 62.4871 119.559 62.5209 119.519 62.5632C119.478 62.6055 119.447 62.6554 119.426 62.71C119.404 62.7645 119.394 62.8228 119.395 62.8813C119.395 62.9969 119.441 63.1078 119.523 63.1896C119.604 63.2714 119.715 63.3173 119.83 63.3173H121.203V67.9103C121.203 68.0388 121.254 68.162 121.345 68.2529C121.435 68.3437 121.558 68.3948 121.686 68.3948C121.814 68.3948 121.937 68.3437 122.028 68.2529C122.119 68.162 122.17 68.0388 122.17 67.9103V63.3173H123.397C123.513 63.3173 123.623 63.2714 123.705 63.1896C123.786 63.1078 123.832 62.9969 123.832 62.8813M118.245 67.949V62.7747C118.243 62.6633 118.197 62.5573 118.117 62.4795C118.038 62.4016 117.931 62.358 117.82 62.358C117.71 62.358 117.604 62.4019 117.526 62.4801C117.448 62.5582 117.404 62.6642 117.404 62.7747V66.4762L115.046 62.6003C115.001 62.5226 114.936 62.4589 114.857 62.4161C114.779 62.3734 114.69 62.3533 114.601 62.358C114.544 62.3541 114.486 62.3619 114.432 62.3809C114.377 62.4 114.327 62.4299 114.285 62.4688C114.242 62.5078 114.208 62.555 114.184 62.6076C114.161 62.6601 114.148 62.717 114.147 62.7747V67.949C114.147 68.0621 114.192 68.1705 114.271 68.2505C114.351 68.3305 114.459 68.3754 114.572 68.3754C114.685 68.3754 114.793 68.3305 114.873 68.2505C114.953 68.1705 114.997 68.0621 114.997 67.949V64.2572L117.356 68.1331C117.401 68.2064 117.466 68.2659 117.542 68.3051C117.619 68.3444 117.705 68.362 117.791 68.356C117.848 68.36 117.906 68.3522 117.96 68.3331C118.015 68.3141 118.065 68.2842 118.107 68.2452C118.149 68.2062 118.184 68.1591 118.207 68.1065C118.231 68.0539 118.244 67.9971 118.245 67.9394M111.798 66.108C111.798 66.8735 111.537 67.4452 110.657 67.4452C109.778 67.4452 109.526 66.8735 109.526 66.108V64.4413C109.526 63.6758 109.797 63.1041 110.657 63.1041C111.518 63.1041 111.798 63.6855 111.798 64.4413V66.108ZM112.716 66.108V64.4413C112.735 64.159 112.697 63.8758 112.602 63.6092C112.508 63.3426 112.36 63.0982 112.167 62.8914C111.974 62.6846 111.741 62.5197 111.482 62.407C111.224 62.2943 110.944 62.2361 110.662 62.2361C110.38 62.2361 110.101 62.2943 109.842 62.407C109.583 62.5197 109.35 62.6846 109.157 62.8914C108.965 63.0982 108.816 63.3426 108.722 63.6092C108.627 63.8758 108.589 64.159 108.608 64.4413V66.108C108.589 66.3903 108.627 66.6735 108.722 66.9401C108.816 67.2068 108.965 67.4511 109.157 67.6579C109.35 67.8647 109.583 68.0296 109.842 68.1423C110.101 68.2551 110.38 68.3132 110.662 68.3132C110.944 68.3132 111.224 68.2551 111.482 68.1423C111.741 68.0296 111.974 67.8647 112.167 67.6579C112.36 67.4511 112.508 67.2068 112.602 66.9401C112.697 66.6735 112.735 66.3903 112.716 66.108ZM106.404 64.2572C106.404 64.6933 106.056 65.0227 105.438 65.0227H104.413V63.201H105.457C106.134 63.201 106.424 63.5111 106.424 63.9278L106.404 64.2572ZM107.371 67.6293C107.054 66.9652 106.702 66.3184 106.317 65.6913C106.628 65.6076 106.902 65.4197 107.091 65.1589C107.281 64.898 107.377 64.5798 107.361 64.2572V63.9278C107.361 62.9588 106.762 62.3387 105.505 62.3387H103.978C103.858 62.3411 103.744 62.3899 103.659 62.4748C103.575 62.5597 103.526 62.6741 103.524 62.7941V67.8231C103.524 67.9516 103.575 68.0748 103.665 68.1657C103.756 68.2565 103.879 68.3076 104.007 68.3076C104.135 68.3076 104.258 68.2565 104.349 68.1657C104.439 68.0748 104.49 67.9516 104.49 67.8231V65.8851H105.399C105.838 66.5778 106.235 67.2961 106.588 68.0363C106.62 68.1178 106.676 68.1875 106.748 68.2361C106.821 68.2846 106.907 68.3096 106.994 68.3076C107.072 68.31 107.149 68.2924 107.218 68.2565C107.287 68.2206 107.345 68.1675 107.388 68.1023C107.43 68.0372 107.456 67.9622 107.461 67.8844C107.467 67.8067 107.452 67.7289 107.419 67.6583M102.509 62.8135C102.509 62.6969 102.463 62.585 102.382 62.5017C102.301 62.4183 102.19 62.3703 102.074 62.3677H99.5413C99.425 62.3703 99.3144 62.4183 99.2331 62.5017C99.1518 62.585 99.1063 62.6969 99.1063 62.8135V67.8521C99.1063 67.9806 99.1572 68.1039 99.2478 68.1947C99.3384 68.2856 99.4614 68.3366 99.5896 68.3366C99.7178 68.3366 99.8407 68.2856 99.9314 68.1947C100.022 68.1039 100.073 67.9806 100.073 67.8521V65.7204H101.774C101.885 65.7204 101.992 65.6768 102.071 65.599C102.151 65.5211 102.197 65.4151 102.199 65.3037C102.199 65.1907 102.155 65.0822 102.075 65.0023C101.995 64.9223 101.887 64.8774 101.774 64.8774H100.073V63.2495H102.122C102.237 63.2495 102.348 63.2036 102.43 63.1218C102.511 63.04 102.557 62.9291 102.557 62.8135M94.9692 66.4471C94.9849 66.204 94.9359 65.961 94.8272 65.7431C94.7185 65.5252 94.554 65.3402 94.3506 65.2068C93.8375 64.9845 93.2983 64.8282 92.746 64.7417C92.224 64.6061 91.9437 64.4316 91.9437 63.9665C91.9437 63.5014 92.3497 63.1235 93.0456 63.1235C93.2404 63.1229 93.4348 63.1423 93.6256 63.1817C93.9253 63.2398 94.0413 63.3367 94.1863 63.3367C94.2433 63.3381 94.3 63.3277 94.3529 63.3061C94.4058 63.2846 94.4536 63.2524 94.4935 63.2114C94.5334 63.1705 94.5645 63.1219 94.5848 63.0684C94.6051 63.0149 94.6142 62.9578 94.6115 62.9007C94.6093 62.8088 94.5782 62.72 94.5227 62.6469C94.4671 62.5738 94.39 62.5202 94.3023 62.4937C93.8802 62.3456 93.4346 62.2766 92.9876 62.2902C92.74 62.2655 92.4899 62.2937 92.2539 62.3731C92.0179 62.4524 91.8014 62.581 91.6187 62.7504C91.4359 62.9199 91.2912 63.1263 91.1939 63.3559C91.0966 63.5856 91.0491 63.8334 91.0544 64.0828C91.0315 64.3372 91.0857 64.5925 91.2099 64.8155C91.334 65.0385 91.5224 65.2188 91.7504 65.3328C92.2437 65.5265 92.7555 65.6694 93.2777 65.7592C93.848 65.9239 94.0606 66.1274 94.0606 66.5343C94.0606 67.0963 93.6643 67.5033 92.7653 67.5033C92.5316 67.5059 92.2983 67.4832 92.0694 67.4355C91.8538 67.3596 91.6343 67.295 91.4121 67.2417C91.3575 67.2442 91.3039 67.2574 91.2544 67.2807C91.2049 67.304 91.1605 67.3368 91.1237 67.3773C91.0869 67.4178 91.0584 67.4652 91.0399 67.5167C91.0214 67.5683 91.0132 67.623 91.0158 67.6777C91.0159 67.7712 91.0461 67.8622 91.1018 67.9373C91.1575 68.0123 91.2358 68.0674 91.3251 68.0944C91.8112 68.2703 92.3261 68.3525 92.8427 68.3366C94.0896 68.3366 94.9788 67.6971 94.9788 66.4859M89.6819 67.92V62.7456C89.6819 62.6325 89.6371 62.5241 89.5573 62.4441C89.4775 62.3642 89.3693 62.3193 89.2565 62.3193C89.1437 62.3193 89.0356 62.3642 88.9558 62.4441C88.8761 62.5241 88.8312 62.6325 88.8312 62.7456V66.4471L86.4824 62.5712C86.437 62.4943 86.3717 62.4312 86.2934 62.3885C86.2151 62.3459 86.1268 62.3253 86.0377 62.329C85.9803 62.325 85.9227 62.3328 85.8683 62.3519C85.814 62.3709 85.764 62.4008 85.7216 62.4398C85.6791 62.4787 85.6449 62.5259 85.6212 62.5785C85.5975 62.6311 85.5846 62.6879 85.5834 62.7456V67.92C85.586 68.0313 85.6319 68.1373 85.7113 68.2152C85.7908 68.2931 85.8976 68.3367 86.0088 68.3366C86.119 68.3366 86.2247 68.2927 86.3027 68.2146C86.3806 68.1365 86.4244 68.0305 86.4244 67.92V64.2282L88.7829 68.1041C88.8314 68.1767 88.8979 68.2354 88.9758 68.2745C89.0538 68.3136 89.1405 68.3316 89.2276 68.3269C89.285 68.3309 89.3426 68.3231 89.397 68.3041C89.4513 68.285 89.5013 68.2551 89.5437 68.2161C89.5862 68.1772 89.6203 68.13 89.6441 68.0774C89.6678 68.0248 89.6807 67.968 89.6819 67.9103M83.1283 66.137H81.4947C81.7364 65.3231 82.0166 64.5382 82.3066 63.7631C82.6063 64.5382 82.877 65.3231 83.1283 66.137ZM84.5105 67.7746C84.1028 66.0771 83.5696 64.4123 82.9156 62.7941C82.7513 62.3871 82.5193 62.3193 82.3163 62.3193C82.1133 62.3193 81.891 62.3871 81.7364 62.7941C81.0748 64.4105 80.5383 66.0756 80.1318 67.7746C80.1153 67.8413 80.1145 67.911 80.1294 67.978C80.1443 68.0451 80.1744 68.1078 80.2174 68.1613C80.2605 68.2148 80.3153 68.2576 80.3775 68.2863C80.4398 68.315 80.5079 68.3289 80.5764 68.3269C80.6779 68.3263 80.776 68.2901 80.8536 68.2246C80.9313 68.1592 80.9837 68.0685 81.0017 67.9684C81.0791 67.6293 81.1757 67.2901 81.2627 66.9994H83.3506C83.4376 67.3192 83.5342 67.6583 83.6212 67.9684C83.6395 68.0702 83.6933 68.1621 83.773 68.2278C83.8527 68.2934 83.953 68.3286 84.0562 68.3269C84.1249 68.3285 84.1931 68.3144 84.2557 68.2857C84.3182 68.2571 84.3734 68.2146 84.4171 68.1614C84.4609 68.1082 84.492 68.0457 84.5082 67.9787C84.5243 67.9118 84.5252 67.842 84.5105 67.7746ZM79.2328 66.4471C79.2505 66.2037 79.2024 65.96 79.0935 65.7417C78.9847 65.5235 78.8191 65.3387 78.6142 65.2068C78.1015 64.9832 77.5622 64.8269 77.0096 64.7417C76.4877 64.6061 76.217 64.4316 76.217 63.9665C76.217 63.5014 76.623 63.1235 77.319 63.1235C77.5138 63.1229 77.7081 63.1423 77.8989 63.1817C78.1889 63.2398 78.3146 63.3367 78.4595 63.3367C78.5162 63.3367 78.5723 63.3254 78.6246 63.3034C78.6768 63.2813 78.7241 63.2491 78.7637 63.2084C78.8034 63.1678 78.8345 63.1196 78.8553 63.0668C78.8761 63.0139 78.8861 62.9575 78.8849 62.9007C78.882 62.8076 78.8495 62.7178 78.7921 62.6446C78.7347 62.5714 78.6554 62.5185 78.5659 62.4937C78.1442 62.3441 77.6983 62.275 77.2513 62.2902C77.0036 62.2655 76.7535 62.2937 76.5175 62.3731C76.2816 62.4524 76.065 62.581 75.8823 62.7504C75.6996 62.9199 75.5548 63.1263 75.4575 63.3559C75.3603 63.5856 75.3127 63.8334 75.3181 64.0828C75.2978 64.3368 75.3531 64.5911 75.477 64.8136C75.6009 65.0361 75.7877 65.2168 76.014 65.3328C76.5081 65.5241 77.0196 65.6668 77.5413 65.7592C78.1212 65.9239 78.3339 66.1274 78.3339 66.5343C78.3339 67.0963 77.9375 67.5033 77.0386 67.5033C76.8048 67.5065 76.5715 67.4837 76.3427 67.4355C75.985 67.3579 75.8497 67.2417 75.6854 67.2417C75.6308 67.2442 75.5772 67.2574 75.5277 67.2807C75.4782 67.304 75.4338 67.3368 75.397 67.3773C75.3602 67.4178 75.3317 67.4652 75.3132 67.5167C75.2947 67.5683 75.2864 67.623 75.289 67.6777C75.2886 67.77 75.3173 67.8601 75.3712 67.935C75.425 68.0099 75.5012 68.0657 75.5887 68.0944C76.0752 68.2688 76.5898 68.3509 77.1063 68.3366C78.3629 68.3366 79.2425 67.6971 79.2425 66.4859" fill="#00AD52"></path>
    <path d="M214.693 67.0382H216.626V66.4471H215.36V64.0731H214.655L214.693 67.0382ZM212.383 65.9045L212.712 64.8871L213.04 65.9045H212.383ZM213.417 67.0382H214.162L213.05 64.0344H212.373L211.281 67.0382H212.016L212.19 66.5053H213.292L213.417 67.0382ZM210.034 64.0344V65.8851L208.865 64.0344H208.159V67.0382H208.865V65.2359L210.005 67.0382H210.73V64.0344H210.034ZM205.955 66.4278C205.843 66.4254 205.732 66.4001 205.629 66.3535C205.526 66.3069 205.434 66.2399 205.359 66.1565C205.283 66.0731 205.224 65.9752 205.187 65.8686C205.15 65.7619 205.135 65.6489 205.143 65.5363C205.158 65.3795 205.218 65.2304 205.316 65.1071C205.414 64.9839 205.545 64.8917 205.694 64.8418C205.843 64.7919 206.004 64.7864 206.156 64.8261C206.308 64.8657 206.445 64.9487 206.551 65.065C206.657 65.1813 206.727 65.326 206.753 65.4814C206.778 65.6368 206.758 65.7964 206.695 65.9406C206.632 66.0849 206.529 66.2077 206.397 66.2942C206.266 66.3806 206.112 66.4271 205.955 66.4278ZM205.955 67.0867C206.261 67.0867 206.56 66.9957 206.814 66.8254C207.069 66.655 207.267 66.4129 207.384 66.1296C207.501 65.8463 207.532 65.5346 207.472 65.2338C207.412 64.9331 207.265 64.6568 207.049 64.44C206.832 64.2232 206.557 64.0756 206.257 64.0157C205.957 63.9559 205.646 63.9866 205.363 64.1039C205.081 64.2213 204.839 64.42 204.669 64.675C204.499 64.9299 204.409 65.2297 204.409 65.5363C204.399 65.7425 204.432 65.9484 204.507 66.1408C204.581 66.3333 204.695 66.5081 204.84 66.6541C204.986 66.8 205.16 66.9139 205.352 66.9883C205.544 67.0628 205.75 67.0963 205.955 67.0867ZM202.997 67.0382H203.713V64.0344H202.997V67.0382ZM200.89 67.0382H201.586V64.6642H202.388V64.0344H200.088V64.6642H200.89V67.0382ZM198.3 65.9045L198.628 64.8871L198.957 65.9045H198.3ZM199.344 67.0382H200.078L198.967 64.0344H198.3L197.198 67.0382H197.932L198.106 66.5053H199.16L199.344 67.0382ZM195.951 64.0344V65.8851L194.781 64.0344H194.076V67.0382H194.781V65.2359L195.922 67.0382H196.647V64.0344H195.951ZM191.814 64.6545H192.152C192.461 64.6545 192.626 64.8289 192.626 65.0518C192.626 65.2747 192.442 65.4491 192.142 65.4491H191.814V64.6545ZM193.505 67.0382L192.8 65.982C192.976 65.9107 193.126 65.785 193.226 65.623C193.327 65.4611 193.374 65.2712 193.36 65.0809C193.371 64.9386 193.35 64.7956 193.3 64.6622C193.249 64.5288 193.17 64.4083 193.067 64.3092C192.965 64.2102 192.842 64.1351 192.707 64.0892C192.572 64.0434 192.429 64.0279 192.287 64.0441H191.118V67.0479H191.814V66.0789H192.055L192.674 67.0479L193.505 67.0382ZM188.402 67.0382H190.451V66.4471H189.126V65.9045H190.093V65.2747H189.126V64.703H190.393V64.0731H188.46L188.402 67.0382ZM186.304 67.0382H187.01V64.6642H187.802V64.0344H185.511V64.6642H186.304V67.0382ZM184.206 64.0344V65.8851L183.037 64.0344H182.36V67.0382H183.066V65.2359L184.206 67.0382H184.931V64.0344H184.206ZM180.814 67.0382H181.529V64.0344H180.814V67.0382ZM176.851 67.0382H177.527V65.9723H178.629V65.3425H177.527V64.6642H178.861V64.0344H176.831L176.851 67.0382ZM175.13 67.0867C175.267 67.1047 175.406 67.093 175.539 67.0525C175.671 67.0119 175.793 66.9434 175.896 66.8515C176 66.7597 176.082 66.6467 176.139 66.5201C176.195 66.3935 176.223 66.2563 176.222 66.1177C176.222 65.5266 175.816 65.391 175.256 65.1487C174.927 65.0227 174.811 64.9549 174.821 64.8193C174.83 64.6836 174.927 64.5867 175.091 64.5867C175.325 64.6023 175.544 64.7021 175.71 64.8677L176.116 64.3444C175.823 64.0903 175.45 63.9495 175.062 63.9472C174.817 63.9466 174.581 64.0393 174.402 64.2066C174.222 64.3739 174.113 64.6033 174.096 64.8483C174.096 65.4394 174.55 65.6526 175.004 65.8173C175.459 65.982 175.459 66.0014 175.459 66.1661C175.459 66.3309 175.362 66.4181 175.111 66.4181C174.838 66.395 174.585 66.2664 174.405 66.0596L173.989 66.5731C174.133 66.7239 174.306 66.8444 174.497 66.9275C174.687 67.0107 174.893 67.0549 175.101 67.0576M172.878 64.0053L172.221 66.0111L171.573 64.0053H170.809L171.911 67.0091H172.53L173.632 64.0053H172.878ZM167.755 67.0576C167.926 67.07 168.098 67.0445 168.258 66.983C168.418 66.9214 168.563 66.8252 168.682 66.7013C168.801 66.5774 168.891 66.4288 168.946 66.266C169.002 66.1031 169.021 65.9301 169.002 65.7592V64.0053H168.296V65.7107C168.296 66.1371 168.064 66.389 167.755 66.389C167.445 66.389 167.233 66.0789 167.233 65.7107V64.0053H166.518V65.7592C166.499 65.9293 166.518 66.1014 166.572 66.2634C166.627 66.4255 166.716 66.5737 166.834 66.6974C166.952 66.8211 167.096 66.9175 167.255 66.9797C167.414 67.0419 167.584 67.0685 167.755 67.0576ZM164.372 65.8754L164.7 64.858L165.029 65.8754H164.372ZM165.406 67.0091H166.15L165.039 64.0053H164.362L163.27 67.0091H163.995L164.169 66.4762H165.222L165.406 67.0091ZM160.795 67.0091H162.844V66.4471H161.491V65.9045H162.458V65.2747H161.491V64.703H162.757V64.0731H160.824L160.795 67.0091ZM159.075 67.0576C159.212 67.0756 159.351 67.0639 159.483 67.0234C159.615 66.9828 159.737 66.9143 159.841 66.8225C159.944 66.7306 160.027 66.6176 160.083 66.491C160.14 66.3644 160.168 66.2272 160.167 66.0886C160.167 65.4975 159.761 65.3619 159.2 65.1196C158.872 64.9937 158.756 64.9259 158.765 64.7902C158.775 64.6545 158.872 64.5576 159.036 64.5576C159.269 64.5732 159.489 64.673 159.655 64.8386L160.051 64.3154C159.763 64.0596 159.392 63.9184 159.007 63.9181C158.762 63.9175 158.526 64.0102 158.346 64.1775C158.167 64.3448 158.058 64.5742 158.04 64.8193C158.04 65.4103 158.495 65.6235 158.949 65.7882C159.403 65.953 159.394 65.9723 159.394 66.1371C159.394 66.3018 159.307 66.389 159.055 66.389C158.783 66.3659 158.529 66.2373 158.35 66.0305L157.934 66.544C158.078 66.6948 158.25 66.8153 158.441 66.8985C158.632 66.9817 158.838 67.0259 159.046 67.0285M155.411 66.9801H157.46V66.4471H156.107V65.9045H157.074V65.2747H156.107V64.703H157.373V64.0731H155.44L155.411 66.9801ZM155.943 63.6855H156.561L157.083 63.046H156.407L155.943 63.6855ZM153.149 64.5964H153.488C153.797 64.5964 153.961 64.7708 153.961 64.9937C153.961 65.2165 153.778 65.391 153.468 65.391H153.149V64.5964ZM154.841 66.9801L154.135 65.9239C154.312 65.8526 154.461 65.7268 154.562 65.5649C154.663 65.4029 154.71 65.2131 154.696 65.0227C154.707 64.8804 154.686 64.7375 154.635 64.6041C154.585 64.4707 154.505 64.3501 154.403 64.2511C154.3 64.152 154.177 64.0769 154.043 64.0311C153.908 63.9852 153.764 63.9698 153.623 63.9859H152.453V66.9898H153.149V66.0208H153.391L154.01 66.9898L154.841 66.9801Z" fill="white"></path>
  </g>
  <defs>
    <clipPath id="clip0_1256_5739">
      <rect width="220" height="75.9" fill="white" transform="translate(0 0.692322)"></rect>
    </clipPath>
  </defs>
</svg>
