<svg id="Calque_1" xmlns="http://www.w3.org/2000/svg" viewBox="0 0 344.43 401.52"><defs><style>.cls-1{fill:#fffaf7;stroke-width:0}</style></defs><path class="cls-1" d="M103.06 28.85h.02l2.47 6.66h-5.01l2.52-6.66zm-3.56 9.56l7.07-.03 1.47 3.99h3.23l-6.71-17.87h-2.67l-7.02 17.87H98l1.5-3.97zm30.92 3.97v-3.1h-9.3V24.55h-3.28l.03 17.83h12.55zm19.82-2.95h-9.31v-4.48h7.73v-2.82h-7.73v-4.65h9.05v-2.93h-12.33v17.83h12.59v-2.95zm9.99-8.29l10.17 11.24h1.45V24.55h-3.2v10.71l-9.74-10.71h-1.9v17.83h3.22V31.14zm24.65 11.24h3.28v-14.9h6.05v-2.93H178.8v2.93h6.05l.03 14.9zm28.83-2.95h-9.3v-4.48h7.73v-2.82h-7.73v-4.65h9.05v-2.93h-12.33v17.83h12.58v-2.95zm11.02 1.45V24.56h-3.28v15.41c0 1.98-.3 4.42-2.39 4.42-.53 0-1.09-.15-1.6-.36l-.51 2.59c.74.48 1.58.74 2.39.74 2.97 0 5.39-2.95 5.39-6.48m16.04-13.71c3.48 0 5.82 2.82 5.82 6.38s-2.34 6.18-5.82 6.18-5.85-2.75-5.85-6.18 2.34-6.38 5.85-6.38m0 15.69c4.3 0 8.92-3.1 8.92-9.31s-4.63-9.51-8.92-9.51-8.95 3.03-8.95 9.46 4.63 9.36 8.95 9.36m-18.83 67.72c-1.08.06-2.15.56-2.74 1.28-.7.87-1.03 1.84-.93 2.73.08.71.43 1.33 1.01 1.78l32.94 25.68a.967.967 0 001.33-.15c.33-.4.31-1-.06-1.37l-29.57-29.32c-.46-.46-1.18-.68-1.98-.64"/><path class="cls-1" d="M107.47 234.6s-19.11-12.17-11.63-30.91c7.26-18.19 29.85-26.79 29.85-26.79s-17.26 14.77-22.73 30.96c-5.78 17.08 14.56 21.58 15.78 20.74 0 0-12.08-9.82-3.36-26.41 9.2-17.52 23.92-24.07 23.92-24.07s-12.91 9.89-17.35 23.97c-5.59 17.76 5.97 21.48 8.05 20.16-2.02-8.11-3.25-10.7-.01-19.76 5.72-16.01 16.65-18.93 16.65-18.93s-5.25 2.31-9.99 13.59c-3.47 8.25-2.64 11.94.16 16.99 6.85-11.97 12.59-12.42 23.76-14.27 1.75-.29 3.19.92 3.19 2.7v82.66s0 2.75-4 4.49c-3.56 1.56-22.06 3.63-25.86 8.71-.59.79.06 1.89 1.03 1.74 3.46-.55 15.39-.84 22.29-1.11 4.71-.18 12.38 1.48 17.83 1.11 9.5-.63 31.86 1.51 36.71-.24.92-.33.8-1.66-.16-1.81-3.42-.53-8.79-2.87-12.13-3-2.23-.08-4.38-.83-6.17-2.16-.58-.42-1.11-.84-1.55-1.24-2.53-2.28-4.69-.25-8.74-.63s-10.26-1.65-11.02-5.32c-.76-3.67-.63-8.54-2.82-8.54l1.05-82.92c.06-5.69 1.44-8.45 7.05-17.38 5.06-8.05 2.42-14.34 2.42-14.34s15.49 4.38 1.3 25.84c-1.49 2.26-2.81 5.54-2.09 9.43 49.38-4.62 54.18-43.88 54.1-47.6-.09-3.94 3.53-18.12-35.61-44.27-1.65-1.1-3.29-3-4.92-4.67a.668.668 0 01-.06-.86s0-.01.02-.02c.65-.89 1.89-1.12 2.82-.53 1.17.74 2.36 2.75 3.47 3.58 3.49 2.59 5.18 3.15 8.6 4.46 3.17 1.22 5.72-1.21 6.31-2.28.69-1.24.14-3.9-.85-5.19-4.36-5.67-9.77-9.98-16.84-12.08-5.4-1.6-10.71-1.75-15 1.93-2.01 1.73-3.9 3.24-3.43 7.87.79 7.74 5.39 13.98 12.95 17.53 5.08 2.39 10.18 4.92 14.79 8.09 3.21 2.21 6.51 5.19 8.06 8.6.16.34.25.72.29 1.13-7.74-8.13-17.87-7.19-29.59-7.46-15.72-.37-60.49 9.03-84.4 44.76-35.13 52.51 6.92 65.92 7.85 63.77"/><path class="cls-1" d="M295.01 348.12c-6.22-3.66-24.24-7.11-30.73-9.87 5.59-3.06 27.36-6.58 29.03-11.68-4.25-3.78-24.36 6.35-30.07 7.93-1.59-3.57 17.83-15.98 23.46-20.19a5.01 5.01 0 001.82-2.63c.36-1.26.9-3.14 1.41-4.94.42-1.45-1.32-2.53-2.44-1.53l-17.16 15.39c-.91.82-2.31-.14-1.88-1.28 1.65-4.35 3.45-8.71 3.39-13.28-.02-1.37-1.74-2.01-2.68-1.01-7.01 7.43-8.29 19.05-11.98 28.45-1.86 6.73-10.64 8.22-16.66 11.11.2-6.97 13.43-24.44 5.02-28.08-.88-.38-2.09 1.94-3.02 6.51-3.49 17.18-6.91 23.5-6.91 23.5s-18.53 9.83-24.49 11.63c1.31-10.37 12.83-19.56 10.93-29.9a.82.82 0 00-1.52-.28c-2.8 4.73-4.53 9.74-6.75 14.15-.47.93-1.65 1.23-2.5.62-3.17-2.28-7.1-6.38-10.95-9.15-5.58-4.01-10.76-6.32-11.35-5.44-.46 1.93.52 2.77 8.79 9.25 5.9 4.62 15.65 9.98 8.89 19.4-8.2-4.19-14.83-15.9-24.08-17.3-.87-.13-1.55.77-1.23 1.58.76 1.93 1.75 3.72 3.61 4.93 6.89 5.56-5.61 11.15-4.98 17.92 6.92 3.56 8.83-9.93 13.18-12.76l12.92 9.84-33.48 15.01c-.91-17.46-.38-31.97 0-50.54 3.64-2.24 30.27-11.12 35.01-13.61 1.6-.97 2.84 1.54 4.16 2.42 5.86 4.84 10.79 10.6 17.96 11.53.54.07.97-.43.83-.95-2.03-7.29-11.2-10.64-17.01-15.72 12.64-10.21 27.85 1.1 41.39-1.51 1.11-.21 1.4-1.67.44-2.26-6.36-3.91-15.07-3.49-22.76-5l5.95-2.74.04.05c10.25-5.71 26.51 2.52 38.18 2.78 3.28.13 10.17 3.03 11.32-1.41-9.94-4.08-24.94-4.87-36.15-7.04-1.07-.21-1.43-1.56-.61-2.27 4.45-3.85 13.24-13.6 13.31-20 0-.91-.27-1.65-.55-2.19a.77.77 0 00-1.29-.12l-17.73 22.48c-8 3.72-16.45 7.64-24.38 11.33 2.31-8.67 10-18.85 7.7-27.18a1.507 1.507 0 00-2.35-.83c-5.46 3.99-5.62 12.1-8.49 19.25-1.37 7.8-2.19 11.27-10.96 15.21-18.28 8.86-21.06 8.42-34.91 13.09-.11-.49-.19-1.05-.24-1.68v-1.9c.28-3.42 1.65-5.12 3.58-6.37 4.27-2.78 5.57-.85 7.8-2.88 2.23-2.03-2.14-3.68-4.27-3.34-3.53.56-5.02 0-9.1 2.41-2.62 1.55-2.55 4.05-2.55 7.7 0 2.15.56 4.44 1.02 5.96l-.18.18c-8.62-3.81-26.15-13.07-35.5-17.87-2.53-3.61-2.63-8.15-3.84-12.31-3.15-7.49-2.78-16-9.33-19.66-6.13 6.51 4.54 20.74 6.18 28.43-8.08-4.09-8.24-4.46-13.76-7.25-.61-.31-1.07-.83-1.29-1.47-1.58-4.54-15.96-25.38-16.66-27.25-.77-2.06-5.96-6.19-7.11-5.78-1.15.42-.38 6.6 1.35 8.87 1.59 2.08 15.8 24.11 18.13 27.73-.78 1.4-1.96 2.34-4.56 1.99-6.45-.57-33.75-8.39-42.56-9.36-1.66-.18-2.92 1.69-1.95 3.04.17.23.39.41.69.52 5.8 1.28 35.83 9.16 43.14 10.55-1.53 2.37-15.34 8.14-10.6 10.46 1 .49 2.17.48 3.24.15 7.54-2.31 13.16-8.91 17.81-13.86 11.56 5.93 24.2 11.79 35.85 18.08-8.03 1.6-16.89 1.05-23.48 5.18-.9.56-.65 1.94.4 2.14 8.99 1.73 20-3.64 29.28-3.64.16 0 12.52 4.72 14.55 6.26-.48 32.85.45 43.62 0 51.08-8.58-6.14-29.71-7.93-27.94-21.18 7.22-2.35 12.13 8.19 17.9 11.53 9.19 1.62-4.72-11.74-6.22-14.58 2.46-2.18 12.61-5.71 8.54-9.8-8.68.61-12.48 9.29-22.34 8.72-7.39-16.1 8.74-9.73 19.5-19.72-3.13-6.59-17.92 4.02-23.59 4.5-.66-4.95-1.31-9.98-6.84-11.62-4.75 9.07 5.94 24.68 6.8 35.19-31.78-8.8-16.44-28.2-31.24-42.12-.76-.71-2.01-.31-2.26.7-2.2 9.05 6.2 19.91 8.62 29.23-4.79-2.8-10.8-4.25-14.3-7.58-4.8-9.15-7.25-25.89-14.48-32.58a.739.739 0 00-.88-.09c-7.68 4.87 8.98 21.59 8.78 29.99-5.95-1.03-38.75-26.4-39.05-18.7-.14 3.67 33.71 20.29 33.71 20.29l-13.8 1.42c-2.85.6-25.48 6.72-24.59 9.49.21.65.87 1.27 1.52 1.05 14.52-4.95 37.89-10.76 51.67-4.18-10.2 5.39-43.65 14.4-52.49 22.37-.73.66-.45 2.56.45 2.17 9.39-4.05 25.96-10.47 30.69-11.72 6.7-2.29 22.52-8.16 29.57-8.41 9.75 4.73 19.18 9.63 28.7 14.47-12.67.36-49.17-.95-55.56 1.9-1.08 4.75 17.25 2.61 24.51 3.55-3.16 2.68-7.8 4.76-8.79 9.1-.24 1.04.76 1.93 1.76 1.55 4.7-1.77 9.31-4.23 12.52-7.62 9.15-6.51 24.83-3.31 35.72-3.19 9.11 2.76 21.94 12.47 25.52 12.95 3.34-.24 45.86-33.84 48.25-7.05.13 1.98 1.99 4.42 5.79 4.51.94.02 1.67-.83 1.48-1.75l-2.11-10.13c6.72.62 29.32 12.24 37.45 11.13 1.45-.2 1.96-2.06.78-2.91-6.02-4.36-14.39-6.16-21.85-8.57 3.28-3.4 7.84-5.97 9.8-10.1.6-1.27-.57-2.66-1.91-2.26-16.88 5.03-7.06 15.49-33.18 4.6 34.4-18.87 38.92-6.03 72.21 6.95 1.18.5 2.57.56 3.87.75.46.07.92-.1 1.24-.43.62-.65.5-1.69-.24-2.2-10.37-7.2-32.95-13.93-43.95-20.37 10.74-8.45 30.16-.08 41 4.18 1.42.3 3.95 1.15 5.82.99 1.65-.14 2.07-2.39.64-3.23M31.68 197.83c-3.96-4.79-7.24-15.78-5.29-19.04.29-.48.69-.8 1.2-.8.7 0 1.23.53 1.62 1 3.28 3.99 17.07 23.74 17.66 24.58.55.67 0 1.66-.87 1.55h-.03c-.32-.03-9.06-.96-14.29-7.29m12.67-26.31c-.29-.05-7.27 1.26-13.42-3.77-2.49-2.03-10.4-9.84-9.84-18.57.03-.42-.21-.69 1.28-.69.14 0 .3 0 .46.03 2.5.27 7 2.22 14.26 10.02 4.25 4.57 8.12 9.84 8.46 11.51.18.89-.38 1.27-.55 1.37l-.3.16-.33-.05zm-.62-29.24l-.38.51-.62-.13c-.26-.05-7.57.67-13.1-4.62-2.27-2.17-8.36-10.4-8.67-17.97-.04-.78.96-1.14 1.84-1.14.22 0 .46.03.72.07 5.35 1.07 18.77 17.79 20.26 21.68.11.28.39 1.01-.05 1.6m-.02-27.71l-.39.82-.85-.32c-.23-.08-5.64-2.17-10.05-8.2-4.13-5.64-9.04-15.71-5.33-17.87.29-.17.64-.24.98-.24 1.47 0 4.24 1.61 9.12 9.28 2.84 4.47 7.85 13.67 6.52 16.52m-.04-35.27l-.36.61-.69-.14c-.33-.07-8.24-1.78-12.85-8-2.8-3.76-6.73-10.75-5.37-13.46.37-.74 1.07-1.15 1.97-1.15.38 0 .79.07 1.25.22 4.3 1.36 14.09 14.96 15.91 19.68.41 1.05.45 1.72.15 2.24m7.14 28.79c1.39-2.03 3.17-4.54 4.9-6.9 2.8-3.82 7.9-10.59 10.63-12.98.63-.56 1.22-.83 1.79-.83.69 0 1.27.41 1.6 1.12 1.32 2.89-1.2 12.05-5.3 16.77-5.47 6.28-14.3 7.45-14.67 7.49h-.81l-.24-.64c-.21-.55-.23-.62 2.11-4.04m-.63-30.29c1.28-3.83 12.17-18.08 16.13-19.8.59-.25 1.11-.38 1.58-.38.87 0 1.57.43 1.94 1.19 1.22 2.49-1.38 8.36-4.48 12.38-4.65 6.01-13.67 8.47-14.06 8.57l-.74.2-.37-.66c-.29-.51-.14-1.09 0-1.49m5.14 57.45c1.25-1.85 2.96-4.05 4.81-6.21 6.58-7.65 10.31-9.56 11.3-9.97.49-.2.89-.29 1.25-.29.63 0 1.14.31 1.39.84.38.83.28 2.29-3.04 7.23-1.84 2.74-4.4 6.12-6.7 8.82-4.23 4.98-8.07 5.52-9.52 5.52-.38 0-.61-.04-.65-.04l-.14-.03-.12-.06c-.49-.24-.77-.74-.75-1.34.02-.56.26-1.64 2.16-4.47m-3.31 33.97c.61-.81 7.33-15.58 19.31-22.07.6-.33 1.09-.51 1.54-.51.66 0 1.19.36 1.43.97 1.02 2.59-2.5 12.03-8.64 17.74-5.69 5.29-15.6 6.5-15.6 6.5l1.95-2.63zm-1.57 31.98s2.09-4.39 5.1-9.35c4.07-6.72 7.84-11.3 11.2-13.63.69-.48 1.27-.71 1.8-.71.62 0 1.51.25 1.43.87-.43 3.43.05 5.99-.97 8.69-1.35 3.61-3.07 7.59-5.01 10.4-3.79 5.47-9.07 5.27-11.29 5.27-.95 0-1.55-.15-1.61-.17a.985.985 0 01-.64-1.38m-5.18 99.05h4.31v-71.37c4.64-1.2 8.08-5.42 8.08-10.46 0-3.53-1.69-6.66-4.3-8.63 26.59-10.27 19.15-37.23 19.07-37.51l-.69-2.39-2.26 1.02c-13.3 5.98-18.74 16.4-20.92 24.85l.28-18 .71-.09c31.69-3.93 28.65-34.04 28.61-34.34l-.28-2.47-2.4.62c-16.78 4.35-23.67 16.74-26.47 25.28l.29-18.34.25-.03c31.69-3.93 28.65-34.04 28.61-34.34l-.28-2.47-2.4.62c-15.88 4.11-22.9 15.44-25.98 23.88l.27-16.93c31.15-7.01 25.18-36.68 25.12-36.98l-.52-2.43-2.33.85c-12.73 4.67-18.96 13.65-22 21.54l.27-16.76c25.31-6 25.6-27.14 24.92-34.38h.21l-.1-33.47h-4.31l.1 29.8c-11.39 4.48-17.39 12.47-20.53 19.81l.98-49.61h-4.31L46.2 73.76C44.1 65.2 38.47 53.2 23.47 47.3l-.1-29.8h-4.31l.1 33.47h.21c-.69 7.29-.4 28.7 25.45 34.51l1.2.27-.31 19.77c-2.49-8.55-8.53-19.6-23.15-24.96l-2.33-.85-.52 2.43c-.06.3-6.03 29.97 25.12 36.98l.67.15-.27 17.14c-3.01-8.47-10-20.07-26.12-24.25l-2.4-.62-.28 2.47c-.03.3-3.07 30.41 28.61 34.34l-.26 16.15c-3.23-8.34-10.3-19.07-25.67-23.06l-2.4-.62-.28 2.47c-.03.3-3.03 30.1 28.15 34.27l-.21 13.09c-2.91-7.24-8.52-14.95-19.25-19.78l-2.26-1.02-.69 2.39c-.08.28-7.41 26.89 18.59 37.31a10.815 10.815 0 00-4.57 8.84c0 5.41 3.97 9.89 9.13 10.68v71.15zm271.87-121.21c4.77-3.3-.09 9.62-5.12 16.87-5.03 7.25-10.84 5.72-10.84 5.72s8.13-17.17 15.96-22.59m-33.74 18.37c-5.03-6.08-8.42-21.78-5.12-17.77 3.29 4 17.61 24.52 17.61 24.52s-7.46-.66-12.48-6.75m10.94-26.85s-6.89-1.13-12.91-6.04c-6.01-4.91-13.96-15.55-8.89-15.01 8.24.88 23.04 20.36 21.79 21.05m-1.57-28.85s-6.1-1.27-11.49-6.42c-5.39-5.15-12.93-16.25-8.12-15.3 5.27 1.05 20.56 20.45 19.62 21.72m-.13-27.54s-5.32-2.01-9.6-7.86c-4.28-5.86-7.78-14.04-5.98-16.14 3.19-3.72 17.29 20.35 15.58 24m0-35.36s-7.81-1.63-12.26-7.62c-4.45-5.98-7.91-14.33-3.24-12.86 4.41 1.38 16.52 18.74 15.5 20.48m24.19 10.15c3.97-3.49 1.97 9.59-3.32 15.67-5.28 6.07-14.05 7.17-14.05 7.17-.41.05 12.64-18.68 17.37-22.83m-.28-30.06c4.43-1.93 2.37 5.86-2.13 11.68-4.49 5.82-13.53 8.22-13.53 8.22-.82-1.46 11.56-18.12 15.66-19.9m5.1 61.08c4.68-1.93-3.23 9.17-8.22 15.04-4.99 5.88-9.25 5.14-9.25 5.14-1.95-.94 11.37-17.68 17.47-20.19m0 28.03c4.34-2.53-.46 8.27-8.74 15.96-5.6 5.21-13.14 7.92-13.14 7.92s14.65-19.67 21.88-23.89m-22.25 29.66c31.69-3.93 28.65-34.04 28.62-34.34l-.28-2.47-2.4.62c-16.78 4.35-23.67 16.74-26.47 25.28l.29-18.34.25-.03c31.69-3.93 28.65-34.04 28.62-34.35l-.28-2.47-2.4.62c-15.88 4.11-22.91 15.44-25.99 23.88l.27-16.93c31.15-7.01 25.18-36.68 25.12-36.98l-.52-2.43-2.33.85c-12.73 4.67-18.96 13.65-22 21.54l.26-16.76c25.31-6 25.6-27.14 24.92-34.38h.21l-.1-33.47h-4.31l.1 29.8c-11.39 4.48-17.39 12.47-20.53 19.81l.98-49.61h-4.31l-1.08 56.26c-2.1-8.56-7.73-20.56-22.73-26.46l-.1-29.8h-4.31l.1 33.47h.21c-.69 7.29-.4 28.7 25.46 34.51l1.2.27-.31 19.77c-2.49-8.55-8.53-19.6-23.16-24.96l-2.33-.85-.52 2.43c-.06.3-6.03 29.97 25.12 36.98l.67.15-.27 17.14c-3.01-8.48-10-20.07-26.12-24.25l-2.4-.62-.28 2.47c-.04.31-3.07 30.41 28.61 34.34l-.25 16.15c-3.24-8.34-10.3-19.07-25.67-23.06l-2.4-.62-.28 2.47c-.04.3-3.03 30.1 28.15 34.27l-.21 13.09c-2.91-7.24-8.52-14.95-19.25-19.78l-2.26-1.02-.69 2.39c-.08.28-7.41 26.89 18.59 37.31a10.815 10.815 0 00-4.57 8.84c0 5.41 3.97 9.89 9.13 10.68v71.15h4.31v-71.37c4.64-1.2 8.08-5.42 8.08-10.46 0-3.53-1.69-6.66-4.29-8.63 26.59-10.27 19.15-37.23 19.07-37.51l-.69-2.39-2.26 1.02c-13.29 5.98-18.73 16.4-20.92 24.85l.28-18 .71-.09z"/></svg>