<?xml version="1.0" standalone="no"?>
<!DOCTYPE svg PUBLIC "-//W3C//DTD SVG 20010904//EN"
 "http://www.w3.org/TR/2001/REC-SVG-20010904/DTD/svg10.dtd">
<svg version="1.0" xmlns="http://www.w3.org/2000/svg"
 width="690.000000pt" height="362.000000pt" viewBox="0 0 690.000000 362.000000"
 preserveAspectRatio="xMidYMid meet">

<g transform="translate(0.000000,362.000000) scale(0.100000,-0.100000)"
fill="#000000" stroke="none">
<path d="M1031 3044 c-210 -45 -367 -196 -427 -409 -12 -43 -18 -117 -21 -257
l-5 -198 -184 0 -184 0 0 -170 0 -170 240 0 240 0 0 -560 0 -560 -55 0 -55 0
0 -85 0 -85 255 0 255 0 0 640 0 640 220 0 220 0 -2 173 -3 172 -222 3 -223 2
0 365 0 365 239 0 238 0 6 52 c4 29 3 56 -1 60 -14 14 -244 38 -355 37 -62 0
-141 -7 -176 -15z"/>
<path d="M4197 3014 c-4 -4 -7 -241 -7 -526 0 -285 -2 -518 -4 -518 -3 0 -31
25 -63 56 -138 133 -304 194 -525 194 -363 0 -626 -183 -739 -513 -37 -110
-59 -221 -66 -339 l-6 -98 171 0 172 0 0 -360 0 -360 474 0 474 0 44 59 c23
32 48 67 55 77 10 16 12 5 12 -58 l1 -78 85 0 85 0 0 1180 0 1180 171 0 170 0
-3 53 -3 52 -246 3 c-135 1 -248 -1 -252 -4z m-292 -1202 c112 -53 190 -147
240 -291 68 -193 53 -446 -35 -622 -85 -168 -252 -258 -426 -230 -165 26 -270
134 -336 341 -20 67 -23 94 -23 250 0 143 4 187 19 240 53 181 153 300 283
336 80 23 200 12 278 -24z"/>
<path d="M4930 2825 l0 -195 45 0 45 0 0 -1040 0 -1040 204 0 204 0 4 427 c4
401 6 433 26 506 47 169 141 291 260 338 69 27 223 33 286 10 48 -17 110 -71
142 -127 51 -87 56 -139 61 -666 l5 -488 249 0 249 0 0 85 0 85 -162 2 -163 3
-5 715 -5 715 -84 28 c-63 21 -112 30 -190 34 -245 13 -445 -60 -601 -219
l-70 -71 0 546 0 547 -250 0 -250 0 0 -195z"/>
<path d="M1880 2800 l0 -170 40 0 40 0 0 -55 0 -55 210 0 210 0 0 225 0 225
-250 0 -250 0 0 -170z"/>
<path d="M1958 1453 l-3 -728 -37 -3 -38 -3 0 -85 0 -84 250 0 250 0 0 815 0
815 -210 0 -210 0 -2 -727z"/>
</g>
</svg>
