<?xml version="1.0" encoding="utf-8"?>
<!-- Generator: Adobe Illustrator 28.2.0, SVG Export Plug-In . SVG Version: 6.00 Build 0)  -->
<svg version="1.1" id="Calque_1" xmlns="http://www.w3.org/2000/svg" xmlns:xlink="http://www.w3.org/1999/xlink" x="0px" y="0px"
	 viewBox="0 0 200 57" style="enable-background:new 0 0 200 57;" xml:space="preserve">
<style type="text/css">
	.st0{fill:#EEEDDF;}
</style>
<g id="Groupe_132" transform="translate(0 0)">
	<g>
		<g id="Groupe_131" transform="translate(0 0)">
			<path id="Tracé_725" class="st0" d="M20.8,53.5c1.1,0,1.2-0.2,1.2-1.5v-4.3c0-1.3-0.2-1.5-1.2-1.5v-0.3h3.5c1.8,0,2.8,1,2.8,2.2
				s-1,2.2-2.8,2.2h-1.2V52c0,1.3,0.2,1.5,1.2,1.5v0.3h-3.5V53.5z M24.3,49.9c1,0,1.7-0.8,1.7-1.8c0-0.9-0.8-1.6-1.7-1.7h-1.2v3.5
				H24.3z"/>
			<path id="Tracé_726" class="st0" d="M30.7,53.5c1.1,0,1.2-0.2,1.2-1.5v-4.3c0-1.3-0.2-1.5-1.2-1.5v-0.3h3.5c1.8,0,2.8,1,2.8,2.2
				c0,1.2-1.1,2.2-2.3,2.2l1.3,1.5c0.6,0.8,1.5,1.4,2.4,1.7v0.3h-2.2l-2.6-3.5H33V52c0,1.3,0.2,1.5,1.2,1.5v0.3h-3.5V53.5z
				 M34.1,49.9c1,0,1.7-0.8,1.7-1.8c0-0.9-0.8-1.6-1.7-1.7H33v3.5H34.1z"/>
			<path id="Tracé_727" class="st0" d="M40.5,53.5c1.1,0,1.2-0.2,1.6-1.1l2.9-6.7h0.2l2.9,6.7c0.4,0.9,0.5,1.1,1.6,1.1v0.3h-3.6
				v-0.3c1.1,0,1.3-0.3,1-1l-0.6-1.5h-3.2l-0.6,1.5c-0.3,0.7-0.1,1,1,1v0.3h-3.1V53.5z M46.1,50.6l-1.4-3.2l-1.4,3.2H46.1z"/>
			<path id="Tracé_728" class="st0" d="M54.9,56.6c0.3-0.1,1.1-0.3,1.1-1c0-0.4-0.7-0.6-1.3-0.4V55l1.1-1.1
				c-2.3-0.4-3.8-2.6-3.4-4.8c0.3-1.9,2-3.4,4-3.4c0.9,0,1.8,0.4,2.4,1.1c0.2-0.2,0.4-0.5,0.4-0.8h0.3v2.9h-0.3
				c-0.4-1.7-1.4-2.7-2.8-2.7c-2.1,0-2.9,2-2.9,3.7s0.8,3.6,2.9,3.6c1.5,0,2.5-1.1,2.8-2.7h0.3v2.9h-0.3c-0.1-0.3-0.2-0.6-0.4-0.7
				c-0.6,0.7-1.5,1.1-2.4,1.1h0l-0.6,0.6c0.6,0,1.1,0.4,1.1,1c0,1-1.5,1.3-1.9,1.4L54.9,56.6z"/>
			<path id="Tracé_729" class="st0" d="M62.6,53.5c1.1,0,1.2-0.2,1.6-1.1l2.9-6.7h0.2l2.9,6.7c0.4,0.9,0.5,1.1,1.6,1.1v0.3h-3.6
				v-0.3c1.1,0,1.3-0.3,1-1l-0.6-1.5h-3.2l-0.6,1.5c-0.3,0.7-0.1,1,1,1v0.3h-3.1V53.5z M68.2,50.6l-1.4-3.2l-1.4,3.2H68.2z"/>
			<path id="Tracé_730" class="st0" d="M80,53.5c1.1,0,1.2-0.2,1.2-1.5v-4.3c0-1.3-0.2-1.5-1.2-1.5v-0.3h3.6c3.1,0,4.4,1.8,4.4,3.9
				s-1.3,3.9-4.4,3.9H80V53.5z M83.6,53.3c2.6,0,3.1-1.9,3.1-3.5s-0.6-3.5-3.1-3.5h-1.3v5.4C82.3,53.1,82.5,53.3,83.6,53.3
				L83.6,53.3z"/>
			<path id="Tracé_731" class="st0" d="M90.5,53.5c1.1,0,1.2-0.2,1.6-1.1l2.9-6.7h0.2l2.9,6.7c0.4,0.9,0.5,1.1,1.6,1.1v0.3H96v-0.3
				c1.1,0,1.3-0.3,1-1l-0.6-1.5h-3.2l-0.6,1.5c-0.3,0.7-0.1,1,1,1v0.3h-3.1V53.5z M96.1,50.6l-1.4-3.2l-1.4,3.2H96.1z"/>
			<path id="Tracé_732" class="st0" d="M102.8,51.1h0.3c0,1.3,1,2.4,2.3,2.4c0,0,0.1,0,0.1,0c0.8,0.1,1.6-0.5,1.6-1.4
				c0,0,0,0,0-0.1c0-0.6-0.6-1.1-1.5-1.6l-1.3-0.6c-0.9-0.4-1.4-1.2-1.5-2.2c0-1.1,1-2,2.1-2c0,0,0.1,0,0.1,0c0.6,0,1.1,0.2,1.6,0.5
				c0.2-0.2,0.3-0.4,0.4-0.6h0.3v2.9H107c-0.1-1.1-0.5-2.3-2-2.3c-0.7,0-1.2,0.5-1.3,1.1c0,0,0,0,0,0c0,0.7,0.5,1,1.6,1.6l1.2,0.6
				c0.8,0.3,1.4,1.1,1.4,2c0,1.3-1.1,2.4-2.4,2.4c0,0-0.1,0-0.1,0c-0.7-0.1-1.4-0.3-2.1-0.6c-0.2,0.2-0.3,0.4-0.4,0.6h-0.3V51.1z"/>
			<path id="Tracé_733" class="st0" d="M117.5,53.5c1.1,0,1.2-0.2,1.2-1.5v-4.3c0-1.3-0.2-1.5-1.2-1.5v-0.3h6.2l0.1,1.7h-0.3
				l-0.1-0.3c-0.2-0.7-0.3-1-1.5-1h-2.2v3h0.7c1.3,0,1.5-0.2,1.5-1.3h0.3v3H122c0-1.1-0.2-1.3-1.5-1.3h-0.7V52
				c0,1.3,0.2,1.5,1.2,1.5v0.3h-3.5L117.5,53.5z"/>
			<path id="Tracé_734" class="st0" d="M127.4,53.5c1.1,0,1.2-0.2,1.2-1.5v-4.3c0-1.3-0.2-1.5-1.2-1.5v-0.3h3.5v0.3
				c-1.1,0-1.2,0.2-1.2,1.5v4.1c0,1.3,0.2,1.5,1.2,1.5h1.6c1.2,0,1.3-0.3,1.5-1l0.1-0.3h0.3l-0.1,1.7h-6.9L127.4,53.5z"/>
			<path id="Tracé_735" class="st0" d="M137.4,49.9c-0.1-2.4,1.7-4.5,4.2-4.6c2.4-0.1,4.5,1.7,4.6,4.2c0.1,2.4-1.7,4.5-4.2,4.6
				c-0.1,0-0.1,0-0.2,0C139.5,54.1,137.5,52.2,137.4,49.9 M145,49.9c0-1.6-0.9-3.7-3.1-3.7s-3.1,2-3.1,3.7s0.9,3.6,3.1,3.6
				S145,51.5,145,49.9"/>
			<path id="Tracé_736" class="st0" d="M149.9,53.5c1.1,0,1.2-0.2,1.2-1.5v-4.3c0-1.3-0.2-1.5-1.2-1.5v-0.3h3.5
				c1.8,0,2.8,1,2.8,2.2c0,1.3-1.1,2.2-2.3,2.2l1.3,1.5c0.6,0.8,1.5,1.4,2.4,1.7v0.3h-2.2l-2.6-3.5h-0.6V52c0,1.3,0.2,1.5,1.2,1.5
				v0.3h-3.5L149.9,53.5z M153.4,49.9c1,0,1.7-0.8,1.7-1.8c0-0.9-0.8-1.6-1.7-1.7h-1.2v3.5H153.4z"/>
			<path id="Tracé_737" class="st0" d="M160.7,53.5c1.1,0,1.2-0.2,1.2-1.5v-4.3c0-1.3-0.2-1.5-1.2-1.5v-0.3h6l0.1,1.7h-0.3
				l-0.1-0.3c-0.2-0.7-0.3-1-1.5-1H163v3h0.7c1.3,0,1.5-0.2,1.5-1.3h0.3v3h-0.3c0-1.1-0.2-1.3-1.5-1.3H163v1.9
				c0,1.3,0.2,1.5,1.2,1.5h1.1c1.2,0,1.4-0.3,1.5-1L167,52h0.3l-0.1,1.7h-6.4L160.7,53.5z"/>
			<path id="Tracé_738" class="st0" d="M171.4,51.1h0.3c0,1.3,1,2.4,2.3,2.4c0,0,0.1,0,0.1,0c0.8,0.1,1.6-0.5,1.6-1.4
				c0,0,0,0,0-0.1c0-0.6-0.6-1.1-1.5-1.6l-1.3-0.6c-0.9-0.4-1.4-1.2-1.5-2.2c0-1.1,1-2,2.1-2c0,0,0.1,0,0.1,0c0.6,0,1.1,0.2,1.6,0.5
				c0.2-0.2,0.3-0.4,0.4-0.6h0.3v2.9h-0.3c-0.1-1.1-0.5-2.3-2-2.3c-0.7,0-1.2,0.5-1.3,1.1c0,0,0,0,0,0c0,0.7,0.5,1,1.6,1.6l1.2,0.6
				c0.8,0.3,1.4,1.1,1.4,2c0,1.3-1.1,2.4-2.4,2.4c0,0-0.1,0-0.1,0c-0.7-0.1-1.4-0.3-2.1-0.6c-0.2,0.2-0.3,0.4-0.4,0.6h-0.3
				L171.4,51.1z"/>
			<path id="Tracé_739" class="st0" d="M19,0.1c0.1,0.1,0.2,0.3,0.1,0.4C19.1,0.6,19,0.8,18.9,1c-0.1,0.1-0.1,0.3-0.2,0.4
				c-0.1,0.1-0.1,0.2-0.1,0.2c0,0.1,0,0.1-0.1,0.2c-0.2,0.5-0.4,1-0.6,1.5c-0.1,0.3-0.3,0.6-0.5,0.8c-0.3,0.4-0.7,0.7-1.2,0.8
				c-0.5,0.2-1,0.3-1.5,0.3c-0.5,0-0.9,0-1.4-0.1c-0.6-0.1-1.2-0.3-1.8-0.5C11,4.4,10.3,4.2,9.6,4c-0.5-0.1-1-0.2-1.5-0.2
				c-0.2,0-0.4,0-0.5,0C7.4,3.9,7.2,4,7.1,4C6.9,4.1,6.8,4.2,6.6,4.3C6.4,4.5,6.1,4.6,5.9,4.8v0c0,0,0,0-0.1,0c0,0,0,0-0.1,0
				C5.7,4.9,5.7,5,5.6,5C5.5,5.1,5.4,5.2,5.3,5.2C5.2,5.3,5,5.3,4.9,5.2c0,0,0,0,0,0C4.8,5.1,4.7,4.9,4.8,4.8c0-0.1,0.1-0.2,0.1-0.3
				C5,4.4,5,4.3,5.1,4.2C5.3,3.6,5.5,3,5.8,2.4C5.9,2,6.2,1.6,6.5,1.3C6.7,1,7.1,0.8,7.4,0.7c0.4-0.1,0.8-0.2,1.3-0.2h0.4
				c0.1,0,0.2,0,0.3,0c0.1,0,0.3,0.1,0.5,0.1c0.2,0.1,0.4,0.1,0.8,0.2L11.1,1h0l0.6,0.2l0.6,0.1L13,1.5l0.6,0.2
				c0.5,0.2,1,0.3,1.6,0.3c0.5,0,0.9-0.2,1.3-0.4c0.7-0.4,1.4-0.9,2.1-1.5C18.7,0,18.9,0,19,0.1"/>
			<path id="Tracé_740" class="st0" d="M78.4,9.9c-0.4,1.5-0.6,3.1-0.6,4.7v15.7c0.1,1.6,0.3,3.1,0.6,4.7v0.1
				c0,0.3-0.3,0.6-0.6,0.6c-0.9-0.1-1.7-0.2-2.6-0.2c-0.9,0-1.7,0-2.6,0.2c-0.3,0-0.6-0.3-0.6-0.6c0-0.1,0-0.1,0-0.2
				c0.5-1.4,0.7-3,0.6-4.5V14.6c-0.1-1.6-0.3-3.1-0.6-4.7c0,0,0-0.1,0-0.1c0-0.3,0.3-0.6,0.6-0.6h0.1c0.8,0.1,1.6,0.1,2.5,0.1
				s1.7,0,2.5-0.1l0.1,0h0.1c0.3,0,0.5,0.3,0.5,0.6c0,0,0,0,0,0L78.4,9.9z"/>
			<path id="Tracé_741" class="st0" d="M109.3,28c0,4.3-4.3,7.9-9.8,7.9c-2.6,0-5.6-0.7-9.2-3.3c-0.6-0.5-1.3-0.9-2-1.3
				c-0.1,0-0.1-0.1-0.2-0.1c-0.1-0.1-0.2-0.2-0.2-0.4c0-0.1,0.1-0.3,0.2-0.4c1.5-1,2.9-2.3,3.9-3.8v0c0.1-0.1,0.3-0.2,0.4-0.2
				c0.1,0,0.3,0.1,0.4,0.2c0.1,0.1,0.2,0.2,0.2,0.4c0,0.7,0.4,1.4,0.9,2c1.4,1.5,3.4,2.4,5.5,2.4h0.1c2,0,4.3-0.9,4.3-2.7
				c0-4.2-14.4-3.9-14.4-11.7c0-5,4.7-7.7,9.5-7.7c2.8,0.1,5.6,1.1,7.8,2.9c0.6,0.4,1.2,0.6,1.9,0.7c0.1,0,0.2,0.1,0.3,0.2
				c0.1,0.1,0.2,0.2,0.2,0.4c0,0.2-0.1,0.3-0.2,0.4c-1.2,1-2.3,2.2-3.1,3.5l-0.2,0.3c-0.1,0.1-0.3,0.2-0.5,0.2
				c-0.3,0-0.5-0.3-0.6-0.6c0-0.9-0.5-1.8-1.2-2.3c-1.2-0.9-2.7-1.4-4.3-1.4c-1.4,0-4.2,0.8-4.2,2.8C94.9,20.2,109.3,20.3,109.3,28"
				/>
			<path id="Tracé_742" class="st0" d="M118.3,9.9c0-0.4,0.3-0.6,0.6-0.6h0c3.2,0.2,6.4,0.3,9.6,0.3c3.1,0,6.1-0.1,9.1-0.3l0.2,0
				c0.3,0,0.5,0.3,0.5,0.6c0,0,0,0,0,0c-0.1,0.9-0.1,1.8-0.1,2.7c0,0.8,0,1.6,0.1,2.5v0c0,0.3-0.3,0.6-0.6,0.6c0,0,0,0,0,0
				c-0.5,0-1-1.2-2.7-1.2h-3.5c-0.4,0-0.7,0.3-0.8,0.7c0,0,0,0,0,0v15.2c0,1.6,0.2,3.1,0.6,4.6v0.1c0,0.3-0.3,0.6-0.6,0.6
				c0,0,0,0,0,0c-0.8-0.1-1.7-0.2-2.5-0.2c-0.9,0-1.7,0-2.6,0.2c-0.3,0-0.6-0.3-0.6-0.6c0-0.1,0-0.1,0-0.2c0.4-1.5,0.6-3,0.6-4.5
				V15.1c0-0.4-0.3-0.7-0.7-0.8c0,0,0,0,0,0h-3.5c-1.9,0-2,1.2-2.7,1.2c-0.3,0-0.6-0.3-0.6-0.6l0.1-0.6c0-0.6,0.1-1.3,0.1-1.9
				C118.5,11.6,118.4,10.8,118.3,9.9L118.3,9.9z"/>
			<path id="Tracé_743" class="st0" d="M200,22.4c0,7.3-4.3,13.2-11.2,13.2s-11.3-5.9-11.3-13.2c0-7.3,4.3-13.2,11.3-13.2
				S200,15.2,200,22.4 M194.8,22.4c0-4.5-1.9-8.1-6-8.1c-4.1,0-6,3.6-6,8.1s1.9,8.1,6,8.1C192.8,30.6,194.8,26.9,194.8,22.4"/>
			<path id="Tracé_744" class="st0" d="M22.7,22.4c0,7.3-4.3,13.2-11.2,13.2S0.3,29.8,0.3,22.4c0-7.3,4.3-13.2,11.3-13.2
				S22.7,15.2,22.7,22.4 M17.5,22.4c0-4.5-1.9-8.1-6-8.1c-4.1,0-6,3.6-6,8.1s1.9,8.1,6,8.1C15.6,30.6,17.5,26.9,17.5,22.4"/>
			<path id="Tracé_745" class="st0" d="M59.3,21.6c-0.1,0-0.2-0.1-0.2-0.2c0-0.1,0-0.2,0.1-0.2c1.4-1.3,2.2-3.1,2.2-5
				c0.1-1.9-0.7-3.8-2.1-5.2c-1.4-1.2-3.2-1.9-5.1-1.8h-2.3c-2.1,0-4.2,0.1-6.3,0.2c-1.1,0-2.1,0-3.2-0.2h-0.1
				c-0.3,0-0.6,0.3-0.6,0.6c0,0,0,0.1,0,0.1c0.4,1.5,0.6,3,0.6,4.6v6.1c1.6-0.3,3.4-0.6,5.1-1v0v-4.8c0-0.3,0.3-0.6,0.6-0.6h5.3
				c2,0,2.7,0.9,2.7,2.1c0,0.8-0.3,1.6-1,2.1c-1.3,1.2-5.3,2.2-6.1,2.3c-1.9,0.4-4.6,0.9-6.5,1.2v8.6c0,1-0.1,2-0.2,3
				c-0.1,0.5-0.2,0.9-0.4,1.3c0,0.1,0,0.1,0,0.2c0,0.2,0.1,0.3,0.2,0.4c0.1,0,0.1,0.1,0.2,0.1c0,0,0.1,0,0.2,0h0.1
				c0.8-0.1,1.7-0.2,2.5-0.2c0.4,0,0.8,0,1.3,0c1,0.1,3.2,0.1,4.3,0.1H54c4.7,0,8.6-3.2,8.6-8.3C62.6,25,61.3,22.8,59.3,21.6
				 M56.5,29.6c-0.7,0.6-1.6,1-2.5,1h-6c-0.3,0-0.6-0.3-0.6-0.6v-4c0-0.3,0.2-0.5,0.5-0.6c2.1-0.1,4.2-0.6,6.2-1.4
				c0.1,0,0.3-0.1,0.4-0.1c0.1,0,0.2,0,0.3,0c1.5,0.3,2.6,1.5,2.7,3C57.5,28,57.2,28.9,56.5,29.6"/>
			<path id="Tracé_746" class="st0" d="M164.5,24.5c-1.2,0.8-2.4,1.5-3.6,2.2c0.8,1.5,1.2,3.2,1.1,4.9c0,0.9-0.1,1.8-0.2,2.7v0.2
				c0,0.6,0.5,1.1,1.1,1.1c0,0,0,0,0,0h4.9c0.6,0,1-0.4,1-1c0,0,0,0,0,0v-0.1C168.3,30.9,166.8,27.4,164.5,24.5"/>
			<path id="Tracé_747" class="st0" d="M154.2,28.6c0-0.2,0.1-0.4,0.4-0.5c0.7-0.3,2.2-0.8,3.8-1.5c0,0,0,0,0.1,0
				c0.2-0.1,0.4-0.2,0.6-0.2c0.2-0.1,0.4-0.2,0.7-0.3c1.7-0.8,3.2-1.8,4.7-3h0c2.3-1.8,4-4.1,4-6.7c0.1-2-0.7-3.9-2.1-5.2
				c-1.4-1.2-3.2-1.9-5-1.8h-4.3c-0.7,0-3.3,0.1-5.4,0.1c-1,0-1.9,0-2.3-0.1h-0.1c-0.3,0-0.6,0.3-0.6,0.6v0.1c0.4,1.5,0.6,3,0.6,4.6
				V23c1.7-0.5,3.4-1,5.1-1.7c0,0,0,0,0,0v-6.4c0-0.3,0.2-0.6,0.5-0.6c0,0,0,0,0,0h4.8c2.8,0,3.4,0.9,3.4,2.1c0,2.5-4.7,4.9-7.4,6.1
				c0,0,0,0,0,0c-2.1,0.9-4.2,1.6-6.4,2.2v5.8c0.1,1.5-0.1,3-0.6,4.5c0,0.1,0,0.1,0,0.2c0,0.2,0.1,0.3,0.2,0.4
				c0.1,0.1,0.3,0.1,0.4,0.2c0.8-0.1,1.7-0.2,2.6-0.2c0.8,0,1.7,0.1,2.5,0.2c0.2,0,0.3-0.1,0.4-0.2c0.1-0.1,0.2-0.3,0.2-0.4V35
				c-0.3-1.5-0.5-3.1-0.6-4.7L154.2,28.6z"/>
			<rect id="Rectangle_123" y="50.2" class="st0" width="18.5" height="0.5"/>
			<rect id="Rectangle_124" x="181.4" y="50.2" class="st0" width="18.5" height="0.5"/>
		</g>
	</g>
</g>
</svg>
