<?xml version="1.0" encoding="utf-8"?>
<!-- Generator: Adobe Illustrator 20.0.0, SVG Export Plug-In . SVG Version: 6.00 Build 0)  -->
<svg version="1.1" id="Calque_1" xmlns="http://www.w3.org/2000/svg" xmlns:xlink="http://www.w3.org/1999/xlink" x="0px" y="0px"
	 viewBox="0 0 866.3 179.5" style="enable-background:new 0 0 866.3 179.5;" xml:space="preserve">
<style type="text/css">
	.st0{fill:#232323;}
	.st1{clip-path:url(#SVGID_2_);fill:#257D73;}
	.st2{clip-path:url(#SVGID_2_);}
	.st3{fill:none;stroke:#25656E;stroke-width:3;stroke-miterlimit:10;}
</style>
<g>
	<g>
		<path class="st0" d="M148.7,48.1v18h18v27h21v-27h20v-18H148.7z M166.7,143.1h21v-45h-21V143.1z"/>
	</g>
	<path class="st0" d="M430.4,98.1L430.4,98.1L411,98.1l0-0.1l2.3,9.1h-18.8l2.2-9h-16.5l-13.6,45h19.2l4.7-19h26.8l4.7,19h21.3
		L430.4,98.1z M403.7,68.7l6,24.5h19.2l-12.7-45h-21l-13.4,45h16.2L403.7,68.7z"/>
	<path class="st0" d="M342.8,101.7c1.9-1,3.6-1.6,5.1-3.6h-55.2v45h22v-37h10.2l12.7,37h22.7L342.8,101.7z M356.1,77.3
		c0-5-0.9-9.4-2.7-13.5c-1.8-4-4.2-7.2-7.4-9.5c-3.1-2.3-6.3-4.3-9.3-4.8c-3.1-0.5-7.5-1.3-13.3-1.3h-30.7v45h59.5
		C354.8,89.1,356.1,83.7,356.1,77.3z M323.6,91.1h-8.9v-27h8.1c3.1,0,5.5,0.6,7,1.3c1.6,0.7,3,2.2,4.2,4.2c1.2,2,1.8,4.6,1.8,7.8
		C335.8,86.5,331.8,91.1,323.6,91.1z"/>
	<path class="st0" d="M273,114.9c-4.7,4.7-11.2,7.2-18.4,7.2c-13.5,0-24.7-9.9-26-23.9h-21.4c1.4,25,22,45.3,47.4,45.3
		c12.7,0,24.3-4.8,32.8-12.9L273,114.9z M254.6,70c6.7,0,12.8,2.7,17.4,6.8L286.3,61c-8.4-7.6-19.5-12.4-31.7-12.4
		c-25.3,0-46,19.5-47.4,44.5h21.4C229.9,80.1,241.1,70,254.6,70z"/>
	<path class="st0" d="M150.2,96.6c0,0.8,0,1.6-0.1,2.4c0,0,0,0.1,0,0.1c-1.3,25.1-22.1,45.1-47.5,45.1c-25.4,0-46.2-20.4-47.5-45.5
		c0,0,0-0.6,0-0.6h49.7V49c0,0,0.4,0,0.4,0c24,1.4,43.4,20.5,44.9,44.5c0,0.1,0.1,0.1,0.1,0.2C150.1,94.7,150.2,95.6,150.2,96.6z"/>
	<g>
		<g>
			<path class="st0" d="M480.6,62.1c0,6.5-3.2,11.5-11.5,11.5c-8.5,0-11.4-4.6-11.5-11.5c0-7.5,4.2-11.4,11.5-11.5
				C477.1,50.7,480.6,54.6,480.6,62.1z M469.1,72.3c1.3,0,9.4,0,9.4-10.2c0-10.3-8.2-10.1-9.5-10.1c-1.5,0-9.1,0.1-9.1,10.1
				C459.9,72.6,467.6,72.3,469.1,72.3z"/>
			<path class="st0" d="M485.9,48.7v12.6c0.3-1.7,2.7-4.5,5.9-4.5c3.1,0,5.4,1.9,5.4,7.9c0,6.1-2.3,8.8-7.5,8.8
				c-2.1,0-4-0.6-5.9-1.2V49.9c-0.7-0.1-1.7-0.4-2.4-0.6v-0.7H485.9z M485.9,71.1c1.3,0.6,2.9,1,4.3,1c4.3,0,4.9-4.2,4.9-7.5
				c0-3.1-0.5-6.5-3.3-6.5c-3.9,0-5.8,5.4-5.8,7.6V71.1z"/>
			<path class="st0" d="M509.7,59.1c-1.6-0.6-3.3-1-4.5-1c-1.7,0-3.3,0.4-3.3,2.8c0,2,1.3,2.4,3.6,2.9c4.4,1,6.5,2.3,6.5,4.8
				c0,3.1-2.4,4.8-6.2,4.8c-3.1,0-5.5-1.1-6.3-1.6c0-0.2,0.1-0.2,0.2-3.5h0.6l0.6,2.2c1.5,0.7,3.3,1.4,4.9,1.4
				c2.2,0,4.1-0.6,4.1-3.2c0-1.9-2.8-2.8-5.8-3.4c-2.9-0.6-4.4-2.3-4.4-4.4c0-1.3,0.8-4.1,5.4-4.1c2.9,0,5.1,1,5.9,1.3
				c-0.1,1.1,0,2.1-0.1,3.2h-0.7L509.7,59.1z"/>
			<path class="st0" d="M526,69.8l1.3,1.1c-1.9,2.2-4.1,2.7-6,2.7c-5.5,0-7.1-3.1-7.2-8.1c0-5.5,2.2-8.7,7.2-8.7
				c4.2,0,6.3,2.6,6.3,8.2l-11.5,0c0,4.3,0.3,7.3,5.2,7.3C523.7,72.3,525.3,70.7,526,69.8z M525.7,63.6c-0.1-3-1.3-5.5-4.5-5.5
				c-3.6,0-4.9,2.7-4.9,5.5L525.7,63.6z"/>
			<path class="st0" d="M528.7,57.8v-0.6h4l0.8,3.3c0.5-2.7,2.5-3.8,4.1-3.8c1.2,0,2,0.2,2.5,0.4l-0.2,3.7h-0.7l-0.6-2.4
				c-0.5-0.1-1-0.1-1-0.1c-1.9,0-4.4,0.4-4.4,7.1v6.5c1.6,0.3,2,0.4,2.3,0.5V73h-6.7v-0.6l2.3-0.5V58.4L528.7,57.8z"/>
			<path class="st0" d="M539.6,57.9v-0.7h6.9v0.6l-2.5,0.6l4.8,13.5l4.7-13.5l-2.1-0.6v-0.7h6.5v0.6l-2.3,0.5L549.8,73h-2.4
				l-5.5-14.7L539.6,57.9z"/>
			<path class="st0" d="M567.5,71.1c-1,0.9-2.7,2.1-5,2.1c-2.9,0-4.5-1.7-4.5-4.8c0-2.5,1.1-4.7,5-4.7c3.2,0,3.8,0,4.7-0.8
				c0-4.4-0.9-4.8-3.6-4.8c-1.3,0-2.5,0.2-3.6,0.5c-0.1,0.6-0.3,1.4-0.5,2.4h-0.7c-0.1-1.2-0.1-2.2-0.2-3.3c1.4-0.7,3.2-1,5.2-1
				c2.9,0,5.4,1.2,5.4,6.2v8.9l2.5,0.6V73h-3.6L567.5,71.1z M567.6,64.6c-1.9,0.5-3,0.5-4.4,0.5c-1.4,0-3.3,0-3.3,3.4
				c0,2.4,1.6,3.4,3.4,3.4c1.3,0,2.9-0.6,4.2-1.9L567.6,64.6z"/>
			<path class="st0" d="M575,57.2c0.2-1.5,0.4-3.2,0.6-4.7h1.4v4.7h4.1v1.3h-4.1v10.3c0,2.7,0.2,3.1,1.8,3.1c0.9,0,1.7-0.3,2.2-0.5
				V73c-0.6,0.2-1.8,0.4-3,0.4c-2,0-3-0.6-3-3.6V58.5H572v-1.3H575z"/>
			<path class="st0" d="M598.7,65c0,5.5-1.7,8.5-7.3,8.5c-5.6,0-7.6-4-7.6-8.5c0-5.3,1.9-8.3,7.3-8.3
				C596.9,56.7,598.7,60.5,598.7,65z M591.4,72.1c1.8,0,4.9,0,4.9-7.1c0-6.9-3.1-6.9-5.2-6.9c-2.2,0-5.1-0.1-5.1,6.9
				C586,71.7,589.1,72.1,591.4,72.1z"/>
			<path class="st0" d="M599.8,57.8v-0.6h4.5v14.6l2.5,0.6V73h-7v-0.6l2.5-0.6V58.4L599.8,57.8z M601.7,51.3v-2.6h2.6v2.6H601.7z"/>
			<path class="st0" d="M606.5,57.8v-0.6h4l0.8,3.3c0.5-2.7,2.5-3.8,4.1-3.8c1.2,0,2,0.2,2.5,0.4l-0.2,3.7H617l-0.6-2.4
				c-0.5-0.1-1-0.1-1-0.1c-1.9,0-4.4,0.4-4.4,7.1v6.5c1.6,0.3,2,0.4,2.3,0.5V73h-6.7v-0.6l2.3-0.5V58.4L606.5,57.8z"/>
			<path class="st0" d="M630.7,69.8l1.3,1.1c-1.9,2.2-4.1,2.7-6,2.7c-5.5,0-7.1-3.1-7.2-8.1c0-5.5,2.2-8.7,7.2-8.7
				c4.2,0,6.3,2.6,6.3,8.2l-11.5,0c0,4.3,0.3,7.3,5.2,7.3C628.5,72.3,630.1,70.7,630.7,69.8z M630.5,63.6c-0.1-3-1.3-5.5-4.5-5.5
				c-3.6,0-4.9,2.7-4.9,5.5L630.5,63.6z"/>
			<path class="st0" d="M659.4,52.4h-6.7v19.4l2.4,0.6V73h-6.8v-0.6l2.4-0.6V52.4h-6.9l-0.6,2.4h-0.6l-0.3-3.7h18.7l-0.3,3.7h-0.6
				L659.4,52.4z"/>
			<path class="st0" d="M670.7,69.8l1.3,1.1c-1.9,2.2-4.1,2.7-6,2.7c-5.5,0-7.1-3.1-7.2-8.1c0-5.5,2.2-8.7,7.2-8.7
				c4.2,0,6.3,2.6,6.3,8.2l-11.5,0c0,4.3,0.3,7.3,5.2,7.3C668.5,72.3,670,70.7,670.7,69.8z M670.5,63.6c-0.1-3-1.3-5.5-4.5-5.5
				c-3.6,0-4.9,2.7-4.9,5.5L670.5,63.6z"/>
			<path class="st0" d="M673.4,57.8v-0.6h4l0.8,3.3c0.5-2.7,2.5-3.8,4.1-3.8c1.2,0,2,0.2,2.5,0.4l-0.2,3.7h-0.7l-0.6-2.4
				c-0.5-0.1-1-0.1-1-0.1c-1.9,0-4.4,0.4-4.4,7.1v6.5c1.6,0.3,2,0.4,2.3,0.5V73h-6.7v-0.6l2.3-0.5V58.4L673.4,57.8z"/>
			<path class="st0" d="M684.9,57.8v-0.6h4l0.8,3.3c0.5-2.7,2.5-3.8,4.1-3.8c1.2,0,2,0.2,2.5,0.4l-0.2,3.7h-0.7l-0.6-2.4
				c-0.5-0.1-1-0.1-1-0.1c-1.9,0-4.4,0.4-4.4,7.1v6.5c1.6,0.3,2,0.4,2.3,0.5V73H685v-0.6l2.3-0.5V58.4L684.9,57.8z"/>
			<path class="st0" d="M696.5,57.8v-0.6h4.5v14.6l2.5,0.6V73h-7v-0.6l2.5-0.6V58.4L696.5,57.8z M698.4,51.3v-2.6h2.6v2.6H698.4z"/>
			<path class="st0" d="M706.4,57.2c0.2-1.5,0.4-3.2,0.6-4.7h1.4v4.7h4.1v1.3h-4.1v10.3c0,2.7,0.2,3.1,1.8,3.1
				c0.9,0,1.7-0.3,2.2-0.5V73c-0.6,0.2-1.8,0.4-3,0.4c-2,0-3-0.6-3-3.6V58.5h-3.1v-1.3H706.4z"/>
			<path class="st0" d="M730.1,65c0,5.5-1.7,8.5-7.3,8.5c-5.6,0-7.6-4-7.6-8.5c0-5.3,1.9-8.3,7.3-8.3
				C728.3,56.7,730.1,60.5,730.1,65z M722.8,72.1c1.8,0,4.9,0,4.9-7.1c0-6.9-3.1-6.9-5.2-6.9c-2.2,0-5.1-0.1-5.1,6.9
				C717.4,71.7,720.5,72.1,722.8,72.1z"/>
			<path class="st0" d="M731,57.8v-0.6h4l0.8,3.3c0.5-2.7,2.5-3.8,4.1-3.8c1.2,0,2,0.2,2.5,0.4l-0.2,3.7h-0.7l-0.6-2.4
				c-0.5-0.1-1-0.1-1-0.1c-1.9,0-4.4,0.4-4.4,7.1v6.5c1.6,0.3,2,0.4,2.3,0.5V73h-6.7v-0.6l2.3-0.5V58.4L731,57.8z"/>
			<path class="st0" d="M742.6,57.8v-0.6h4.5v14.6l2.5,0.6V73h-7v-0.6l2.5-0.6V58.4L742.6,57.8z M744.5,51.3v-2.6h2.6v2.6H744.5z"/>
			<path class="st0" d="M760.1,71.1c-1,0.9-2.7,2.1-5,2.1c-2.9,0-4.5-1.7-4.5-4.8c0-2.5,1.1-4.7,5-4.7c3.2,0,3.8,0,4.7-0.8
				c0-4.4-0.9-4.8-3.6-4.8c-1.3,0-2.5,0.2-3.6,0.5c-0.1,0.6-0.3,1.4-0.5,2.4h-0.7c-0.1-1.2-0.1-2.2-0.2-3.3c1.4-0.7,3.2-1,5.2-1
				c2.9,0,5.4,1.2,5.4,6.2v8.9l2.5,0.6V73H761L760.1,71.1z M760.3,64.6c-1.9,0.5-3,0.5-4.4,0.5c-1.4,0-3.3,0-3.3,3.4
				c0,2.4,1.6,3.4,3.4,3.4c1.3,0,2.9-0.6,4.2-1.9L760.3,64.6z"/>
			<path class="st0" d="M771.6,72.4V73h-7v-0.6l2.4-0.6V49.9c-0.7-0.2-1.7-0.4-2.4-0.6v-0.6h4.5v23.1L771.6,72.4z"/>
			<path class="st0" d="M790.4,49.3c0-0.3,0-0.5,0-0.7h4.6l0,23.2l2.5,0.5V73h-4.4l-0.3-2.8c-0.6,1.8-2.6,3.1-5.2,3.1
				c-3.3,0-6.2-2.1-6.2-8.4c0-6.1,3.1-8.5,6.4-8.5c1.1,0,2.9,0.2,5.1,1v-7.7L790.4,49.3z M792.3,59c-1.1-0.5-3.2-1.2-4.7-1.2
				c-4.3,0-4.2,5.5-4.2,7c0,2.6,0.4,7.1,4,7.1c3.7,0,5.3-2.2,5.3-5.8v-6.9L792.3,59z"/>
			<path class="st0" d="M810.5,69.8l1.3,1.1c-1.9,2.2-4.1,2.7-6,2.7c-5.5,0-7.1-3.1-7.2-8.1c0-5.5,2.2-8.7,7.2-8.7
				c4.2,0,6.3,2.6,6.3,8.2l-11.5,0c0,4.3,0.3,7.3,5.2,7.3C808.3,72.3,809.8,70.7,810.5,69.8z M810.2,63.6c-0.1-3-1.3-5.5-4.5-5.5
				c-3.6,0-4.9,2.7-4.9,5.5L810.2,63.6z"/>
			<path class="st0" d="M825,59.1c-1.6-0.6-3.3-1-4.5-1c-1.7,0-3.3,0.4-3.3,2.8c0,2,1.3,2.4,3.6,2.9c4.4,1,6.5,2.3,6.5,4.8
				c0,3.1-2.4,4.8-6.2,4.8c-3.1,0-5.5-1.1-6.3-1.6c0-0.2,0.1-0.2,0.2-3.5h0.6l0.6,2.2c1.5,0.7,3.3,1.4,4.9,1.4
				c2.2,0,4.1-0.6,4.1-3.2c0-1.9-2.8-2.8-5.8-3.4c-2.9-0.6-4.4-2.3-4.4-4.4c0-1.3,0.8-4.1,5.4-4.1c2.9,0,5.1,1,5.9,1.3
				c-0.1,1.1,0,2.1-0.1,3.2h-0.7L825,59.1z"/>
		</g>
		<g>
			<path class="st0" d="M473,87.8c-1.9-0.6-2.8-0.9-4.4-0.9c-2.7,0-8.8,2.3-8.9,10.2c0.5,9.3,7.4,10,8.9,10c2.5,0,4.5-1.2,6.1-2.4
				v2.1c-0.9,0.6-3.4,1.7-6.1,1.8c-7.5,0-11.2-5.2-11.2-11.5c0-6.7,3.9-11.6,11.2-11.6c2.6,0,4.8,0.6,5.9,1
				c-0.1,1.4-0.2,2.5-0.3,3.9h-0.6L473,87.8z"/>
			<path class="st0" d="M492.9,100c0,5.5-1.7,8.5-7.3,8.5c-5.6,0-7.6-4-7.6-8.5c0-5.3,1.9-8.3,7.3-8.3
				C491.1,91.7,492.9,95.4,492.9,100z M485.6,107.1c1.8,0,4.9,0,4.9-7.1c0-6.9-3.1-6.9-5.2-6.9c-2.2,0-5.1-0.1-5.1,6.9
				C480.2,106.7,483.3,107.1,485.6,107.1z"/>
			<path class="st0" d="M511.9,107.3v0.7h-4.4v-9.8c0-3.2-1.4-5-3.9-5c-2.8,0-5.2,2.2-5.2,4.7v8.9l2.5,0.6v0.6h-7v-0.7l2.5-0.5V93.4
				c-0.7-0.2-1.7-0.4-2.5-0.6v-0.7h4.3l0.4,3.1c1.2-2,3.4-3.6,6-3.6c2.9,0,4.9,2.1,4.9,6.7v8.3L511.9,107.3z"/>
			<path class="st0" d="M522.4,84.3c0-0.3,0-0.5,0-0.7h4.6l0,23.2l2.5,0.5v0.6H525l-0.3-2.8c-0.6,1.8-2.6,3.1-5.2,3.1
				c-3.3,0-6.2-2.1-6.2-8.4c0-6.1,3.1-8.5,6.4-8.5c1.1,0,2.9,0.2,5.1,1v-7.7L522.4,84.3z M524.4,94c-1.1-0.5-3.2-1.2-4.7-1.2
				c-4.3,0-4.2,5.5-4.2,7c0,2.6,0.4,7.1,4,7.1c3.7,0,5.3-2.2,5.3-5.8v-6.9L524.4,94z"/>
			<path class="st0" d="M539.5,92.8v-0.6h5.4v14.6l2.5,0.6v0.6H543l-0.4-3c-1.2,2.2-3.9,3.5-6,3.5c-2.7,0-5-1.7-5-6.6v-8.6l-2.3-0.6
				v-0.6h4.4v10.1c0,3.1,0.8,4.9,3.5,4.9s5.7-2.1,5.7-5.4v-8.5L539.5,92.8z"/>
			<path class="st0" d="M547.1,92.8v-0.6h4.5v14.6l2.5,0.6v0.6h-7v-0.6l2.5-0.6V93.4L547.1,92.8z M549,86.2v-2.6h2.6v2.6H549z"/>
			<path class="st0" d="M557,92.2c0.2-1.5,0.4-3.2,0.6-4.7h1.4v4.7h4.1v1.3H559v10.3c0,2.7,0.2,3.1,1.8,3.1c0.9,0,1.7-0.3,2.2-0.5
				v1.6c-0.6,0.2-1.8,0.4-3,0.4c-2,0-3-0.6-3-3.6V93.5H554v-1.3H557z"/>
			<path class="st0" d="M576.6,104.8l1.3,1.1c-1.9,2.2-4.1,2.7-6,2.7c-5.5,0-7.1-3.1-7.2-8.1c0-5.5,2.2-8.7,7.2-8.7
				c4.2,0,6.3,2.6,6.3,8.2l-11.5,0c0,4.3,0.3,7.3,5.2,7.3C574.4,107.2,575.9,105.7,576.6,104.8z M576.4,98.6c-0.1-3-1.3-5.5-4.5-5.5
				c-3.6,0-4.9,2.7-4.9,5.5L576.4,98.6z"/>
			<path class="st0" d="M591.1,94.1c-1.6-0.6-3.3-1-4.5-1c-1.7,0-3.3,0.4-3.3,2.8c0,2,1.3,2.4,3.6,2.9c4.4,1,6.5,2.3,6.5,4.8
				c0,3.1-2.4,4.8-6.2,4.8c-3.1,0-5.5-1.1-6.3-1.6c0-0.2,0.1-0.2,0.2-3.5h0.6l0.6,2.2c1.5,0.7,3.3,1.4,4.9,1.4
				c2.2,0,4.1-0.6,4.1-3.2c0-1.9-2.8-2.8-5.8-3.4c-2.9-0.6-4.4-2.3-4.4-4.4c0-1.3,0.8-4.1,5.4-4.1c2.9,0,5.1,1,5.9,1.3
				c-0.1,1.1,0,2.1-0.1,3.2h-0.7L591.1,94.1z"/>
			<path class="st0" d="M613,106c-1,0.9-2.7,2.1-5,2.1c-2.9,0-4.5-1.7-4.5-4.8c0-2.5,1.1-4.7,5-4.7c3.2,0,3.8,0,4.7-0.8
				c0-4.4-0.9-4.8-3.6-4.8c-1.3,0-2.5,0.2-3.6,0.5c-0.1,0.6-0.3,1.4-0.5,2.4h-0.7c-0.1-1.2-0.1-2.2-0.2-3.3c1.4-0.7,3.2-1,5.2-1
				c2.9,0,5.4,1.2,5.4,6.2v8.9l2.5,0.6v0.7h-3.6L613,106z M613.1,99.6c-1.9,0.5-3,0.5-4.4,0.5c-1.4,0-3.3,0-3.3,3.4
				c0,2.4,1.6,3.4,3.4,3.4c1.3,0,2.9-0.6,4.2-1.9L613.1,99.6z M610.2,85l1.5,3.4h-1.3l-2.6-3.4H610.2z"/>
			<path class="st0" d="M635.9,86.1c4.9,0,7.2,2.5,7.2,5.6c0,3.4-2.6,4.5-4.8,5c2,0.2,2.8,2,3.5,3.5l2.7,6.7l2.2,0.5
				c0,0.3,0,0.4,0,0.6h-6.8v-0.6l2.6-0.6l-3.1-7.4c-0.7-1.4-1.4-2-2.8-2h-6.1v9.5l0.5,0.1c0.3,0.1,1,0.2,2,0.4c0,0.3,0,0.4,0,0.6
				h-6.8v-0.6l2.4-0.6l0-19.6l-2.4-0.6v-0.6H635.9z M635.9,95.8c4,0,5.1-2.4,5.1-4.2c0-1.9-1.3-4.2-5.1-4.2h-5.5v8.4H635.9z"/>
			<path class="st0" d="M646.1,92.8v-0.6h4.5v14.6l2.5,0.6v0.6h-7v-0.6l2.5-0.6V93.4L646.1,92.8z M648,86.2v-2.6h2.6v2.6H648z"/>
			<path class="st0" d="M664.6,94.1c-1.6-0.6-3.3-1-4.5-1c-1.7,0-3.3,0.4-3.3,2.8c0,2,1.3,2.4,3.6,2.9c4.4,1,6.5,2.3,6.5,4.8
				c0,3.1-2.4,4.8-6.2,4.8c-3.1,0-5.5-1.1-6.3-1.6c0-0.2,0.1-0.2,0.2-3.5h0.6l0.6,2.2c1.5,0.7,3.3,1.4,4.9,1.4
				c2.2,0,4.1-0.6,4.1-3.2c0-1.9-2.8-2.8-5.8-3.4c-2.9-0.6-4.4-2.3-4.4-4.4c0-1.3,0.8-4.1,5.4-4.1c2.9,0,5.1,1,5.9,1.3
				c-0.1,1.1,0,2.1-0.1,3.2h-0.7L664.6,94.1z"/>
			<path class="st0" d="M684.6,113.8v0.7h-6.9v-0.7l2.4-0.5v-8.5c-0.7,1.3-2.9,3.7-5.7,3.7c-3.9,0-5.3-3.3-5.3-8.4
				c0-5.8,2.2-8.2,7.5-8.2c2.6,0,4.6,0.9,5.5,1.3v20.1L684.6,113.8z M680.2,101.1v-6.8c-1.3-0.7-2.8-1.2-4.3-1.2
				c-4.2,0-4.8,3.8-4.8,7c0,3.2,0.4,7,3.4,7C678.3,107.1,680.2,103.3,680.2,101.1z"/>
			<path class="st0" d="M694.6,92.8v-0.6h5.4v14.6l2.5,0.6v0.6h-4.3l-0.4-3c-1.2,2.2-3.9,3.5-6,3.5c-2.7,0-5-1.7-5-6.6v-8.6
				l-2.3-0.6v-0.6h4.4v10.1c0,3.1,0.8,4.9,3.5,4.9s5.7-2.1,5.7-5.4v-8.5L694.6,92.8z"/>
			<path class="st0" d="M715.4,104.8l1.3,1.1c-1.9,2.2-4.1,2.7-6,2.7c-5.5,0-7.1-3.1-7.2-8.1c0-5.5,2.2-8.7,7.2-8.7
				c4.2,0,6.3,2.6,6.3,8.2l-11.5,0c0,4.3,0.3,7.3,5.2,7.3C713.2,107.2,714.8,105.7,715.4,104.8z M715.2,98.6c-0.1-3-1.3-5.5-4.5-5.5
				c-3.6,0-4.9,2.7-4.9,5.5L715.2,98.6z"/>
			<path class="st0" d="M729.9,94.1c-1.6-0.6-3.3-1-4.5-1c-1.7,0-3.3,0.4-3.3,2.8c0,2,1.3,2.4,3.6,2.9c4.4,1,6.5,2.3,6.5,4.8
				c0,3.1-2.4,4.8-6.2,4.8c-3.1,0-5.5-1.1-6.3-1.6c0-0.2,0.1-0.2,0.2-3.5h0.6l0.6,2.2c1.5,0.7,3.3,1.4,4.9,1.4
				c2.2,0,4.1-0.6,4.1-3.2c0-1.9-2.8-2.8-5.8-3.4c-2.9-0.6-4.4-2.3-4.4-4.4c0-1.3,0.8-4.1,5.4-4.1c2.9,0,5.1,1,5.9,1.3
				c-0.1,1.1,0,2.1-0.1,3.2h-0.7L729.9,94.1z"/>
			<path class="st0" d="M751.9,84.3c0-0.3,0-0.5,0-0.7h4.6l0,23.2l2.5,0.5v0.6h-4.4l-0.3-2.8c-0.6,1.8-2.6,3.1-5.2,3.1
				c-3.3,0-6.2-2.1-6.2-8.4c0-6.1,3.1-8.5,6.4-8.5c1.1,0,2.9,0.2,5.1,1v-7.7L751.9,84.3z M753.8,94c-1.1-0.5-3.2-1.2-4.7-1.2
				c-4.3,0-4.2,5.5-4.2,7c0,2.6,0.4,7.1,4,7.1c3.7,0,5.3-2.2,5.3-5.8v-6.9L753.8,94z"/>
			<path class="st0" d="M772,104.8l1.3,1.1c-1.9,2.2-4.1,2.7-6,2.7c-5.5,0-7.1-3.1-7.2-8.1c0-5.5,2.2-8.7,7.2-8.7
				c4.2,0,6.3,2.6,6.3,8.2l-11.5,0c0,4.3,0.3,7.3,5.2,7.3C769.8,107.2,771.3,105.7,772,104.8z M771.8,98.6c-0.1-3-1.3-5.5-4.5-5.5
				c-3.6,0-4.9,2.7-4.9,5.5L771.8,98.6z"/>
		</g>
		<g>
			<path class="st0" d="M464.3,142.3v0.6h-7v-0.6l2.4-0.6v-21.9c-0.7-0.2-1.7-0.4-2.4-0.6v-0.6h4.5v23.1L464.3,142.3z"/>
			<path class="st0" d="M467,120.9h2.7c0.2,1.2,0.2,2.2,0.2,3.1c0,3.7-1.7,4.9-3.3,5.2v-1.1c2.3-0.2,2.3-2.5,2.3-4.7H467V120.9z"/>
			<path class="st0" d="M470.7,143c0-0.3,0-0.4,0-0.6l2.1-0.5l7.7-19.6c-0.7-0.2-1.7-0.4-2.5-0.6V121h6.1l7.3,20.8
				c0.7,0.1,1.5,0.4,2.2,0.5c0,0.3,0,0.4,0,0.6h-7.1c0-0.2,0-0.4,0-0.6l2.6-0.6l-2.2-7.1H478l-2.9,7.1c0.8,0.2,1.7,0.4,2.6,0.6
				c0,0.3,0,0.4,0,0.6H470.7z M478.3,133.4h8.5l-4.1-11.1L478.3,133.4z"/>
			<path class="st0" d="M503.1,119.3c0-0.3,0-0.5,0-0.7h4.6l0,23.2l2.5,0.5v0.6h-4.4l-0.3-2.8c-0.6,1.8-2.6,3.1-5.2,3.1
				c-3.3,0-6.2-2.1-6.2-8.4c0-6.1,3.1-8.5,6.4-8.5c1.1,0,2.9,0.2,5.1,1v-7.7L503.1,119.3z M505.1,129c-1.1-0.5-3.2-1.2-4.7-1.2
				c-4.3,0-4.2,5.5-4.2,7c0,2.6,0.4,7,4,7c3.7,0,5.3-2.2,5.3-5.8v-6.9L505.1,129z"/>
			<path class="st0" d="M526.4,135c0,5.5-1.7,8.5-7.3,8.5c-5.6,0-7.6-4-7.6-8.5c0-5.3,1.9-8.3,7.3-8.3
				C524.6,126.7,526.4,130.4,526.4,135z M519.1,142.1c1.8,0,4.9,0,4.9-7.1c0-6.9-3.1-6.9-5.2-6.9c-2.2,0-5.1-0.1-5.1,6.9
				C513.7,141.7,516.8,142.1,519.1,142.1z"/>
			<path class="st0" d="M534.5,142.3v0.6h-7v-0.6l2.4-0.6v-21.9c-0.7-0.2-1.7-0.4-2.4-0.6v-0.6h4.5v23.1L534.5,142.3z"/>
			<path class="st0" d="M547.5,139.7l1.3,1.1c-1.9,2.2-4.1,2.7-6,2.7c-5.5,0-7.1-3.1-7.2-8.1c0-5.5,2.2-8.7,7.2-8.7
				c4.2,0,6.3,2.6,6.3,8.2l-11.5,0c0,4.3,0.3,7.3,5.2,7.3C545.3,142.2,546.9,140.7,547.5,139.7z M547.3,133.6
				c-0.1-3-1.3-5.5-4.5-5.5c-3.6,0-4.9,2.7-4.9,5.5L547.3,133.6z"/>
			<path class="st0" d="M562,129.1c-1.6-0.6-3.3-1-4.5-1c-1.7,0-3.3,0.4-3.3,2.8c0,2,1.3,2.4,3.6,2.9c4.4,1,6.5,2.3,6.5,4.8
				c0,3.1-2.4,4.8-6.2,4.8c-3.1,0-5.5-1.1-6.3-1.6c0-0.2,0.1-0.2,0.2-3.5h0.6l0.6,2.2c1.5,0.7,3.3,1.4,4.9,1.4
				c2.2,0,4.1-0.6,4.1-3.2c0-1.9-2.8-2.8-5.8-3.4c-2.9-0.6-4.4-2.3-4.4-4.4c0-1.3,0.8-4.1,5.4-4.1c2.9,0,5.1,1,5.9,1.3
				c-0.1,1.1,0,2.1-0.1,3.2h-0.7L562,129.1z"/>
			<path class="st0" d="M580.3,140.7l0,1.8c-1.8,0.6-3.3,1-5.4,1c-5.5,0-8.3-2.7-8.3-8.6c0-6.2,3.1-8.2,8.3-8.2c2,0,3.8,0.6,5,1.3
				c-0.1,1.1-0.1,2.2-0.2,3.2h-0.6l-0.6-2.2c-1.2-0.5-2.5-0.9-3.6-0.9c-3.2,0-6.2,1-6.2,6.8c0,5.9,2.9,7.2,6.2,7.2
				C577,142,579.2,141.3,580.3,140.7z"/>
			<path class="st0" d="M594,139.7l1.3,1.1c-1.9,2.2-4.1,2.7-6,2.7c-5.5,0-7.1-3.1-7.2-8.1c0-5.5,2.2-8.7,7.2-8.7
				c4.2,0,6.3,2.6,6.3,8.2l-11.5,0c0,4.3,0.3,7.3,5.2,7.3C591.8,142.2,593.4,140.7,594,139.7z M593.8,133.6c-0.1-3-1.3-5.5-4.5-5.5
				c-3.6,0-4.9,2.7-4.9,5.5L593.8,133.6z"/>
			<path class="st0" d="M614.9,142.3v0.7h-4.4v-9.8c0-3.2-1.4-5-3.9-5c-2.8,0-5.2,2.2-5.2,4.7v8.9l2.5,0.6v0.6h-7v-0.7l2.5-0.5
				v-13.5c-0.7-0.2-1.7-0.4-2.5-0.6v-0.7h4.3l0.4,3.1c1.2-2,3.4-3.6,6-3.6c2.9,0,4.9,2.1,4.9,6.7v8.3L614.9,142.3z"/>
			<path class="st0" d="M617.8,127.1c0.2-1.5,0.4-3.2,0.6-4.7h1.4v4.7h4.1v1.3h-4.1v10.3c0,2.7,0.2,3.1,1.8,3.1
				c0.9,0,1.7-0.3,2.2-0.5v1.6c-0.6,0.2-1.8,0.4-3,0.4c-2,0-3-0.6-3-3.6v-11.3h-3.1v-1.3H617.8z"/>
		</g>
	</g>
	<g>
		<defs>
			<path id="SVGID_1_" d="M97.3,44c-0.9,0-1.9,0-2.6,0.1c-24.3,1.4-43.4,20.5-44.8,44.7c-0.1,0.7-0.1,1.4-0.1,2.4
				c0,0.8,0,0.9,0.1,1.9h44.9h5v-4.3V44.1C98.7,44,98.2,44,97.3,44z"/>
		</defs>
		<clipPath id="SVGID_2_">
			<use xlink:href="#SVGID_1_"  style="overflow:visible;"/>
		</clipPath>
		<rect x="-10.9" y="-4.3" class="st1" width="110.6" height="96.8"/>
		<g class="st2">
			<line class="st3" x1="110.4" y1="103.4" x2="56" y2="50.9"/>
			<line class="st3" x1="52.8" y1="26.4" x2="99.1" y2="92.5"/>
			<line class="st3" x1="74.1" y1="34.2" x2="99.1" y2="92.5"/>
			<line class="st3" x1="99.1" y1="92.5" x2="79.8" y2="2.9"/>
			<line class="st3" x1="99.1" y1="92.5" x2="99.1" y2="-20.5"/>
			<line class="st3" x1="105.7" y1="92.5" x2="-7.3" y2="92.5"/>
			<line class="st3" x1="99.1" y1="92.5" x2="40.2" y2="54.6"/>
			<line class="st3" x1="99.1" y1="92.5" x2="13.7" y2="59.4"/>
			<line class="st3" x1="102.6" y1="93.2" x2="-6.2" y2="72.5"/>
		</g>
	</g>
</g>
</svg>
