<?xml version="1.0" standalone="no"?>
<!DOCTYPE svg PUBLIC "-//W3C//DTD SVG 20010904//EN"
 "http://www.w3.org/TR/2001/REC-SVG-20010904/DTD/svg10.dtd">
<svg version="1.0" xmlns="http://www.w3.org/2000/svg"
 width="225.000000pt" height="225.000000pt" viewBox="0 0 225.000000 225.000000"
 preserveAspectRatio="xMidYMid meet">

<g transform="translate(0.000000,225.000000) scale(0.100000,-0.100000)"
fill="#000000" stroke="none">
<path d="M988 2240 c-306 -39 -579 -199 -768 -451 -144 -193 -212 -405 -213
-664 0 -129 3 -165 25 -255 88 -352 320 -630 648 -775 224 -98 508 -117 747
-50 110 31 287 119 374 184 221 168 376 421 430 701 18 95 15 319 -6 415 -48
229 -144 406 -309 571 -163 163 -346 263 -567 309 -88 19 -273 26 -361 15z
m103 -409 c51 -51 32 -130 -37 -150 -69 -20 -132 44 -113 113 20 70 98 89 150
37z m17 -254 c6 -7 13 -59 14 -114 l3 -101 104 114 103 115 72 -3 71 -3 0 -50
0 -50 -40 -3 c-34 -3 -50 -13 -102 -65 -35 -34 -63 -66 -63 -71 0 -6 38 -75
85 -153 l86 -143 49 0 c32 0 61 -7 82 -20 35 -21 112 -27 138 -10 26 16 -2 43
-62 61 -106 31 -143 67 -143 140 0 41 23 79 66 111 52 39 187 32 240 -11 23
-19 24 -19 6 -56 -17 -35 -20 -37 -50 -29 -18 4 -54 8 -82 8 -39 1 -50 -3 -53
-16 -3 -13 13 -22 69 -38 52 -16 83 -32 107 -56 33 -33 34 -37 30 -94 -5 -64
-26 -98 -80 -126 -40 -21 -148 -18 -208 6 -33 13 -74 20 -119 20 -52 0 -71 4
-83 18 -8 9 -50 76 -93 147 -42 72 -79 132 -81 135 -3 2 -16 -9 -29 -25 -22
-28 -24 -39 -25 -141 0 -72 -4 -114 -12 -122 -19 -19 -448 -17 -493 2 l-34 15
-3 -102 -3 -102 -55 0 -55 0 -3 263 -2 262 -24 -6 c-20 -5 -27 0 -41 26 -19
36 -11 51 36 76 36 18 79 18 106 -1 19 -13 26 -13 65 5 115 52 239 -3 278
-123 12 -40 10 -167 -4 -199 -7 -16 -1 -18 53 -18 l61 0 0 214 0 215 -22 3
c-19 2 -24 10 -26 47 -2 28 1 47 10 52 22 14 144 11 156 -4z m-308 -825 l0
-138 -59 -2 c-54 -2 -62 1 -80 25 -49 62 -10 150 63 141 l36 -4 0 58 c0 51 2
58 20 58 19 0 20 -7 20 -138z m545 77 c0 -17 -6 -24 -20 -24 -23 0 -33 34 -13
46 20 13 33 5 33 -22z m463 -67 c7 -9 12 -44 12 -84 0 -61 -2 -68 -20 -68 -16
0 -19 8 -22 63 -3 54 -5 62 -23 62 -18 0 -20 -8 -23 -63 -3 -59 -5 -63 -25
-60 -20 3 -22 9 -25 85 l-3 82 43 3 c53 4 69 0 86 -20z m-789 -8 c23 -29 28
-74 9 -74 -9 0 -9 -3 0 -12 19 -19 -24 -58 -65 -58 -72 0 -108 85 -62 144 29
37 89 37 118 0z m181 11 c17 -21 3 -36 -27 -29 -18 5 -24 3 -19 -5 4 -6 12
-11 18 -11 20 0 48 -33 48 -56 0 -51 -62 -72 -101 -33 -28 28 -11 49 26 29 29
-16 49 -3 21 14 -31 18 -56 45 -56 60 0 39 65 61 90 31z m150 -71 c0 -83 -1
-85 -22 -82 -21 3 -23 9 -26 86 -3 82 -3 82 23 82 25 0 25 -1 25 -86z m240
-17 c0 -90 -2 -103 -22 -124 -30 -32 -81 -31 -113 2 -14 13 -25 31 -25 39 0
27 19 27 42 1 23 -27 47 -32 66 -13 23 23 13 34 -27 30 -32 -3 -42 1 -60 23
-27 35 -27 85 0 118 18 24 27 26 80 26 l59 -1 0 -101z"/>
<path d="M628 1280 c-97 -75 -27 -269 79 -218 38 18 53 52 53 121 0 51 -4 62
-29 88 -34 34 -68 37 -103 9z"/>
<path d="M692 728 c-28 -28 -3 -84 34 -76 43 8 44 88 1 88 -13 0 -28 -5 -35
-12z"/>
<path d="M935 730 c-4 -6 7 -10 25 -10 18 0 29 4 25 10 -3 6 -15 10 -25 10
-10 0 -22 -4 -25 -10z"/>
<path d="M930 665 c7 -8 20 -15 30 -15 10 0 23 7 30 15 11 13 7 15 -30 15 -37
0 -41 -2 -30 -15z"/>
<path d="M1481 726 c-16 -20 -10 -56 12 -70 27 -17 52 4 52 45 0 29 -4 34 -26
37 -14 2 -31 -4 -38 -12z"/>
</g>
</svg>
