<svg id="Groupe_106" data-name="Groupe 106" xmlns="http://www.w3.org/2000/svg" xmlns:xlink="http://www.w3.org/1999/xlink" width="404.437" height="84.948" viewBox="0 0 404.437 84.948">
  <defs>
    <clipPath id="clip-path">
      <rect id="Rectangle_81" data-name="Rectangle 81" width="404.437" height="84.948" fill="#fff"/>
    </clipPath>
  </defs>
  <g id="Groupe_105" data-name="Groupe 105" clip-path="url(#clip-path)">
    <path id="Tracé_697" data-name="Tracé 697" d="M32.827,39.671H6.479V49.893H0V3.1H32.827c37,0,40.746,5.615,40.746,18.285S67.814,39.671,32.827,39.671M21.885,15.77H6.623V34.487H21.885c24.908,0,29.8-1.008,29.8-9.359-.144-8.351-4.319-9.215-29.8-9.359" transform="translate(0 1.363)" fill="#fff"/>
    <path id="Tracé_698" data-name="Tracé 698" d="M96.531,50.777C69.895,50.777,61.4,47.465,61.4,31.2h5.471c.288,5.615,6.191,6.767,23.469,6.767,18.717,0,22.317-.432,22.317-4.607s-2.16-4.463-24.908-4.463c-16.99,0-25.628-.432-25.628-12.382C62.12,4.7,70.759,2.4,99.266,2.4c23.613,0,34.987,2.448,34.987,18.429H112.081c0-4.9-2.448-5.759-20.589-5.759s-22.461,1.152-22.461,4.9,5.759,4.175,30.524,4.175c30.524,0,35.275,3.455,35.275,12.814s-5.615,13.822-38.3,13.822" transform="translate(27.003 1.055)" fill="#fff"/>
    <path id="Tracé_699" data-name="Tracé 699" d="M152.379,50.877c-28.652,0-37.579-4.751-37.579-24.188S124.015,2.5,152.379,2.5s37,5.327,37.579,20.157H167.64c-1.152-5.471-7.631-6.911-23.9-6.911-18.285,0-24.045,2.16-24.045,10.654s5.759,10.654,24.045,10.654c16.558,0,23.181-1.44,24.045-7.919h22.173c.144,16.27-9.935,21.741-37.579,21.741" transform="translate(50.488 1.099)" fill="#fff"/>
    <path id="Tracé_700" data-name="Tracé 700" d="M169.8,0h6.623V4.319H169.8Zm.288,50.969V8.351h5.759V50.825h-5.759Z" transform="translate(74.676)" fill="#fff"/>
    <path id="Tracé_701" data-name="Tracé 701" d="M228.537,49.605c0-31.675-4.175-32.4-24.332-32.539l-19.581-.144V49.605H178V3.1h35.563c32.107,0,37.579,4.463,37.291,46.649Z" transform="translate(78.283 1.363)" fill="#fff"/>
    <path id="Tracé_702" data-name="Tracé 702" d="M280.309,49.825V37.3H238.267V49.681H231.5V34.131c0-22.893,5.039-31.531,34.7-31.531s36.427,7.2,36.427,31.243V49.681ZM258.568,15.99c-16.558,0-20.157,4.751-20.157,16.414h42.042c-.288-14.254-5.471-16.414-21.885-16.414" transform="translate(101.812 1.143)" fill="#fff"/>
    <path id="Tracé_703" data-name="Tracé 703" d="M53.7,0h6.623V4.319H53.7Zm.576,8.495h5.759v42.33H54.276Z" transform="translate(23.617)" fill="#fff"/>
    <path id="Tracé_704" data-name="Tracé 704" d="M42.735,49.515H35.968v4.319h5.615a2.23,2.23,0,0,1,1.152.288c.288.144.288.432.288,1.008a2.081,2.081,0,0,1-.288,1.008,2.712,2.712,0,0,1-1.152.288H35.968v5.615a2.586,2.586,0,0,1-.432,1.584,1.635,1.635,0,0,1-1.152.432c-.432,0-1.008-.144-1.152-.432a2.15,2.15,0,0,1-.432-1.44V49.227a2.807,2.807,0,0,1,.144-1.152,1.7,1.7,0,0,1,.72-.72c.432-.288.72-.144,1.152-.144h8.063a2.23,2.23,0,0,1,1.152.288c.288.144.288.432.288,1.008a2.669,2.669,0,0,1-.288,1.008c-.288-.144-.576,0-1.3,0" transform="translate(14.425 20.747)" fill="#fff"/>
    <path id="Tracé_705" data-name="Tracé 705" d="M50.219,46.8a8.207,8.207,0,0,1,4.463,1.008,5.64,5.64,0,0,1,2.736,3.024,9.091,9.091,0,0,1,1.008,4.607,14.505,14.505,0,0,1-.432,3.6,6.525,6.525,0,0,1-1.584,2.736,10.78,10.78,0,0,1-2.592,1.872,8.7,8.7,0,0,1-3.455.72,6.78,6.78,0,0,1-3.456-.72,5.759,5.759,0,0,1-2.592-1.872,8.533,8.533,0,0,1-1.584-2.736,9.511,9.511,0,0,1-.432-3.455,14.505,14.505,0,0,1,.432-3.6,7.22,7.22,0,0,1,1.584-2.736,7.531,7.531,0,0,1,2.592-1.872,10.522,10.522,0,0,1,3.312-.576m4.751,8.639a5.734,5.734,0,0,0-.72-3.168,5.8,5.8,0,0,0-1.584-2.016,4.854,4.854,0,0,0-2.448-.72,7.3,7.3,0,0,0-1.872.288,3.008,3.008,0,0,0-1.44,1.152A3.929,3.929,0,0,0,45.9,52.847a14.266,14.266,0,0,0-.288,2.592A12.914,12.914,0,0,0,45.9,58.03a8.8,8.8,0,0,0,1.008,2.016,10.087,10.087,0,0,0,1.44,1.152,3.67,3.67,0,0,0,1.872.288,4.022,4.022,0,0,0,2.448-.72,6.367,6.367,0,0,0,1.872-2.016c.432-.432.432-2.016.432-3.312" transform="translate(18.603 20.582)" fill="#fff"/>
    <path id="Tracé_706" data-name="Tracé 706" d="M59.963,49.048l6.623,9.791V48.76a1.911,1.911,0,0,1,.432-1.44,1.752,1.752,0,0,1,2.3,0,2.15,2.15,0,0,1,.432,1.44v13.1c0,1.44-.72,2.16-1.872,2.16-.288,0-.72,0-.864-.144s-.432-.144-.72-.432l-.72-.72a4.792,4.792,0,0,1-.432-.864l-6.479-9.647v9.791a1.911,1.911,0,0,1-.432,1.44,1.752,1.752,0,0,1-2.3,0,2.15,2.15,0,0,1-.432-1.44V49.048a3.575,3.575,0,0,1,.144-1.3c.144-.288.288-.72.72-.864a2.712,2.712,0,0,1,1.152-.288,2.14,2.14,0,0,1,.864.144c.144.144.288.144.432.288a1.539,1.539,0,0,1,.432.72,10.447,10.447,0,0,0,.72,1.3" transform="translate(24.408 20.494)" fill="#fff"/>
    <path id="Tracé_707" data-name="Tracé 707" d="M79.182,49.648H75.439V61.742a2.586,2.586,0,0,1-.432,1.584,1.635,1.635,0,0,1-1.152.432c-.432,0-1.008-.144-1.152-.432a2.15,2.15,0,0,1-.432-1.44V49.792H68.528a2.434,2.434,0,0,1-1.3-.288c-.288-.144-.432-.72-.432-1.008a1.121,1.121,0,0,1,.432-1.008c.288-.288.72-.288,1.3-.288h10.8a2.434,2.434,0,0,1,1.3.288,1.555,1.555,0,0,1,.432,1.008c0,.288-.144.864-.432,1.008a4.012,4.012,0,0,1-1.44.144" transform="translate(29.378 20.758)" fill="#fff"/>
    <path id="Tracé_708" data-name="Tracé 708" d="M89.086,49.6H81.312v4.175h7.055a2.23,2.23,0,0,1,1.152.288c.288.144.288.432.288,1.008a2.081,2.081,0,0,1-.288,1.008c-.144.288-.72.288-1.152.288H81.312v4.751H89.23a2.23,2.23,0,0,1,1.152.288,1.371,1.371,0,0,1,.288,1.008,2.669,2.669,0,0,1-.288,1.008,1.551,1.551,0,0,1-1.152.288H80.016a2.08,2.08,0,0,1-1.584-.432A2.316,2.316,0,0,1,78,61.7V49.027a2.807,2.807,0,0,1,.144-1.152,1.7,1.7,0,0,1,.72-.72c.432-.288.72-.144,1.152-.144h9.071a2.23,2.23,0,0,1,1.152.288,1.377,1.377,0,0,1,.288,1.008,2.669,2.669,0,0,1-.288,1.008c-.144.144-.432.288-1.152.288" transform="translate(34.304 20.659)" fill="#fff"/>
    <path id="Tracé_709" data-name="Tracé 709" d="M95.127,47H99.59a17.971,17.971,0,0,1,3.024.288,6.929,6.929,0,0,1,2.3,1.152c1.872,1.44,2.592,3.743,2.592,6.911a14.5,14.5,0,0,1-.288,2.736,6.361,6.361,0,0,1-.864,2.3,5.939,5.939,0,0,1-1.44,1.872c-.432.288-1.008.72-1.44,1.008a6.491,6.491,0,0,1-1.584.432,10.2,10.2,0,0,1-2.16.144H95.271a2.073,2.073,0,0,1-1.3-.288c-.288-.144-.432-.432-.72-.864s-.144-.864-.144-1.3V49.016a2.316,2.316,0,0,1,.432-1.584A2.08,2.08,0,0,1,95.127,47m1.3,2.736V61.11h3.887c.288,0,.72-.144,1.008-.144a4.794,4.794,0,0,0,.864-.432c1.152-1.008,1.584-2.592,1.584-4.9A6.534,6.534,0,0,0,102.9,51.9a4.807,4.807,0,0,0-1.872-1.584,12.914,12.914,0,0,0-2.592-.288H96.423Z" transform="translate(40.933 20.67)" fill="#fff"/>
    <path id="Tracé_710" data-name="Tracé 710" d="M115.638,62.062l-.864-2.16h-6.911L107,62.062a4.6,4.6,0,0,1-.864,1.584c-.144.288-.72.432-1.152.432a1.635,1.635,0,0,1-1.152-.432,1.546,1.546,0,0,1-.288-1.728,3.663,3.663,0,0,1,.288-1.008l4.319-10.8a9.92,9.92,0,0,0,.432-1.152,9.915,9.915,0,0,1,.432-1.152c.144-.288.432-.432.864-.72a2.448,2.448,0,0,1,2.3,0,3.166,3.166,0,0,1,.864.72c.432.432.288.72.432,1.008a13.587,13.587,0,0,1,.432,1.3l4.463,10.8a6.5,6.5,0,0,1,.432,1.872,1.486,1.486,0,0,1-1.584,1.584,1.3,1.3,0,0,1-.72-.144c-.144-.144-.288-.144-.432-.288a2.344,2.344,0,0,1-.432-.864,1.12,1.12,0,0,0,0-1.008m-6.623-4.751h5.039L111.607,50.4Z" transform="translate(45.474 20.582)" fill="#fff"/>
    <path id="Tracé_711" data-name="Tracé 711" d="M131.582,49.648h-3.743V61.742a2.586,2.586,0,0,1-.432,1.584,1.635,1.635,0,0,1-1.152.432c-.432,0-1.008-.144-1.152-.432a2.15,2.15,0,0,1-.432-1.44V49.792h-3.743a2.434,2.434,0,0,1-1.3-.288c-.288-.144-.432-.72-.432-1.008a1.121,1.121,0,0,1,.432-1.008c.288-.288.72-.288,1.3-.288h10.8a2.434,2.434,0,0,1,1.3.288,1.555,1.555,0,0,1,.432,1.008c0,.288-.144.864-.432,1.008-.432,0-.864.144-1.44.144" transform="translate(52.423 20.758)" fill="#fff"/>
    <path id="Tracé_712" data-name="Tracé 712" d="M141.486,49.6h-7.775v4.175h7.055a2.23,2.23,0,0,1,1.152.288c.288.144.288.432.288,1.008a2.081,2.081,0,0,1-.288,1.008c-.144.288-.72.288-1.152.288h-7.055v4.751h7.919a2.23,2.23,0,0,1,1.152.288,1.371,1.371,0,0,1,.288,1.008,2.669,2.669,0,0,1-.288,1.008,1.551,1.551,0,0,1-1.152.288h-9.215a2.08,2.08,0,0,1-1.584-.432A2.316,2.316,0,0,1,130.4,61.7V49.027a2.806,2.806,0,0,1,.144-1.152,1.7,1.7,0,0,1,.72-.72c.432-.288.72-.144,1.152-.144h9.071a2.23,2.23,0,0,1,1.152.288,1.377,1.377,0,0,1,.288,1.008,2.669,2.669,0,0,1-.288,1.008,2.23,2.23,0,0,1-1.152.288" transform="translate(57.349 20.659)" fill="#fff"/>
    <path id="Tracé_713" data-name="Tracé 713" d="M144.612,48.96V61.054h6.911a3.438,3.438,0,0,1,1.3.288,1.555,1.555,0,0,1,.432,1.008,1.121,1.121,0,0,1-.432,1.008c-.288.288-.72.288-1.3.288h-8.207a2.08,2.08,0,0,1-1.584-.432,2.316,2.316,0,0,1-.432-1.584V48.672a1.911,1.911,0,0,1,.432-1.44,1.635,1.635,0,0,1,1.152-.432,2.01,2.01,0,0,1,1.3.432,3.42,3.42,0,0,1,.432,1.728" transform="translate(62.142 20.582)" fill="#fff"/>
    <path id="Tracé_714" data-name="Tracé 714" d="M154.512,48.872v4.751h7.343V48.872a1.911,1.911,0,0,1,.432-1.44A1.635,1.635,0,0,1,163.438,47a2.01,2.01,0,0,1,1.3.432,2.15,2.15,0,0,1,.432,1.44v13.1a1.911,1.911,0,0,1-.432,1.44,1.76,1.76,0,0,1-1.3.432c-.432,0-1.008-.144-1.152-.432a2.15,2.15,0,0,1-.432-1.44V56.359h-7.343v5.615a1.911,1.911,0,0,1-.432,1.44,1.76,1.76,0,0,1-1.3.432c-.432,0-1.008-.144-1.152-.432a3.409,3.409,0,0,1-.432-1.44v-13.1a1.911,1.911,0,0,1,.432-1.44A1.635,1.635,0,0,1,152.784,47a2.01,2.01,0,0,1,1.3.432,1.911,1.911,0,0,1,.432,1.44" transform="translate(66.496 20.67)" fill="#fff"/>
    <path id="Tracé_715" data-name="Tracé 715" d="M174.738,62.062l-.864-2.16h-6.911l-.864,2.16a4.6,4.6,0,0,1-.864,1.584c-.144.288-.72.432-1.152.432a1.635,1.635,0,0,1-1.152-.432,1.546,1.546,0,0,1-.288-1.728,3.662,3.662,0,0,1,.288-1.008l4.319-10.8a9.928,9.928,0,0,0,.432-1.152,9.924,9.924,0,0,1,.432-1.152c.144-.288.432-.432.864-.72a2.448,2.448,0,0,1,2.3,0,3.166,3.166,0,0,1,.864.72c.288.288.288.72.432,1.008a13.6,13.6,0,0,1,.432,1.3l4.463,10.8a6.5,6.5,0,0,1,.432,1.872,1.486,1.486,0,0,1-1.584,1.584,1.3,1.3,0,0,1-.72-.144c-.144-.144-.288-.144-.432-.288a2.344,2.344,0,0,1-.432-.864,2.142,2.142,0,0,0,0-1.008m-6.767-4.751h5.039L170.563,50.4Z" transform="translate(71.466 20.582)" fill="#fff"/>
    <path id="Tracé_716" data-name="Tracé 716" d="M183.527,56.192h-3.6a3.439,3.439,0,0,1-1.3-.288A1.555,1.555,0,0,1,178.2,54.9a1.121,1.121,0,0,1,.432-1.008c.288-.288.72-.288,1.3-.288h3.6a3.439,3.439,0,0,1,1.3.288,1.392,1.392,0,0,1,0,2.016,2.434,2.434,0,0,1-1.3.288" transform="translate(78.371 23.573)" fill="#fff"/>
    <path id="Tracé_717" data-name="Tracé 717" d="M192.012,48.96V61.054h6.911a3.438,3.438,0,0,1,1.3.288,1.555,1.555,0,0,1,.432,1.008,1.121,1.121,0,0,1-.432,1.008c-.288.288-.72.288-1.3.288h-8.207a2.08,2.08,0,0,1-1.584-.432,2.316,2.316,0,0,1-.432-1.584V48.672a1.911,1.911,0,0,1,.432-1.44,1.635,1.635,0,0,1,1.152-.432,2.01,2.01,0,0,1,1.3.432,3.42,3.42,0,0,1,.432,1.728" transform="translate(82.988 20.582)" fill="#fff"/>
    <path id="Tracé_718" data-name="Tracé 718" d="M198.7,61.974v-13.1a1.911,1.911,0,0,1,.432-1.44A1.635,1.635,0,0,1,200.284,47a2.01,2.01,0,0,1,1.3.432,2.15,2.15,0,0,1,.432,1.44v13.1a1.911,1.911,0,0,1-.432,1.44,1.76,1.76,0,0,1-1.3.432,1.635,1.635,0,0,1-1.152-.432c-.288-.144-.432-.576-.432-1.44" transform="translate(87.386 20.67)" fill="#fff"/>
    <path id="Tracé_719" data-name="Tracé 719" d="M216.634,58.982a4.43,4.43,0,0,1-.864,2.736,5.334,5.334,0,0,1-2.3,2.016,8.891,8.891,0,0,1-3.6.72,7.812,7.812,0,0,1-4.175-1.008,4.68,4.68,0,0,1-1.872-1.872,4.774,4.774,0,0,1-.72-2.16,1.121,1.121,0,0,1,.432-1.008,1.635,1.635,0,0,1,1.152-.432,2.669,2.669,0,0,1,1.008.288c.288.144.432.432.72,1.008a3.775,3.775,0,0,0,.72,1.3,5.379,5.379,0,0,0,1.008.864,5,5,0,0,0,1.872.288,3.328,3.328,0,0,0,2.448-.72,1.953,1.953,0,0,0,1.008-1.872,2.01,2.01,0,0,0-.432-1.3,4.086,4.086,0,0,0-1.3-.864,12.329,12.329,0,0,1-2.16-.72c-1.152-.288-2.16-.72-3.024-1.008a5.165,5.165,0,0,1-2.016-1.44,4.462,4.462,0,0,1-.72-2.448,3.387,3.387,0,0,1,.864-2.448,4.071,4.071,0,0,1,2.16-1.584,12.326,12.326,0,0,1,3.311-.72,11.748,11.748,0,0,1,2.592.288,10.972,10.972,0,0,1,1.872,1.008,9.315,9.315,0,0,1,1.152,1.3,5.342,5.342,0,0,1,.288,1.3,1.915,1.915,0,0,1-.432,1.152,1.635,1.635,0,0,1-1.152.432,1.544,1.544,0,0,1-.864-.288,3.583,3.583,0,0,1-.72-1.008,3.008,3.008,0,0,0-1.152-1.44,4.046,4.046,0,0,0-2.16-.432,2.827,2.827,0,0,0-2.16.72c-.432.432-.864.864-.864,1.3a1.544,1.544,0,0,0,.288.864,5.48,5.48,0,0,0,.864.72c.288.144.72.288,1.008.432s.864.144,1.584.432a11.167,11.167,0,0,1,2.592.72,13.072,13.072,0,0,1,2.016,1.008,4.221,4.221,0,0,1,1.3,1.44,3.588,3.588,0,0,1,.432,2.448" transform="translate(89.321 20.494)" fill="#fff"/>
    <path id="Tracé_720" data-name="Tracé 720" d="M221.655,63.7h-5.039a2.08,2.08,0,0,1-1.584-.432,2.316,2.316,0,0,1-.432-1.584V49.016a2.08,2.08,0,0,1,.432-1.584A2.316,2.316,0,0,1,216.616,47h5.471a10.2,10.2,0,0,1,2.16.144,11.677,11.677,0,0,1,1.584.432c.288.144.864.432,1.008.864a5.051,5.051,0,0,0,.72,1.152,3.987,3.987,0,0,1,.144,1.3,3.717,3.717,0,0,1-2.448,3.6c2.16.72,3.312,2.16,3.312,4.175a3.328,3.328,0,0,1-.72,2.448,3.724,3.724,0,0,1-2.016,1.584,18.783,18.783,0,0,1-1.872.432,3.1,3.1,0,0,1-2.3.576m-3.887-14.11v4.319h3.168a8.237,8.237,0,0,0,2.016-.144,1.422,1.422,0,0,0,1.008-1.008,2.712,2.712,0,0,0,.288-1.152c0-.864-.288-1.44-1.008-1.584a10.823,10.823,0,0,0-2.736-.432h-2.736Zm3.743,6.767h-3.6v4.9h3.6c2.3,0,3.456-.864,3.456-2.448a2.139,2.139,0,0,0-.864-1.872,4.618,4.618,0,0,0-2.592-.576" transform="translate(94.379 20.67)" fill="#fff"/>
    <path id="Tracé_721" data-name="Tracé 721" d="M233.719,46.8a8.207,8.207,0,0,1,4.463,1.008,5.64,5.64,0,0,1,2.736,3.024,9.091,9.091,0,0,1,1.008,4.607,14.506,14.506,0,0,1-.432,3.6,5.746,5.746,0,0,1-1.584,2.736,8.547,8.547,0,0,1-2.592,1.872,8.7,8.7,0,0,1-3.456.72,6.78,6.78,0,0,1-3.456-.72,5.76,5.76,0,0,1-2.592-1.872,8.532,8.532,0,0,1-1.584-2.736,14.2,14.2,0,0,1-.432-3.455,14.5,14.5,0,0,1,.432-3.6,7.22,7.22,0,0,1,1.584-2.736,7.531,7.531,0,0,1,2.592-1.872,12.265,12.265,0,0,1,3.312-.576m5.039,8.639a5.734,5.734,0,0,0-.72-3.168,4.523,4.523,0,0,0-1.584-2.016,4.854,4.854,0,0,0-2.448-.72,7.3,7.3,0,0,0-1.872.288,3.008,3.008,0,0,0-1.44,1.152,3.929,3.929,0,0,0-1.008,1.872,11.807,11.807,0,0,0,0,5.183,6.6,6.6,0,0,0,1.008,2.016,10.089,10.089,0,0,0,1.44,1.152,3.67,3.67,0,0,0,1.872.288,4.022,4.022,0,0,0,2.448-.72,6.367,6.367,0,0,0,1.872-2.016c.432-.432.432-2.016.432-3.312" transform="translate(99.305 20.582)" fill="#fff"/>
    <path id="Tracé_722" data-name="Tracé 722" d="M249.638,62.062l-.864-2.16h-6.911L241,62.062a4.6,4.6,0,0,1-.864,1.584c-.144.288-.72.432-1.152.432a1.635,1.635,0,0,1-1.152-.432,1.546,1.546,0,0,1-.288-1.728,3.663,3.663,0,0,1,.288-1.008l4.319-10.8a9.925,9.925,0,0,0,.432-1.152,9.926,9.926,0,0,1,.432-1.152c.144-.288.432-.432.864-.72a2.448,2.448,0,0,1,2.3,0,3.167,3.167,0,0,1,.864.72c.144.288.288.72.432,1.008a13.573,13.573,0,0,1,.432,1.3l4.463,10.8a6.5,6.5,0,0,1,.432,1.872,1.486,1.486,0,0,1-1.584,1.584,1.3,1.3,0,0,1-.72-.144c-.144-.144-.288-.144-.432-.288a2.344,2.344,0,0,1-.432-.864c.432-.576.288-.864,0-1.008m-6.623-4.751h5.039L245.607,50.4Z" transform="translate(104.406 20.582)" fill="#fff"/>
  </g>
</svg>
