<svg width="595" height="94" viewBox="0 0 595 94" fill="none" xmlns="http://www.w3.org/2000/svg"><path d="M30.1 40.8h-.6c-6 0-10.9-4.9-10.9-10.9V11.3c0-6 4.9-10.8 10.9-10.8h.6c5.5 0 10 4 10.8 9.3v.3c0 1.4-1 2.1-2.1 2.1-1 0-1.9-.6-2.2-1.9-.6-3.1-3.2-5.6-6.5-5.6h-.6c-3.6 0-6.5 2.9-6.5 6.5v18.6c0 3.6 2.9 6.5 6.5 6.5h.6c3.3 0 5.8-2.5 6.5-5.6.3-1.3 1.3-1.9 2.2-1.9 1.1 0 2.1.7 2.1 2.1v.4c-.8 5.4-5.3 9.5-10.8 9.5zm37.3-.4H49.5c-1.1 0-2.2-1-2.2-2.2V3c0-1.1 1-2.2 2.2-2.2h17.9c1.5 0 2.2 1.1 2.2 2.2s-.7 2.2-2.2 2.2H51.7v12.6h10.9c1.4 0 2.2 1.1 2.2 2.2s-.7 2.2-2.2 2.2H51.7v13.9h15.7c1.5 0 2.2 1.1 2.2 2.2 0 1-.7 2.1-2.2 2.1zm27.8.4c-.9 0-2.1 0-3-1.9L79.7 10.7v28c0 1.4-1.1 2.2-2.2 2.2s-2.2-.7-2.2-2.2V2.9c0-1.5 1.3-2.2 2.6-2.2s2.2.3 2.9 1.8l12.4 28.3v-28c0-1.4 1.1-2.2 2.2-2.2s2.1.7 2.1 2.2v35.5c.2 1.8-1 2.5-2.3 2.5zm26.6-35.6h-6.3v33.4c0 1.4-1.1 2.2-2.2 2.2s-2.2-.7-2.2-2.2V5.2h-6.3c-1.4 0-2.2-1.1-2.2-2.2s.7-2.2 2.2-2.2h16.9c1.4 0 2.2 1.1 2.2 2.2s-.7 2.2-2.1 2.2zm21.9 17.6l7.1 14.8c.2.3.2.7.2 1 0 1.2-.9 2.2-2.3 2.2-.7 0-1.4-.3-1.9-1.3L139 23.1h-5.8v15.5c0 1.4-1.1 2.2-2.2 2.2s-2.2-.7-2.2-2.2V3c0-1.1 1-2.2 2.2-2.2h9.6c6 0 10.9 4.9 10.9 10.9v.5c.1 5.1-3.1 9.3-7.8 10.6zm3.5-11.1c0-3.6-2.9-6.5-6.5-6.5h-7.4v13.6h7.7c3.6 0 6.3-2.9 6.3-6.5v-.6h-.1zm31.4 28.7h-17.9c-1.2 0-2.2-1-2.2-2.2V3c0-1.1 1-2.2 2.2-2.2h17.9c1.5 0 2.2 1.1 2.2 2.2s-.7 2.2-2.2 2.2h-15.7v12.6h10.9c1.4 0 2.2 1.1 2.2 2.2s-.7 2.2-2.2 2.2h-10.9v13.9h15.7c1.5 0 2.2 1.1 2.2 2.2 0 1-.7 2.1-2.2 2.1zm39.1-17.9h-7v16.1c0 1.4-1.1 2.2-2.2 2.2s-2.2-.7-2.2-2.2V3c0-1.1 1-2.2 2.2-2.2h9.2c6 0 10.9 4.8 10.9 10.8 0 6-4.9 10.9-10.9 10.9zm0-17.3h-7v12.9h7c3.6 0 6.5-2.9 6.5-6.5 0-3.5-2.9-6.4-6.5-6.4zm31.2 17.6l7.1 14.8c.2.3.2.7.2 1 0 1.2-.9 2.2-2.3 2.2-.7 0-1.4-.3-1.9-1.3l-7.8-16.4h-5.8v15.5c0 1.4-1.1 2.2-2.2 2.2s-2.2-.7-2.2-2.2V3c0-1.1 1-2.2 2.2-2.2h9.6c6 0 10.9 4.9 10.9 10.9v.5c.1 5.1-3.1 9.3-7.8 10.6zm3.5-11.1c0-3.6-2.9-6.5-6.5-6.5h-7.4v13.6h7.7c3.6 0 6.3-2.9 6.3-6.5v-.6h-.1zm14.1 29.1c-1.1 0-2.2-.7-2.2-2.2V2.7c0-1.4 1.1-2.2 2.2-2.2s2.2.7 2.2 2.2v35.9c0 1.4-1.1 2.2-2.2 2.2zm38.8 0c-1.1 0-2.2-.7-2.2-2.2v-28l-7.6 17.3c-.5 1-1.4 1.5-2.4 1.5s-2-.5-2.5-1.5l-7.8-17.3v28c0 1.4-1.1 2.2-2.2 2.2s-2.2-.7-2.2-2.2V3c0-1.5.6-2.5 2.6-2.5h.2c1.5 0 2.2.9 2.6 1.7l9.2 20.5 9.1-20.5c.3-.8 1-1.7 2.6-1.7h.2c1.9 0 2.5 1 2.5 2.5v35.6c0 1.4-1.1 2.2-2.1 2.2zm22 0h-.6c-6 0-10.9-4.9-10.9-10.9V11.4c0-6 4.9-10.8 10.9-10.8h.6c6 0 10.8 4.9 10.8 10.8v18.5c0 6-4.8 10.9-10.8 10.9zm6.4-29.4c0-3.6-2.9-6.5-6.5-6.5h-.6c-3.6 0-6.5 2.9-6.5 6.5v18.5c0 3.6 2.9 6.5 6.5 6.5h.6c3.6 0 6.5-2.9 6.5-6.5V11.4zm46.8 29.5h-15.6c-1.1 0-2.2-1-2.2-2.2V3.1c0-1.4 1.1-2.2 2.2-2.2s2.2.7 2.2 2.2v33.4h13.5c1.4 0 2.2 1.1 2.2 2.2-.2 1.1-.9 2.2-2.3 2.2zm28.1 0h-17.9c-1.1 0-2.2-1-2.2-2.2V3.5c0-1.1 1-2.2 2.2-2.2h17.9c1.5 0 2.2 1.1 2.2 2.2s-.7 2.2-2.2 2.2h-15.7v12.6h10.9c1.4 0 2.2 1.1 2.2 2.2s-.7 2.2-2.2 2.2h-10.9v13.9h15.7c1.5 0 2.2 1.1 2.2 2.2-.1 1-.8 2.1-2.2 2.1zm27.7-37.2l-8.9 35.8c-.3 1.1-1.3 1.7-2.3 1.7-1 0-2-.6-2.3-1.7l-9-35.8c-.1-.2-.1-.4-.1-.6 0-1.2.9-2.1 2.2-2.1.9 0 1.8.5 2.1 1.7l7 29.9 7-29.9c.3-1.1 1.2-1.7 2.1-1.7 1.3 0 2.3.9 2.3 2.1 0 .2 0 .4-.1.6zm9.3 37.6c-1.1 0-2.2-.7-2.2-2.2V3.2c0-1.4 1.1-2.2 2.2-2.2s2.2.7 2.2 2.2v35.9c-.1 1.4-1.1 2.2-2.2 2.2z" fill="#000"/><path d="M1.6 93.1c-.9 0-1.6-.7-1.6-1.6V1.6C0 .7.7 0 1.6 0c.9 0 1.6.7 1.6 1.6v89.9c0 .9-.7 1.6-1.6 1.6z" fill="#E95C35"/><path d="M31.1 91.6c-.1.5-.6.7-1 .7-.3 0-.9-.2-1-.7l-9.2-38.8v-.2c0-.4.3-.6.6-.6.2 0 .4.1.5.5l9.1 37.8 9.1-37.8c.1-.3.3-.5.5-.5.3 0 .6.2.6.6v.2l-9.2 38.8zm19.4.7c-.3 0-.6-.2-.6-.6v-39c0-.4.3-.6.6-.6s.6.2.6.6v39c.1.3-.2.6-.6.6zm21.4-.7c-.1.5-.6.7-1 .7-.3 0-.9-.2-1-.7l-9.2-38.8v-.2c0-.4.3-.6.6-.6.2 0 .4.1.5.5l9.1 37.8L80 52.5c.1-.3.3-.5.5-.5.3 0 .6.2.6.6v.2l-9.2 38.8zm29.8-18.7l8.8 18.5c.1.1.1.2.1.3 0 .3-.3.6-.6.6-.2 0-.4-.1-.5-.3l-9-19h-9.2v18.8c0 .3-.3.6-.6.6s-.6-.2-.6-.6v-39c0-.3.3-.6.6-.6h10.5c5.6 0 10.1 4.5 10.1 10v.6c-.2 5.4-4.3 9.8-9.6 10.1zm8.2-10.7c0-4.9-3.8-8.8-8.8-8.8h-10v18.3h10c4.9 0 8.8-4 8.8-8.9v-.6zm30.9 29.9h-19.5c-.3 0-.6-.3-.6-.6V52.8c0-.3.3-.6.6-.6h19.5c.4 0 .6.3.6.6s-.2.6-.6.6h-18.9v17.5h13.6c.4 0 .6.3.6.6s-.2.6-.6.6h-13.6v18.8h18.9c.4 0 .6.3.6.6s-.2.6-.6.6zm51.1.2c-.2 0-.5-.1-.5-.4L187.9 81h-17.5l-3.5 10.9c-.1.3-.3.4-.5.4-.3 0-.6-.2-.6-.6 0-.1 0-.1.1-.2l12.6-39.1c.1-.2.3-.4.7-.4.4 0 .6.2.7.4l12.6 39.1c.1.1.1.1.1.2 0 .3-.3.6-.7.6zm-12.7-38.2l-8.4 25.7h16.7l-8.3-25.7zm32 18.1h-9.4v19.5c0 .3-.3.6-.6.6s-.6-.2-.6-.6V52.8c0-.3.3-.6.6-.6h10.1c5.6 0 10 4.5 10 10-.1 5.6-4.5 10-10.1 10zm0-18.8h-9.4V71h9.4c4.9 0 8.8-3.9 8.8-8.8s-3.9-8.8-8.8-8.8zm29.4 19.5l8.8 18.5c.1.1.1.2.1.3 0 .3-.3.6-.6.6-.2 0-.4-.1-.5-.3l-9-19h-9.2v18.8c0 .3-.3.6-.6.6s-.6-.2-.6-.6v-39c0-.3.3-.6.6-.6h10.5c5.5 0 10.1 4.5 10.1 10v.6c-.2 5.4-4.3 9.8-9.6 10.1zm8.2-10.7c0-4.9-3.8-8.8-8.8-8.8h-10v18.3h10c4.9 0 8.8-4 8.8-8.9v-.6zm30.9 29.9h-19.5c-.3 0-.6-.3-.6-.6V52.8c0-.3.3-.6.6-.6h19.5c.4 0 .6.3.6.6s-.2.6-.6.6h-18.9v17.5h13.6c.4 0 .6.3.6.6s-.2.6-.6.6h-13.6v18.8h18.9c.4 0 .6.3.6.6s-.2.6-.6.6zm-3.1-43.2c-.1.2-.3.3-.5.3-.1 0-.2-.1-.3-.1l-12.2-7.4c-.2-.1-.3-.3-.3-.5 0-.1.1-.2.1-.3.1-.2.3-.3.5-.3.1 0 .2 0 .3.1l12.2 7.4c.2.1.3.3.3.5 0 .1 0 .2-.1.3zM296 92.3h-.6c-5.5 0-10.1-3.7-10.1-10 0-.8 1.2-.8 1.2 0 0 5.6 3.9 8.8 8.9 8.8h.6c5.2 0 9.2-3.1 9.2-8.2 0-13-19.5-10-19.5-21.7 0-5.6 4.3-9.1 9.7-9.1h.6c5.3 0 9.7 3.5 9.7 8.5 0 .8-1.2.8-1.2.1 0-4.4-3.7-7.4-8.5-7.4h-.6c-4.7 0-8.5 3-8.5 8 0 10.6 19.5 7.8 19.5 21.6-.1 5.7-4.6 9.4-10.4 9.4zm34.2-.2c-.3 0-.6-.3-.6-.6V52.6c0-.7 1.2-.7 1.2 0v38.3h16.4c.8 0 .8 1.2 0 1.2h-17zm47.4.1c-.2 0-.5-.1-.5-.4l-3.5-10.9h-17.5l-3.5 10.9c-.1.3-.3.4-.5.4-.3 0-.6-.2-.6-.6 0-.1 0-.1.1-.2l12.6-39.1c.1-.2.3-.4.7-.4.4 0 .6.2.7.4l12.6 39.1c.1.1.1.1.1.2-.1.4-.4.6-.7.6zm-12.8-38.1l-8.4 25.7h16.7l-8.3-25.7zm47-.7v38.3c0 .8-1.2.8-1.2 0V53.4H402c-.8 0-.8-1.2 0-1.2h18.4c.7 0 .7 1.2 0 1.2h-8.6zm24.8 38.8h-.6c-5.5 0-10-4.5-10-10.1V62c0-5.6 4.5-10 10-10h.6c5.6 0 10.1 4.5 10.1 10v20.1c-.1 5.6-4.6 10.1-10.1 10.1zm8.8-30.2c0-4.9-3.9-8.8-8.9-8.8h-.6c-4.9 0-8.8 3.9-8.8 8.8v20.1c0 4.9 3.9 8.9 8.8 8.9h.6c4.9 0 8.9-3.9 8.9-8.9V62zm24.4 10.9l8.8 18.5c.1.1.1.2.1.3 0 .3-.3.6-.6.6-.2 0-.4-.1-.5-.3l-9-19h-9.2v18.8c0 .3-.3.6-.6.6s-.6-.2-.6-.6v-39c0-.3.3-.6.6-.6h10.5c5.5 0 10.1 4.5 10.1 10v.6c-.2 5.4-4.3 9.8-9.6 10.1zm8.2-10.7c0-4.9-3.8-8.8-8.8-8.8h-10v18.3h10c4.9 0 8.8-3.9 8.8-8.9v-.6zm15.5-8.8v38.3c0 .8-1.2.8-1.2 0V53.4h-8.6c-.8 0-.8-1.2 0-1.2h18.5c.7 0 .7 1.2 0 1.2h-8.7zm26.8 38.8h-.6c-5.6 0-10.1-4.5-10.1-10.1V52.5c0-.4.3-.6.6-.6s.6.2.6.6v29.6c0 4.9 3.9 8.9 8.9 8.9h.6c4.9 0 8.9-4 8.9-8.9V52.5c0-.4.3-.6.6-.6s.6.2.6.6v29.6c0 5.6-4.6 10.1-10.1 10.1zm34.3-19.3l8.8 18.5c.1.1.1.2.1.3 0 .3-.3.6-.6.6-.2 0-.4-.1-.5-.3l-9-19h-9.2v18.8c0 .3-.3.6-.6.6s-.6-.2-.6-.6v-39c0-.3.3-.6.6-.6h10.5c5.5 0 10.1 4.5 10.1 10v.6c-.1 5.4-4.3 9.8-9.6 10.1zm8.3-10.7c0-4.9-3.8-8.8-8.8-8.8h-10v18.3h10c4.9 0 8.8-3.9 8.8-8.9v-.6zm30.8 29.9h-19.5c-.3 0-.6-.3-.6-.6V52.8c0-.3.3-.6.6-.6h19.5c.4 0 .6.3.6.6s-.2.6-.6.6h-18.9v17.4h13.6c.4 0 .6.3.6.6s-.2.6-.6.6h-13.6v18.8h18.9c.4 0 .6.3.6.6 0 .4-.2.7-.6.7z" fill="#000"/></svg>