<?xml version="1.0" standalone="no"?>
<!DOCTYPE svg PUBLIC "-//W3C//DTD SVG 20010904//EN"
 "http://www.w3.org/TR/2001/REC-SVG-20010904/DTD/svg10.dtd">
<svg version="1.0" xmlns="http://www.w3.org/2000/svg"
 width="799.000000pt" height="312.000000pt" viewBox="0 0 799.000000 312.000000"
 preserveAspectRatio="xMidYMid meet">

<g transform="translate(0.000000,312.000000) scale(0.100000,-0.100000)"
fill="#000000" stroke="none">
<path d="M2118 2705 c-15 -15 -1035 -26 -1468 -15 -91 2 -175 0 -188 -4 l-22
-7 5 -187 c6 -203 7 -211 19 -230 4 -7 5 -30 0 -50 -4 -20 -6 -68 -5 -107 5
-179 11 -294 17 -342 5 -37 3 -53 -5 -53 -7 0 -11 21 -12 53 l-2 52 -7 -45
c-4 -25 -4 -65 -1 -90 l5 -45 7 35 c6 26 6 23 3 -15 -2 -27 -7 -85 -10 -129
-4 -45 -10 -73 -14 -66 -4 7 -7 -218 -6 -501 l2 -514 169 -5 c256 -8 425 -1
418 16 -4 11 7 13 51 11 48 -2 54 -4 39 -15 -14 -10 75 -12 477 -12 272 1 623
4 779 7 l284 6 -9 151 c-4 83 -8 171 -7 196 2 141 4 921 2 955 -3 65 -3 451 0
712 l3 241 -260 0 c-143 0 -262 -1 -264 -3z m-251 -315 c65 -23 142 -67 198
-115 l39 -32 -33 -74 c-96 -210 -121 -257 -148 -274 -18 -12 -64 -22 -135 -30
l-107 -11 -38 50 c-113 149 -114 157 -42 317 28 63 60 134 70 158 l19 44 60
-6 c33 -4 85 -16 117 -27z m-485 -228 c87 -119 192 -264 234 -322 150 -205
164 -228 164 -273 0 -31 -21 -90 -81 -222 -44 -99 -128 -286 -186 -415 -58
-129 -109 -239 -113 -244 -25 -25 -302 86 -378 151 l-32 28 95 209 c52 115 93
211 92 213 -4 3 -333 -30 -423 -42 l-42 -6 -23 83 c-24 87 -39 330 -22 355 6
8 86 20 218 33 116 12 218 25 229 28 16 7 3 28 -96 162 -62 85 -124 170 -137
188 l-24 34 44 45 c65 67 152 131 236 175 41 21 77 38 81 38 4 0 78 -98 164
-218z m1007 -315 c24 -63 44 -201 43 -305 0 -63 -2 -116 -5 -118 -2 -2 -106
-15 -231 -28 -125 -13 -229 -25 -231 -27 -3 -4 30 -51 193 -272 34 -47 65 -92
68 -100 12 -32 -151 -170 -274 -233 -88 -44 -67 -58 -213 145 l-103 143 17 42
c8 22 55 127 102 231 83 183 86 192 83 252 -4 64 -9 74 -91 185 -11 15 -18 30
-16 33 3 2 147 20 320 38 173 19 317 35 322 36 4 0 11 -9 16 -22z m-1389
-1387 c0 -6 -29 -10 -67 -9 -50 1 -61 3 -43 9 36 12 110 12 110 0z"/>
<path d="M1132 2263 c-78 -48 -182 -131 -182 -146 0 -7 55 -87 123 -178 67
-91 136 -186 154 -211 l32 -45 -102 -11 c-56 -7 -175 -19 -264 -28 l-162 -17
-3 -36 c-4 -51 8 -187 22 -235 l11 -41 261 27 c144 15 263 26 265 24 2 -1 -44
-108 -103 -237 -58 -129 -106 -238 -107 -243 -5 -26 262 -141 282 -120 20 19
352 770 353 796 1 15 -12 46 -28 69 -25 37 -426 586 -472 647 l-17 23 -63 -38z"/>
<path d="M2885 2668 c-3 -13 -4 -174 -3 -358 l3 -335 69 -3 c49 -2 72 1 77 10
5 7 9 64 9 126 l0 112 108 0 c92 0 114 4 158 24 82 38 124 110 124 211 0 96
-40 168 -113 208 -39 20 -58 22 -234 25 l-192 4 -6 -24z m355 -138 c42 -23 47
-117 6 -145 -30 -22 -206 -21 -207 0 0 8 0 35 0 60 0 106 -11 95 92 95 50 0
99 -4 109 -10z"/>
<path d="M3515 2678 c-3 -7 -4 -168 -3 -358 l3 -345 70 0 70 0 3 128 3 127 54
0 55 0 65 -130 65 -130 74 0 c41 0 77 4 80 9 3 5 -22 68 -57 141 -44 94 -58
134 -49 138 26 8 73 56 91 91 57 112 18 260 -83 314 -37 20 -58 22 -239 25
-157 3 -198 1 -202 -10z m375 -158 c20 -20 28 -83 12 -106 -16 -25 -56 -34
-146 -34 l-96 0 0 80 0 80 105 0 c92 0 108 -3 125 -20z"/>
<path d="M4175 2678 c-3 -7 -4 -168 -3 -358 l3 -345 245 0 245 0 3 49 c6 101
16 96 -178 96 l-170 0 0 80 0 80 95 0 96 0 -3 73 -3 72 -92 3 -93 3 0 54 0 55
163 2 162 3 0 70 0 70 -233 3 c-181 2 -234 0 -237 -10z"/>
<path d="M4767 2683 c-4 -3 -7 -165 -7 -360 l0 -353 70 0 70 0 1 173 c0 120 3
168 10 157 6 -8 41 -87 78 -175 53 -124 73 -161 88 -163 17 -3 31 21 93 165
40 92 76 172 81 178 5 5 9 -64 9 -163 l0 -173 73 3 72 3 0 355 0 355 -72 3
-72 3 -19 -38 c-10 -21 -50 -113 -87 -205 -38 -93 -71 -168 -74 -168 -3 0 -42
87 -85 193 -44 105 -84 198 -89 205 -10 13 -128 18 -140 5z"/>
<path d="M5535 2668 c-3 -13 -4 -174 -3 -358 l3 -335 73 -3 72 -3 -2 358 -3
358 -67 3 c-63 3 -68 1 -73 -20z"/>
<path d="M5815 2678 c-3 -7 -4 -168 -3 -358 l3 -345 245 0 245 0 0 70 0 70
-173 3 -173 2 3 78 3 77 90 3 c56 2 92 7 97 15 12 19 9 112 -4 125 -8 8 -45
12 -100 12 l-88 0 0 55 0 55 163 2 162 3 0 70 0 70 -233 3 c-181 2 -234 0
-237 -10z"/>
<path d="M6407 2684 c-4 -4 -7 -167 -7 -361 l0 -354 73 3 72 3 3 128 3 127 54
0 55 0 65 -130 65 -130 74 0 c45 0 78 5 82 11 4 7 -22 70 -57 142 -51 103 -61
131 -49 135 32 11 98 88 109 127 32 117 -9 228 -102 278 -39 20 -58 22 -237
25 -107 2 -199 0 -203 -4z m373 -164 c20 -20 28 -83 12 -106 -16 -25 -56 -34
-146 -34 l-96 0 0 80 0 80 105 0 c92 0 108 -3 125 -20z"/>
<path d="M7065 2678 c-3 -7 -4 -168 -3 -358 l3 -345 245 0 245 0 3 58 c2 35
-2 64 -9 73 -9 11 -46 14 -176 14 l-164 0 3 78 3 77 93 3 93 3 -3 72 -3 72
-92 3 -93 3 0 54 0 55 163 2 162 3 0 70 0 70 -233 3 c-181 2 -234 0 -237 -10z"/>
<path d="M4517 1806 c-182 -49 -285 -275 -233 -509 41 -184 175 -289 350 -275
163 13 259 118 273 296 3 44 3 91 -1 106 l-6 26 -135 0 c-154 0 -149 4 -143
-101 l3 -54 53 -3 c42 -2 52 -6 52 -21 0 -30 -39 -70 -80 -82 -114 -34 -199
48 -208 202 -6 100 15 172 63 219 34 33 40 35 101 35 63 0 66 -1 105 -42 36
-38 43 -42 62 -31 47 24 107 70 107 80 0 23 -52 87 -91 112 -44 30 -136 56
-189 55 -19 0 -57 -6 -83 -13z"/>
<path d="M6581 1805 c-108 -31 -191 -119 -227 -244 -23 -78 -15 -256 15 -332
28 -72 89 -142 155 -177 45 -24 62 -27 146 -27 84 0 101 3 146 27 44 23 134
109 134 127 -1 20 -97 91 -124 91 -8 0 -24 -13 -35 -29 -30 -42 -84 -65 -138
-57 -61 8 -96 36 -123 97 -19 44 -21 66 -18 148 5 150 47 210 152 219 53 4 55
3 104 -42 l50 -47 61 38 c72 45 76 62 26 121 -71 82 -208 119 -324 87z"/>
<path d="M2892 1798 c-19 -19 -17 -486 3 -561 39 -152 149 -227 314 -215 154
11 249 102 272 260 5 35 9 161 9 280 0 184 -2 219 -16 232 -19 20 -126 22
-142 3 -7 -8 -12 -107 -14 -267 -3 -224 -5 -259 -21 -288 -33 -61 -129 -79
-193 -37 -49 32 -54 63 -54 334 0 237 -1 251 -19 261 -27 14 -124 13 -139 -2z"/>
<path d="M3622 1797 c-9 -11 -12 -106 -10 -388 l3 -374 68 -3 c39 -2 74 2 82
8 9 7 13 46 13 133 1 67 1 126 2 130 0 4 25 7 57 5 l56 -3 69 -137 70 -138 79
0 c65 0 81 3 86 16 4 10 -20 70 -61 153 -38 74 -63 137 -58 139 38 12 81 54
105 101 36 73 38 163 3 236 -28 60 -46 77 -111 107 -45 20 -69 23 -245 26
-163 3 -198 2 -208 -11z m377 -165 c57 -28 64 -102 14 -142 -22 -17 -41 -20
-129 -20 l-102 0 -4 80 c-2 44 -1 85 0 90 6 18 183 12 221 -8z"/>
<path d="M5012 1798 c-19 -19 -17 -741 2 -757 9 -8 88 -11 267 -9 l254 3 0 75
0 75 -182 3 -183 2 0 85 0 85 99 0 c112 0 111 -1 111 80 0 81 1 80 -111 80
l-99 0 0 60 0 60 168 0 c117 0 172 4 180 12 15 15 16 112 2 139 -10 18 -24 19
-253 19 -176 0 -246 -3 -255 -12z"/>
<path d="M5648 1799 c-17 -9 -18 -38 -18 -377 0 -273 3 -371 12 -380 17 -17
132 -16 147 1 7 9 12 89 13 224 l3 211 95 -149 c52 -82 116 -182 141 -222 l46
-72 74 0 74 0 3 374 c2 267 -1 378 -9 387 -12 14 -103 20 -133 8 -14 -5 -16
-35 -16 -225 0 -120 -3 -219 -7 -219 -5 0 -66 96 -138 212 -71 116 -136 217
-143 224 -16 16 -118 18 -144 3z"/>
<path d="M7056 1794 c-14 -13 -16 -62 -16 -378 0 -296 3 -366 14 -375 9 -8 88
-11 267 -9 l254 3 0 75 0 75 -182 3 -183 2 0 85 0 84 98 3 97 3 3 78 3 77
-101 0 -100 0 0 60 0 60 173 2 172 3 3 74 c2 53 -1 77 -10 82 -7 5 -117 9
-245 9 -197 0 -234 -2 -247 -16z"/>
<path d="M5895 880 c-67 -15 -117 -64 -136 -133 -15 -58 -7 -154 17 -202 64
-125 244 -124 308 0 25 48 33 157 16 209 -30 91 -120 146 -205 126z m95 -116
c34 -33 40 -134 11 -181 -37 -59 -112 -55 -144 7 -24 46 -19 140 9 171 39 44
80 45 124 3z"/>
<path d="M2890 670 l0 -211 43 3 42 3 0 205 0 205 -43 3 -42 3 0 -211z"/>
<path d="M3050 671 l0 -211 45 0 45 0 0 122 0 122 78 -122 77 -122 43 0 42 0
-2 208 -3 207 -42 3 -42 3 -3 -122 -3 -123 -75 120 -75 119 -43 3 -42 3 0
-210z"/>
<path d="M3424 866 c-3 -8 -4 -27 -2 -43 3 -27 6 -28 61 -31 l57 -3 0 -164 0
-165 45 0 45 0 0 165 0 165 55 0 55 0 0 45 0 45 -155 0 c-125 0 -157 -3 -161
-14z"/>
<path d="M3790 670 l0 -211 143 3 142 3 0 35 0 35 -97 3 -98 3 0 49 0 50 55 0
55 0 0 40 c0 43 0 42 -65 44 -37 1 -40 3 -43 33 l-3 32 93 3 93 3 0 40 0 40
-137 3 -138 3 0 -211z"/>
<path d="M4130 670 l0 -210 45 0 45 0 0 75 0 75 30 0 c28 0 33 -7 67 -75 l37
-75 48 0 c26 0 48 5 48 10 0 6 -16 43 -36 82 -28 56 -33 73 -22 79 7 5 17 9
21 9 4 0 17 21 28 46 26 58 19 113 -21 153 -35 35 -65 41 -191 41 l-99 0 0
-210z m231 96 c8 -17 8 -29 0 -45 -10 -18 -21 -21 -76 -21 l-65 0 0 45 0 45
65 0 c59 0 66 -2 76 -24z"/>
<path d="M4520 670 l0 -211 43 3 42 3 -1 113 c-1 61 2 112 6 112 4 0 40 -52
80 -116 l73 -115 41 3 41 3 0 205 0 205 -42 3 -43 3 0 -122 c0 -84 -3 -120
-10 -113 -6 6 -41 60 -79 120 -67 108 -68 109 -109 112 l-42 3 0 -211z"/>
<path d="M5029 853 c-22 -58 -139 -385 -139 -389 0 -3 21 -4 47 -2 45 3 47 4
61 46 l14 42 68 0 68 0 14 -42 c14 -42 16 -43 62 -46 56 -4 61 -32 -34 228
l-67 185 -42 3 c-37 3 -42 0 -52 -25z m69 -162 c17 -56 16 -61 -24 -61 -25 0
-34 4 -30 13 2 6 10 29 17 50 7 20 15 37 19 37 4 0 12 -17 18 -39z"/>
<path d="M5247 874 c-4 -4 -7 -25 -7 -46 l0 -38 55 0 55 0 2 -162 3 -163 43
-3 42 -3 0 165 0 165 58 3 57 3 0 40 0 40 -151 3 c-82 1 -153 -1 -157 -4z"/>
<path d="M5604 867 c-2 -7 -3 -100 -2 -207 l3 -195 43 -3 42 -3 0 210 0 211
-40 0 c-24 0 -43 -5 -46 -13z"/>
<path d="M6168 868 c-3 -7 -4 -101 -4 -208 l1 -195 42 -3 42 -3 3 123 3 123
78 -123 c79 -122 79 -122 118 -122 l39 0 0 210 0 210 -40 0 -40 0 0 -120 c0
-66 -3 -120 -7 -120 -5 1 -41 55 -81 120 -73 120 -73 120 -111 120 -22 0 -41
-5 -43 -12z"/>
<path d="M6686 871 c-9 -14 -146 -392 -146 -402 0 -5 20 -9 44 -9 42 0 44 1
60 45 l18 45 68 0 67 0 13 -45 13 -45 48 0 c27 0 49 2 49 3 0 2 -34 96 -75
208 -41 112 -75 205 -75 206 0 8 -80 2 -84 -6z m54 -166 c5 -14 13 -37 16 -50
6 -23 3 -25 -30 -25 -20 0 -36 1 -36 3 0 10 33 97 36 97 3 0 9 -11 14 -25z"/>
<path d="M6967 873 c-4 -3 -7 -98 -7 -210 l0 -203 141 0 140 0 -3 43 -3 42
-85 2 c-47 1 -88 2 -92 3 -5 0 -8 74 -8 165 l0 165 -38 0 c-21 0 -42 -3 -45
-7z"/>
<path d="M7297 874 c-4 -4 -7 -99 -7 -211 l0 -203 145 0 145 0 0 40 0 39 -97
3 -98 3 -3 48 -3 47 56 0 56 0 -3 43 c-3 41 -4 42 -38 43 -71 3 -70 3 -70 34
l0 29 98 3 97 3 0 40 0 40 -136 3 c-74 1 -138 -1 -142 -4z"/>
</g>
</svg>
