<?xml version="1.0" encoding="utf-8"?>
<!-- Generator: Adobe Illustrator 26.2.1, SVG Export Plug-In . SVG Version: 6.00 Build 0)  -->
<svg version="1.1" id="Calque_1" xmlns="http://www.w3.org/2000/svg" xmlns:xlink="http://www.w3.org/1999/xlink" x="0px" y="0px"
	 width="111px" height="45px" viewBox="0 0 111 45" style="enable-background:new 0 0 111 45;" xml:space="preserve">
<style type="text/css">
	.st0{fill:#FFFFFF;}
	.st1{fill:url(#Tracé_18414_00000097502520974957677540000008746949732268412337_);}
</style>
<g>
	<g id="Plan_de_travail_2">
		<g id="Groupe_1314" transform="translate(-342 -434.878)">
			<path id="Tracé_18420" class="st0" d="M343.1,474.5h-1.2v5.3h3.5v-1h-2.3V474.5z"/>
			<path id="Tracé_18421" class="st0" d="M348.3,474.5l-2.1,5.3h1.2l0.3-0.9h2.1l0.3,0.9h1.2l-2.1-5.3H348.3z M348.1,477.9l0.7-1.9
				l0.7,1.9H348.1z"/>
			<path id="Tracé_18422" class="st0" d="M356.6,478.1l-1.3-3.6H354l2,5.3h1l2.1-5.3h-1.2L356.6,478.1z"/>
			<path id="Tracé_18423" class="st0" d="M364.6,475.2c-0.3-0.2-0.6-0.4-0.9-0.6c-0.3-0.1-0.7-0.2-1.1-0.2c-0.4,0-0.7,0.1-1.1,0.2
				c-0.7,0.3-1.2,0.8-1.5,1.4c-0.3,0.7-0.3,1.5,0,2.1c0.1,0.3,0.3,0.6,0.6,0.9c0.3,0.3,0.6,0.4,0.9,0.6c0.3,0.1,0.7,0.2,1.1,0.2
				c0.4,0,0.7-0.1,1.1-0.2c0.3-0.1,0.6-0.3,0.9-0.6c0.2-0.2,0.4-0.5,0.6-0.9c0.1-0.3,0.2-0.7,0.2-1.1c0-0.4-0.1-0.7-0.2-1.1
				C365,475.8,364.9,475.5,364.6,475.2 M364,478c-0.1,0.2-0.3,0.4-0.5,0.6c-0.2,0.1-0.5,0.2-0.8,0.2c-0.2,0-0.4,0-0.6-0.1
				c-0.2-0.1-0.4-0.2-0.5-0.3c-0.1-0.2-0.3-0.3-0.3-0.5c-0.1-0.2-0.1-0.4-0.1-0.7c0-0.3,0.1-0.6,0.2-0.9c0.1-0.2,0.3-0.4,0.5-0.6
				c0.3-0.1,0.5-0.2,0.8-0.2c0.2,0,0.4,0,0.6,0.1c0.2,0.1,0.4,0.2,0.5,0.3c0.1,0.2,0.3,0.3,0.3,0.5c0.1,0.2,0.1,0.4,0.1,0.7
				C364.2,477.5,364.1,477.8,364,478"/>
			<rect id="Rectangle_2068" x="366.7" y="474.5" class="st0" width="1.2" height="5.3"/>
			<path id="Tracé_18424" class="st0" d="M370.7,477.6h2.3v-1h-2.3v-1.1h2.6v-1h-3.8v5.3h3.8v-1h-2.6V477.6z"/>
			<path id="Tracé_18425" class="st0" d="M380.8,475.3c-0.3-0.2-0.6-0.4-0.9-0.5c-0.4-0.1-0.7-0.2-1.1-0.2h-2.1v5.3h2.1
				c0.4,0,0.7-0.1,1.1-0.2c0.3-0.1,0.6-0.3,0.9-0.5c0.2-0.2,0.4-0.5,0.6-0.8c0.3-0.7,0.3-1.4,0-2.1
				C381.3,475.8,381.1,475.5,380.8,475.3 M380.2,478c-0.1,0.2-0.3,0.4-0.5,0.6c-0.3,0.1-0.5,0.2-0.8,0.2h-0.9v-3.2h0.9
				c0.3,0,0.6,0.1,0.8,0.2c0.2,0.1,0.4,0.3,0.6,0.6c0.1,0.3,0.2,0.6,0.2,0.9C380.4,477.4,380.3,477.7,380.2,478"/>
			<path id="Tracé_18426" class="st0" d="M384.1,477.6h2.4v-1h-2.4v-1.1h2.6v-1h-3.8v5.3h3.8v-1h-2.6V477.6z"/>
			<path id="Tracé_18427" class="st0" d="M391.1,477.1c-0.1-0.1-0.3-0.2-0.5-0.3c-0.2-0.1-0.4-0.1-0.5-0.2
				c-0.2-0.1-0.3-0.1-0.5-0.2c-0.1,0-0.2-0.1-0.4-0.2c-0.1-0.1-0.1-0.2-0.1-0.3c0-0.1,0.1-0.3,0.2-0.3c0.1-0.1,0.3-0.1,0.5-0.1
				c0.2,0,0.4,0,0.5,0.1c0.2,0.1,0.3,0.2,0.5,0.4l0.8-0.8c-0.2-0.2-0.5-0.4-0.8-0.5c-0.3-0.1-0.7-0.2-1-0.2c-0.3,0-0.7,0.1-1,0.2
				c-0.6,0.2-0.9,0.8-0.9,1.4c0,0.2,0,0.5,0.1,0.7c0.1,0.2,0.2,0.3,0.4,0.4c0.1,0.1,0.3,0.2,0.5,0.3c0.2,0.1,0.3,0.1,0.5,0.2
				c0.2,0.1,0.3,0.1,0.5,0.2c0.1,0.1,0.3,0.1,0.4,0.2c0.1,0.1,0.1,0.2,0.1,0.3c0,0.2-0.1,0.3-0.2,0.4c-0.2,0.1-0.4,0.1-0.6,0.1
				c-0.2,0-0.5,0-0.7-0.2c-0.2-0.1-0.4-0.3-0.6-0.5l-0.8,0.8c0.2,0.3,0.5,0.5,0.8,0.6c0.4,0.1,0.7,0.2,1.1,0.2
				c0.5,0,1.1-0.1,1.5-0.4c0.4-0.3,0.6-0.7,0.5-1.2c0-0.2,0-0.5-0.1-0.7C391.4,477.4,391.3,477.2,391.1,477.1"/>
			<path id="Tracé_18428" class="st0" d="M398.1,474.7c-0.3-0.1-0.6-0.2-0.9-0.2h-2.2v5.3h1.2v-1.9h1c0.3,0,0.6-0.1,0.9-0.2
				c0.3-0.1,0.5-0.3,0.6-0.6c0.2-0.3,0.2-0.6,0.2-0.9c0-0.3-0.1-0.6-0.2-0.9C398.5,475.1,398.3,474.9,398.1,474.7 M397.6,476.6
				c-0.1,0.1-0.2,0.2-0.3,0.3c-0.1,0.1-0.3,0.1-0.4,0.1h-0.9v-1.5h0.9c0.1,0,0.3,0,0.4,0.1c0.1,0.1,0.2,0.1,0.3,0.3
				c0.1,0.1,0.1,0.3,0.1,0.4C397.8,476.3,397.7,476.5,397.6,476.6"/>
			<path id="Tracé_18429" class="st0" d="M402.9,477.4l-1.9-2.9h-0.9v5.3h1.2v-2.9l1.1,1.8h0.8l1.1-1.8v2.9h1.2v-5.3h-0.9
				L402.9,477.4z"/>
			<path id="Tracé_18430" class="st0" d="M408.3,478.8v-1.2h2.4v-1h-2.4v-1.1h2.6v-1h-3.8v5.3h3.8v-1H408.3z"/>
			<g id="Groupe_1199" transform="translate(342 434.893)">
				
					<linearGradient id="Tracé_18414_00000178903227775570743990000018401744963937497253_" gradientUnits="userSpaceOnUse" x1="-875.5367" y1="538.6484" x2="-876.5367" y2="539.2933" gradientTransform="matrix(32.945 0 0 -22.002 28927.8945 11878.498)">
					<stop  offset="0" style="stop-color:#FFFFFF"/>
					<stop  offset="1" style="stop-color:#FFFFFF;stop-opacity:0.7"/>
				</linearGradient>
				<path id="Tracé_18414" style="fill:url(#Tracé_18414_00000178903227775570743990000018401744963937497253_);" d="M72.8,8.7
					c-5.7,0-9.7,3.2-9.7,7.7V23c0,1.9-1.4,3.1-3.8,3.1s-3.8-1.2-3.8-3.1V11h-5.9v12c0,4.5,4,7.7,9.7,7.7S69,27.5,69,23v-6.6
					c0-1.9,1.4-3.1,3.8-3.1s3.8,1.2,3.8,3.1v14.1h5.9V16.4C82.5,11.8,78.5,8.7,72.8,8.7L72.8,8.7z"/>
				<path id="Tracé_18415" class="st0" d="M16.2,30.4l-4.9-7H5.8v7h-5.9V5.1H11c2,0,4,0.3,5.9,1.1c1.6,0.7,2.9,1.8,3.9,3.2
					c0.9,1.5,1.4,3.2,1.3,4.9c0,1.7-0.4,3.4-1.4,4.9c-1,1.4-2.3,2.5-3.9,3.1l5.7,8.1H16.2z M14.7,11c-1.2-0.8-2.6-1.2-4.1-1.1H5.8
					v8.8h4.8c1.4,0.1,2.9-0.3,4.1-1.2c0.9-0.8,1.5-2,1.4-3.2C16.2,13.1,15.7,11.9,14.7,11"/>
				<path id="Tracé_18416" class="st0" d="M107.1,11.4c1.3-0.5,2.6-0.7,4-0.7v5.2c-0.6,0-1.1-0.1-1.3-0.1c-1.4-0.1-2.8,0.4-3.8,1.4
					c-1,1.1-1.5,2.6-1.4,4.1v9.2h-5.7l0-19.4h5.5v2.6C105,12.6,106,11.9,107.1,11.4"/>
				<path id="Tracé_18417" class="st0" d="M87.9,11h5.7v19.4h-5.7V11z M93.9,3.2c0,1.8-1.4,3.2-3.2,3.2c-1.8,0-3.2-1.4-3.2-3.2
					C87.5,1.4,89,0,90.7,0C92.5,0,93.9,1.4,93.9,3.2"/>
				<path id="Tracé_18418" class="st0" d="M45.5,22.3H30.6c0.2,1.2,0.9,2.2,1.9,2.9c1.1,0.7,2.4,1.1,3.7,1c0.9,0,1.9-0.1,2.7-0.5
					c0.8-0.3,1.6-0.8,2.2-1.4l3,3.2c-1.9,2.1-4.6,3.1-8.1,3.1c-2,0-4.1-0.4-5.9-1.3c-1.6-0.8-3-2-4-3.6c-0.9-1.6-1.4-3.3-1.4-5.2
					c0-1.8,0.5-3.6,1.4-5.1c0.9-1.5,2.2-2.8,3.8-3.6c3.3-1.7,7.2-1.7,10.6-0.1c1.5,0.8,2.8,2,3.7,3.5c0.9,1.6,1.4,3.5,1.3,5.3
					C45.6,21.3,45.6,21.8,45.5,22.3 M32.2,16c-0.9,0.7-1.5,1.8-1.6,3h9.7c-0.2-1.1-0.7-2.2-1.6-2.9c-0.9-0.7-2-1.1-3.2-1.1
					C34.3,14.9,33.1,15.3,32.2,16"/>
				<path id="Tracé_18419" class="st0" d="M29.6,5.1L39.1,0L41,3.4l-9.5,5.1L29.6,5.1z"/>
			</g>
		</g>
	</g>
</g>
</svg>
