<svg version="1.1" id="violet_RVB" xmlns="http://www.w3.org/2000/svg" x="0" y="0" viewBox="0 0 990 376" xml:space="preserve"><path d="M153.7 89.5c-19.1 0-34.5 15.5-34.5 34.5v124.4c0 10.1-8.2 18.3-18.3 18.3-10.1 0-18.2-8.2-18.3-18.3l-.2-73.1 29.8 13.1v-17.6l-34.6-15.1c-4.1-1.8-8.9.1-10.7 4.2-.4 1-.7 2.1-.7 3.2v85.2c0 19.1 15.4 34.5 34.5 34.6s34.5-15.4 34.6-34.5V124.1c0-10.1 8.2-18.3 18.3-18.3 10.1 0 18.3 8.2 18.3 18.3v73.1l-30-13.2v17.6L177 217c2.5 1.1 5.3.8 7.6-.6 2.3-1.5 3.7-4 3.6-6.8v-85.4c0-19.2-15.5-34.6-34.5-34.7zm161.1 99.1l-21.5-17c-6.1-4.8-8.8-9.7-8.8-15.8 0-8.4 5.7-14.5 15.2-14.5s16.3 6.4 16.3 17.9v.7c0 1.8 1.4 3.3 3.2 3.4h9.5c1.9-.1 3.3-1.5 3.4-3.4v-1.6c0-21.9-14.5-32-31.7-32-18.6 0-33.1 11.8-33.1 30.8 0 13.4 7.4 21.8 19.3 31l17.4 13.2c8.8 7 12 10.6 12 18.4 0 10-7 15.9-16.1 15.9s-16.8-5.9-16.8-17.2V217c-.1-1.9-1.5-3.3-3.4-3.4H270a3.4 3.4 0 00-3.2 3.4v2.1c0 21.1 14.7 31.7 32.4 31.7 19.5 0 34.4-12.4 34.4-31.7 0-12.8-7-21.2-18.8-30.5zM364 161h-9.5a3.4 3.4 0 00-3.2 3.4v81.7c0 1.8 1.4 3.3 3.2 3.4h9.5c1.9-.1 3.3-1.5 3.4-3.4v-81.7c-.1-1.9-1.5-3.3-3.4-3.4zm-4.5-35.6c-5.7 0-10.3 4.5-10.4 10.2s4.5 10.3 10.2 10.4c5.7 0 10.3-4.5 10.4-10.2v-.2c-.1-5.6-4.6-10.1-10.2-10.2zm374.7 34.2c-18.6 0-32.4 12.5-32.4 31.5v28.8c0 18.6 13.2 31 31.9 31 17.2 0 30.3-8.8 32-25.1.3-1.9-1-3.6-2.8-3.9h-9.7c-2.3 0-3 1.6-3.4 3.1-1.2 7.5-7 11.5-15.8 11.5-9.5 0-16.3-6.3-16.3-16.5v-10h44.8c1.8 0 3.3-1.4 3.4-3.2v-16.3c.1-20-13.7-30.9-31.7-30.9zm15.8 38.1h-32.2v-7c0-10 6.5-16.6 16.1-16.6 9.8 0 16.1 6.1 16.1 17v6.6zm48.7-13.8c0-6.6 5.9-10.2 14.3-10.2 10.9 0 13.2 5.9 14.9 10.6.4.9.7 2.5 3.6 2.5h9c2.9 0 3.2-2.1 3.2-3.9-.2-9.1-8.6-23.3-29.9-23.3-17.9 0-31.2 10-31.2 26.1 0 30.3 46.7 20.2 46.7 40.1 0 7-5.9 11.1-15.2 11.1-12.9 0-15-7.9-15.9-11.5-.3-1.7-1.8-3-3.6-3h-9.5c-3 0-3.4 2.5-3.4 4.1 0 7.2 7.3 24.4 31.7 24.4 17.9 0 32.2-9.5 32.2-26.7 0-31-46.9-21.8-46.9-40.3zm77.4 0c0-6.6 5.9-10.2 14.3-10.2 10.9 0 13.2 5.9 14.9 10.6.4.9.7 2.5 3.6 2.5h9c2.9 0 3.2-2.1 3.2-3.9-.2-9.1-8.6-23.3-29.9-23.3-17.9 0-31.2 10-31.2 26.1 0 30.3 46.7 20.3 46.7 40.1 0 7-5.9 11.1-15.2 11.1-12.9 0-15-7.9-15.9-11.5-.3-1.7-1.8-3-3.6-3h-9.5c-3 0-3.4 2.5-3.4 4.1 0 7.2 7.3 24.4 31.7 24.4 17.9 0 32.2-9.5 32.2-26.7 0-31-46.9-21.8-46.9-40.3zm-274.4 51.4h-3.9c-9.5 0-12.9-4.1-12.9-13.4v-46.7h16.5c1.8 0 3.3-1.4 3.4-3.2v-7.5c-.1-1.9-1.5-3.3-3.4-3.4h-16.5v-18.4c-.1-1.9-1.5-3.3-3.4-3.4H572a3.4 3.4 0 00-3.2 3.4V161h-11.1c-1.9.1-3.3 1.5-3.4 3.4v7.5a3.4 3.4 0 003.4 3.2h11.1V224c0 17.9 7.9 25.4 25.8 25.4h7.2c1.8 0 3.3-1.4 3.4-3.2v-7.5c-.1-1.9-1.6-3.3-3.5-3.4zm52.1-74.8c-18.6.2-33.5 15.4-33.4 34v51.8c0 1.8 1.4 3.2 3.2 3.2h9.1c1.8 0 3.2-1.4 3.2-3.2v-51.9c-.1-9.9 7.9-18.1 17.9-18.1 9.9-.1 18.1 7.9 18.1 17.9v52.1c0 1.8 1.4 3.2 3.2 3.2h9.1c1.8 0 3.2-1.4 3.2-3.2v-52.1c0-18.6-15.1-33.6-33.7-33.6.2-.1.1-.1.1-.1zm-232.1-.1c-18.5.1-33.4 15.4-33.4 34v25.3c0 17.7 15.5 32.2 33.6 32.2 6.4 0 12.6-1.8 18-5.2v7.4c0 9.9-8.1 18-18 18h-3.7c-1.6 0-2.9 1.3-2.9 2.9v10c0 1.4 1.1 2.6 2.6 2.6h4c18.6 0 33.6-15 33.7-33.6v-60c0-18.6-15.1-33.6-33.6-33.7-.2 0-.2 0-.3.1zm-17.8 42.1V194c0-9.9 8.1-18 18-18s18 8.1 18 18v24.2c0 9.9-8.1 18-18 18s-18-8.1-18-18v-15.7zm104.8-42c-6.7 0-13.2 1.9-18.7 5.6v-34.7c0-1.8-1.4-3.2-3.2-3.2h-8.9c-1.8 0-3.2 1.4-3.2 3.2v114.9c0 1.8 1.4 3.2 3.2 3.2h9.5c1.8 0 3.2-1.4 3.2-3.2v-51.9c-.1-9.9 7.9-18.1 17.9-18.1 9.9-.1 18.1 7.9 18.1 17.9v52.1c0 1.8 1.4 3.2 3.2 3.2h9.2c1.8 0 3.2-1.4 3.2-3.2v-51.7c0-18.7-14.9-34-33.5-34.1zm-18.5 114.8c-.3 0-.5-.1-.6-.4-.7-1.6-2.3-2.6-4.1-2.5-2 0-3.6.8-3.6 2.1 0 1.5 1.7 2 4.5 2.4 3.9.6 6.9 1.7 6.9 5.3 0 3.8-3.4 5.7-7.6 5.7-3.6 0-6.9-1.6-7.4-5.4 0-.4.1-.5.5-.5h2.4c.3 0 .5.2.6.4.5 1.5 2 2.5 4.2 2.5 2 0 3.8-.8 3.8-2.4 0-1.9-2.1-2.3-5-2.7-3.5-.5-6.4-1.4-6.4-4.8s3-5.5 7.3-5.5c3.9 0 6.8 2 7.3 5.3.1.3 0 .6-.4.6l-2.4-.1zm21.1 12.3c-.3 0-.5-.2-.5-.5V275c0-.1 0-.1-.1 0l-4.7 5.6c-.2.2-.3.2-.5 0l-4.7-5.6c-.1-.1-.1-.1-.1 0v12.2c0 .3-.2.5-.5.5h-2.5c-.3 0-.5-.2-.5-.5v-17c0-.3.2-.5.5-.5h2.5c.3 0 .5.2.6.4l4.9 6.2c.1.1.2.1.3 0l4.9-6.2c.1-.2.4-.4.6-.4h2.3c.3 0 .5.2.5.5v17c0 .3-.2.5-.5.5l-2.5-.1zm16.9-18c.3 0 .4.2.5.5l7.1 16.9c.1.2 0 .5-.2.6h-2.9c-.2 0-.5-.2-.5-.4l-1.2-2.9c-.1-.3-.3-.3-.6-.3H523c-.2 0-.4.1-.5.3l-1.2 2.9c-.1.3-.3.5-.6.4h-2.5c-.3 0-.5-.3-.4-.7l7.3-16.9c.1-.3.3-.4.5-.4h2.6zm-4.3 11.4c-.1.2 0 .3.2.3h5.2c.2 0 .3-.2.2-.4l-2.7-6.7h-.1l-2.8 6.8zm18.9 6.1c0 .3-.2.5-.5.5h-2.5c-.3 0-.5-.2-.5-.5v-17c0-.3.2-.5.5-.5h7.6c4.5 0 6.3 2.5 6.3 5.6 0 2.1-1.1 4-3 4.9-.6.3-.8.5-.4 1.1l3.5 5.8c.2.4 0 .7-.3.7h-2.9c-.2 0-.4-.1-.5-.3l-3.5-6c-.2-.3-.3-.5-.6-.5h-2.8c-.2 0-.5.2-.5.4v.1l.1 5.7zm4.8-9c1.5-.1 2.6-1.3 2.6-2.7v-.1c.1-1.4-.9-2.6-2.3-2.7h-4.6c-.2 0-.4.2-.5.4v4.6c0 .2.1.4.4.5h4.4zm15.2 9.5c-.3 0-.5-.2-.5-.5v-14c0-.3-.2-.5-.5-.5h-4.9c-.3 0-.5-.2-.5-.5v-2c0-.3.2-.5.5-.5h14.4c.3 0 .5.2.5.5v2c0 .3-.2.5-.5.5h-5c-.3 0-.5.2-.5.5v14c0 .3-.2.5-.5.5h-2.5zm25 0c-.2 0-.5-.2-.5-.5l-6.6-16.9c-.1-.2 0-.5.2-.6h2.8c.3 0 .5.2.5.4l4.8 12.9c0 .1.1.1.1 0L594 270c.1-.3.3-.5.6-.4h2.4c.3 0 .5.3.4.7l-6.8 16.9c-.1.3-.3.4-.5.4h-2.3zm13.9 0c-.3 0-.5-.2-.5-.5v-17c0-.3.2-.5.5-.5h2.5c.3 0 .5.2.5.5v17c0 .3-.2.5-.5.5h-2.5zm18.7-12.3c-.3 0-.5-.1-.6-.4-.7-1.6-2.3-2.6-4.1-2.5-2 0-3.6.8-3.6 2.1 0 1.5 1.7 2 4.5 2.4 4 .6 6.9 1.7 6.9 5.3 0 3.8-3.4 5.7-7.5 5.7-3.7 0-6.9-1.6-7.4-5.4 0-.4.1-.5.5-.5h2.4c.3 0 .5.2.6.4.5 1.5 2 2.5 4.2 2.5 2 0 3.8-.8 3.8-2.4 0-1.9-2.1-2.3-5-2.7-3.5-.5-6.4-1.4-6.4-4.8s3-5.5 7.3-5.5c3.9 0 6.8 2 7.3 5.3.1.3 0 .6-.4.6l-2.5-.1zm7.4 12.3c-.3 0-.5-.2-.5-.5v-17c0-.3.2-.5.5-.5h2.5c.3 0 .5.2.5.5v17c0 .3-.2.5-.5.5h-2.5zm26.4-8.9c.1 5.2-4.1 9.5-9.3 9.6-5.2.1-9.5-4.1-9.6-9.3-.1-5.2 4.1-9.5 9.3-9.6h.2c5.1-.1 9.3 3.9 9.5 9.1-.1 0-.1.1-.1.2zm-9.5 6c3.3.1 6.1-2.5 6.2-5.8.1-3.3-2.5-6.1-5.8-6.2-3.3-.1-6.1 2.5-6.2 5.8v.2c-.1 3.2 2.4 5.9 5.7 6h.1zm26.8 2.9c-.2 0-.4-.1-.6-.3l-9.1-12.3c-.1-.1-.1-.1-.1 0l.1 12.2c0 .3-.2.5-.5.5H659c-.3 0-.5-.2-.5-.5v-17c0-.3.2-.5.5-.5h2.4c.2 0 .4.1.6.4l9.1 12.1c.1.1.1.1.1 0l-.1-12c0-.3.2-.5.5-.5h2.3c.3 0 .5.2.5.5v17c0 .3-.2.5-.5.5l-2.4-.1zm15 0c-.3 0-.5-.2-.5-.5v-17c0-.3.2-.5.5-.5h12.1c.3 0 .5.2.5.5v2c0 .3-.2.5-.5.5H690c-.3 0-.5.2-.5.5v3.4c0 .3.2.5.5.5h7c.3 0 .5.2.5.5v2c0 .3-.2.5-.5.5h-7c-.3 0-.5.2-.5.5v6.6c0 .3-.2.5-.5.5h-2.5zm34.2-8.9c.1 5.2-4.1 9.5-9.3 9.6-5.2.1-9.5-4.1-9.6-9.3-.1-5.2 4.1-9.5 9.3-9.6h.2c5.1-.1 9.3 3.9 9.5 9.1-.1 0-.1.1-.1.2zm-9.4 6c3.3.1 6.1-2.5 6.2-5.8.1-3.3-2.5-6.1-5.8-6.2-3.3-.1-6.1 2.5-6.2 5.8v.2c-.1 3.2 2.4 5.9 5.7 6h.1zm17.3 2.4c0 .3-.2.5-.5.5h-2.6c-.3 0-.5-.2-.5-.5v-17c0-.3.2-.5.5-.5h7.6c4.5 0 6.3 2.5 6.3 5.6 0 2.1-1.1 4-3 4.9-.6.3-.8.5-.4 1.1l3.5 5.8c.2.4 0 .7-.3.7h-2.9c-.2 0-.4-.1-.5-.3l-3.5-6c-.2-.3-.3-.5-.6-.5h-2.8c-.2 0-.5.2-.5.4v5.8zm4.7-9c1.5-.1 2.6-1.3 2.6-2.7v-.1c.1-1.4-.9-2.6-2.3-2.7H729c-.2 0-.4.2-.5.4v4.6c0 .2.1.4.4.5h4.4zm21.9 9.5c-.3 0-.5-.2-.5-.5v-14c0-.3-.2-.5-.5-.5h-4.9c-.3 0-.5-.2-.5-.5v-2c0-.3.2-.5.5-.5h14.4c.3 0 .5.2.5.5v2c0 .3-.2.5-.5.5h-5c-.3 0-.5.2-.5.5v14c0 .3-.2.5-.5.5h-2.5zm16.2-.5c0 .3-.2.5-.5.5h-2.5c-.3 0-.5-.2-.5-.5v-17c0-.3.2-.5.5-.5h7.6c4.5 0 6.3 2.5 6.3 5.6 0 2.1-1.1 4-3 4.9-.5.3-.8.5-.4 1.1l3.5 5.8c.2.4 0 .7-.3.7h-2.9c-.2 0-.4-.1-.5-.3l-3.4-6c-.2-.3-.3-.5-.6-.5h-2.8c-.2 0-.5.2-.5.4v5.8zm4.7-9c1.5-.1 2.6-1.3 2.5-2.8v-.1c.1-1.4-.9-2.6-2.3-2.7h-4.5c-.2 0-.4.2-.5.4v4.6c0 .2.1.4.4.5h.1l4.3.1zm19.1-8.5c.3 0 .4.2.5.5l7.1 16.9c.1.2 0 .5-.2.6h-2.9c-.2 0-.5-.2-.5-.4l-1.2-2.9c-.1-.3-.3-.3-.6-.3H790c-.2 0-.4.1-.5.3l-1.2 2.9c-.1.3-.3.5-.6.4h-2.5c-.3 0-.5-.3-.4-.7l7.3-16.9c.1-.3.3-.4.5-.4h2.6zm-4.3 11.4c-.1.2 0 .3.2.3h5.2c.1 0 .3-.1.3-.2v-.1l-2.7-6.7h-.1l-2.9 6.7zm28.4 6.6c-.2 0-.4-.1-.5-.3l-9.1-12.3c-.1-.1-.1-.1-.1 0l.1 12.2c0 .3-.2.5-.5.5h-2.3c-.3 0-.5-.2-.5-.5v-17c0-.3.2-.5.5-.5h2.4c.2 0 .4.1.6.4l9.1 12.1c0 .1.1.1.1 0l-.1-12c0-.3.2-.5.5-.5h2.3c.3 0 .5.2.5.5v17c0 .3-.2.5-.5.5l-2.5-.1zm18.6-12.3c-.3 0-.5-.1-.6-.4-.7-1.6-2.3-2.6-4.1-2.5-2 0-3.6.8-3.6 2.1 0 1.5 1.7 2 4.5 2.4 4 .6 6.9 1.7 6.9 5.3 0 3.8-3.4 5.7-7.6 5.7-3.7 0-6.9-1.6-7.4-5.4 0-.4.1-.5.5-.5h2.4c.3 0 .5.2.6.4.5 1.5 2 2.5 4.2 2.5 2 0 3.8-.8 3.8-2.4 0-1.9-2.1-2.3-5-2.7-3.5-.5-6.4-1.4-6.4-4.8s3-5.5 7.3-5.5c3.9 0 6.8 2 7.3 5.3.1.3 0 .6-.4.6l-2.4-.1zm7.4 12.3c-.3 0-.5-.2-.5-.5v-17c0-.3.2-.5.5-.5h7.8c3.6 0 6.2 2 6.2 5.6s-2.9 5.8-6.3 5.8h-4.2c-.3 0-.5.2-.5.4v5.7c0 .3-.2.5-.5.5h-2.5zm8-9.4c1.5-.1 2.6-1.4 2.5-2.9.1-1.4-1-2.6-2.4-2.7h-4.7c-.2 0-.4.2-.5.4v4.8c0 .2.1.4.4.5h4.7zm28.2.5c.1 5.2-4.1 9.5-9.3 9.6-5.2.1-9.5-4.1-9.6-9.3-.1-5.2 4.1-9.5 9.3-9.6h.2c5.1-.1 9.3 3.9 9.5 9.1-.1 0-.1.1-.1.2zm-9.5 6c3.3.1 6.1-2.5 6.2-5.8.1-3.3-2.5-6.1-5.8-6.2-3.3-.1-6.1 2.5-6.2 5.8v.2c-.1 3.2 2.4 5.9 5.7 6h.1zm17.4 2.4c0 .3-.2.5-.5.5h-2.5c-.3 0-.5-.2-.5-.5v-17c0-.3.2-.5.5-.5h7.5c4.5 0 6.3 2.5 6.3 5.6 0 2.1-1.1 4-3 4.9-.6.3-.8.5-.4 1.1l3.5 5.9c.2.4 0 .7-.3.7h-2.9c-.2 0-.4-.1-.5-.3l-3.5-6c-.2-.3-.3-.5-.6-.5h-2.8c-.2 0-.5.2-.5.4v5.7zm4.7-9c1.5-.1 2.6-1.3 2.5-2.8v-.1c.1-1.4-.9-2.6-2.3-2.7h-4.5c-.2 0-.4.2-.5.4v4.6c0 .2.1.4.4.5h.1l4.3.1zm15.3 9.5c-.3 0-.5-.2-.5-.5v-14c0-.3-.2-.5-.5-.5h-4.9c-.3 0-.5-.2-.5-.5v-2c0-.3.2-.5.5-.5h14.4c.3 0 .5.2.5.5v2c0 .3-.2.5-.5.5h-5c-.3 0-.5.2-.5.5v14c0 .3-.2.5-.5.5h-2.5z" fill="#1d1d1b"/></svg>