<?xml version="1.0" encoding="utf-8"?>
<!-- Generator: Adobe Illustrator 25.4.2, SVG Export Plug-In . SVG Version: 6.00 Build 0)  -->
<svg version="1.1" id="Calque_2" xmlns="http://www.w3.org/2000/svg" xmlns:xlink="http://www.w3.org/1999/xlink" x="0px" y="0px"
	 viewBox="0 0 269.56 164.75" style="enable-background:new 0 0 269.56 164.75;" xml:space="preserve">
<style type="text/css">
	.st0{fill:#2A2E46;}
	.st1{fill:#E84E0F;}
	.st2{fill:#E64F13;}
</style>
<g>
	<g>
		<path class="st0" d="M40.98,88.14c-16.55,0-30.01-13.46-30.01-30.01V22.62h13.36v35.51c0,9.18,7.47,16.65,16.65,16.65
			s16.65-7.47,16.65-16.65V22.62h13.36v35.51C70.99,74.68,57.53,88.14,40.98,88.14z"/>
		<g>
			<polygon class="st0" points="188.52,49.33 210.4,87.22 225.82,87.22 188.52,22.61 151.22,87.22 166.64,87.22 			"/>
		</g>
		<path class="st0" d="M115.76,88.13c-6.25,0-12.57-1.75-18.19-5.42c-15.4-10.06-19.75-30.77-9.69-46.17
			c10.06-15.4,30.77-19.75,46.17-9.69l-7.3,11.18c-9.23-6.03-21.65-3.42-27.68,5.81c-6.03,9.23-3.42,21.65,5.81,27.68
			c9.23,6.03,21.65,3.42,27.68-5.81l11.18,7.3C137.35,82.81,126.66,88.13,115.76,88.13z"/>
		<rect x="115.43" y="48.11" class="st0" width="29.72" height="13.36"/>
		<g>
			<polygon class="st1" points="188.52,78.04 172.64,105.54 204.4,105.54 			"/>
		</g>
	</g>
	<g>
		<g>
			<path class="st2" d="M112.4,101.52v-6.99h2.43v6.88c0,1.4,0.91,2.29,2.2,2.29c1.29,0,2.2-0.89,2.2-2.29v-6.88h2.43v6.99
				c0,2.63-1.98,4.46-4.63,4.46C114.39,105.98,112.4,104.15,112.4,101.52z"/>
			<path class="st2" d="M126.53,96.79v2.47h3.85v2.19h-3.85v4.29h-2.42v-11.2h6.69v2.25H126.53z"/>
			<path class="st2" d="M136.64,101.92h-1.56v3.82h-2.42v-11.2h4.52c2.24,0,3.92,1.54,3.92,3.71c0,1.47-0.8,2.66-2.04,3.26
				l2.48,4.24h-2.71L136.64,101.92z M135.09,99.68h1.94c1.01,0,1.62-0.61,1.62-1.45c0-0.84-0.61-1.45-1.62-1.45h-1.94V99.68z"/>
		</g>
	</g>
	<g>
		<path class="st0" d="M151.29,123.65v-6.04h2.1v5.94c0,1.21,0.79,1.97,1.9,1.97c1.11,0,1.9-0.77,1.9-1.97v-5.94h2.1v6.04
			c0,2.27-1.71,3.85-4,3.85C153,127.5,151.29,125.92,151.29,123.65z"/>
		<path class="st0" d="M168.12,122.77v4.52h-2.02v-4.2c0-1.13-0.43-1.67-1.3-1.67c-1.04,0-1.67,0.75-1.67,1.95v3.92h-2.02v-7.46
			h1.38l0.39,0.92c0.57-0.67,1.46-1.1,2.47-1.1C167.06,119.65,168.12,120.88,168.12,122.77z"/>
		<path class="st0" d="M169.96,119.83h2.02v7.46h-2.02V119.83z M169.97,116.95h2.01v1.88h-2.01V116.95z"/>
		<path class="st0" d="M180.9,119.83l-2.97,7.46h-1.86l-3.04-7.46h2.15l1.83,5l1.79-5H180.9z"/>
		<path class="st0" d="M188.95,123.53c0,0.2-0.01,0.39-0.04,0.59h-5.65c0.18,1.02,0.85,1.58,1.82,1.58c0.7,0,1.28-0.33,1.58-0.87
			h2.12c-0.54,1.63-1.97,2.66-3.71,2.66c-2.2,0-3.87-1.71-3.87-3.94c0-2.25,1.66-3.94,3.87-3.94
			C187.38,119.61,188.96,121.38,188.95,123.53L188.95,123.53z M183.32,122.75h3.62c-0.29-0.91-0.94-1.41-1.85-1.41
			C184.19,121.34,183.55,121.86,183.32,122.75z"/>
		<path class="st0" d="M194.87,119.78v1.9h-0.88c-1.14,0-1.59,0.5-1.59,1.72v3.88h-2.02v-7.46h1.29l0.36,0.91
			c0.53-0.66,1.21-0.96,2.17-0.96H194.87z"/>
		<path class="st0" d="M195.47,124.83h1.97c0.01,0.67,0.52,1,1.24,1c0.56,0,1.06-0.25,1.06-0.75c0-0.51-0.65-0.67-1.44-0.8
			c-1.19-0.2-2.71-0.52-2.71-2.28c0-1.41,1.2-2.39,3-2.39c1.8,0,2.99,1,2.99,2.5h-1.92c-0.01-0.59-0.42-0.89-1.13-0.89
			c-0.63,0-1,0.29-1,0.71c0,0.5,0.64,0.61,1.41,0.75c1.22,0.22,2.77,0.48,2.77,2.29c0,1.52-1.25,2.51-3.13,2.51
			C196.73,127.5,195.48,126.43,195.47,124.83z"/>
		<path class="st0" d="M203.21,119.83h2.02v7.46h-2.02V119.83z M203.21,116.95h2.01v1.88h-2.01V116.95z"/>
		<path class="st0" d="M211.73,125.49v1.8h-1.43c-1.64,0-2.65-1.01-2.65-2.67v-3.18h-1.35v-0.44l2.95-3.13h0.39v1.95h2.06v1.62
			h-2.03v2.91c0,0.72,0.42,1.14,1.15,1.14H211.73z"/>
		<path class="st0" d="M220.24,124.12h-5.65c0.18,1.02,0.85,1.58,1.82,1.58c0.7,0,1.28-0.33,1.58-0.87h2.12
			c-0.54,1.63-1.97,2.66-3.7,2.66c-2.21,0-3.87-1.71-3.87-3.94c0-2.25,1.66-3.94,3.87-3.94c2.29,0,3.86,1.77,3.86,3.92
			C220.28,123.73,220.27,123.93,220.24,124.12z M214.65,122.75h3.62c-0.29-0.91-0.94-1.41-1.85-1.41
			C215.52,121.34,214.88,121.86,214.65,122.75z M217.02,119h-1.53l0.75-2.1h2.15L217.02,119z"/>
		<path class="st0" d="M160.79,136.98c-0.01,3.03-2.04,5.26-4.94,5.26c-2.85,0-5.01-2.14-5.01-5.04c0-2.9,2.11-5.06,4.97-5.06
			c2.4,0,4.4,1.52,4.85,3.69h-2.16c-0.42-1.04-1.44-1.69-2.66-1.69c-1.71,0-2.89,1.25-2.89,3.06c0,1.79,1.15,3.04,2.89,3.04
			c1.25,0,2.34-0.66,2.69-1.66h-2.9v-1.61H160.79z"/>
		<path class="st0" d="M166.69,134.52v1.9h-0.88c-1.14,0-1.59,0.5-1.59,1.72v3.88h-2.02v-7.46h1.29l0.36,0.91
			c0.53-0.66,1.21-0.96,2.17-0.96H166.69z"/>
		<path class="st0" d="M174.88,138.86h-5.65c0.18,1.02,0.85,1.58,1.82,1.58c0.7,0,1.28-0.33,1.58-0.87h2.12
			c-0.54,1.63-1.97,2.66-3.71,2.66c-2.2,0-3.87-1.71-3.87-3.94c0-2.25,1.66-3.94,3.87-3.94c2.29,0,3.87,1.77,3.87,3.92
			C174.92,138.47,174.9,138.67,174.88,138.86z M169.28,137.48h3.62c-0.29-0.91-0.94-1.41-1.85-1.41
			C170.15,136.08,169.51,136.6,169.28,137.48z"/>
		<path class="st0" d="M183.36,137.51v4.52h-2.02v-4.2c0-1.13-0.43-1.67-1.3-1.67c-1.04,0-1.67,0.75-1.67,1.95v3.92h-2.02v-7.46
			h1.38l0.39,0.92c0.57-0.67,1.46-1.1,2.47-1.1C182.3,134.39,183.36,135.62,183.36,137.51z"/>
		<path class="st0" d="M184.71,138.3c0-2.26,1.72-3.94,4.04-3.94c2.3,0,4.04,1.68,4.04,3.94c0,2.25-1.73,3.94-4.04,3.94
			C186.44,142.24,184.71,140.55,184.71,138.3z M190.74,138.3c0-1.21-0.83-2.05-1.99-2.05c-1.16,0-1.99,0.84-1.99,2.05
			s0.83,2.05,1.99,2.05C189.91,140.34,190.74,139.51,190.74,138.3z"/>
		<path class="st0" d="M202.22,138.3c0,2.26-1.65,3.94-3.92,3.94c-0.91,0-1.71-0.31-2.34-0.83l-0.24,0.62h-1.49v-10.16h2.02v3.09
			c0.58-0.39,1.28-0.62,2.05-0.62C200.57,134.35,202.22,136.04,202.22,138.3z M200.16,138.3c0-1.17-0.86-2.05-2.03-2.05
			s-2.03,0.88-2.03,2.05c0,1.16,0.86,2.03,2.03,2.03S200.16,139.46,200.16,138.3z"/>
		<path class="st0" d="M203.67,131.87h2.02v10.16h-2.02V131.87z"/>
		<path class="st0" d="M214.83,138.86h-5.65c0.18,1.02,0.85,1.58,1.82,1.58c0.7,0,1.28-0.33,1.58-0.87h2.12
			c-0.54,1.63-1.97,2.66-3.71,2.66c-2.2,0-3.87-1.71-3.87-3.94c0-2.25,1.66-3.94,3.87-3.94c2.29,0,3.87,1.77,3.87,3.92
			C214.86,138.47,214.85,138.67,214.83,138.86z M209.23,137.48h3.62c-0.29-0.91-0.94-1.41-1.85-1.41
			C210.1,136.08,209.46,136.6,209.23,137.48z"/>
		<path class="st0" d="M225.13,140.2h-3.85l-0.66,1.83h-2.22l3.79-9.68h1.98l3.91,9.68h-2.27L225.13,140.2z M221.93,138.37h2.54
			l-1.28-3.46L221.93,138.37z"/>
		<path class="st0" d="M229.16,131.87h2.02v10.16h-2.02V131.87z"/>
		<path class="st0" d="M241.1,138.3c0,2.26-1.66,3.96-3.91,3.96c-0.77,0-1.48-0.23-2.05-0.63v3.1h-2.02v-10.16h1.33l0.34,0.68
			c0.63-0.56,1.46-0.89,2.39-0.89C239.43,134.35,241.1,136.04,241.1,138.3z M239.05,138.3c0-1.17-0.86-2.05-2.03-2.05
			s-2.03,0.88-2.03,2.05c0,1.17,0.86,2.05,2.03,2.05S239.05,139.47,239.05,138.3z"/>
		<path class="st0" d="M249.75,138.86h-5.65c0.18,1.02,0.85,1.58,1.82,1.58c0.7,0,1.28-0.33,1.58-0.87h2.12
			c-0.54,1.63-1.97,2.66-3.71,2.66c-2.2,0-3.87-1.71-3.87-3.94c0-2.25,1.66-3.94,3.87-3.94c2.29,0,3.87,1.77,3.87,3.92
			C249.78,138.47,249.77,138.67,249.75,138.86z M244.15,137.48h3.62c-0.29-0.91-0.94-1.41-1.85-1.41
			C245.02,136.08,244.38,136.6,244.15,137.48z"/>
		<path class="st0" d="M250.73,139.57h1.97c0.01,0.67,0.52,1,1.24,1c0.56,0,1.06-0.25,1.06-0.75c0-0.51-0.65-0.67-1.44-0.8
			c-1.19-0.2-2.71-0.52-2.71-2.28c0-1.41,1.2-2.39,3-2.39c1.8,0,2.99,1,2.99,2.5h-1.92c-0.01-0.59-0.42-0.89-1.13-0.89
			c-0.63,0-1,0.29-1,0.71c0,0.5,0.64,0.61,1.41,0.75c1.22,0.22,2.77,0.48,2.77,2.29c0,1.52-1.25,2.51-3.13,2.51
			C251.99,142.24,250.74,141.17,250.73,139.57z"/>
	</g>
	<g>
		<path class="st1" d="M56.35,131.8h6.9c0,3.06,2.53,4.53,5.32,4.53c2.58,0,5.1-1.36,5.1-3.72c0-2.45-2.88-3.13-6.32-3.93
			c-4.77-1.18-10.56-2.56-10.56-9.38c0-6.07,4.47-9.49,11.48-9.49c7.27,0,11.41,3.88,11.41,10.19h-6.76c0-2.72-2.25-4-4.81-4
			c-2.22,0-4.47,0.94-4.47,3.01c0,2.23,2.75,2.9,6.1,3.7c4.82,1.22,10.88,2.72,10.88,9.81c0,6.83-5.44,10.15-11.99,10.15
			C61.35,142.68,56.35,138.6,56.35,131.8z"/>
		<path class="st1" d="M111.69,110.41v31.64h-6.85v-13.08H92.94v13.08h-6.85v-31.64h6.85v12.19h11.91v-12.19H111.69z"/>
		<path class="st1" d="M117.18,131.8h6.9c0,3.06,2.53,4.53,5.32,4.53c2.58,0,5.1-1.36,5.1-3.72c0-2.45-2.88-3.13-6.32-3.93
			c-4.77-1.18-10.56-2.56-10.56-9.38c0-6.07,4.47-9.49,11.48-9.49c7.27,0,11.41,3.88,11.41,10.19h-6.76c0-2.72-2.25-4-4.81-4
			c-2.22,0-4.47,0.94-4.47,3.01c0,2.23,2.75,2.9,6.1,3.7c4.82,1.22,10.88,2.72,10.88,9.81c0,6.83-5.44,10.15-11.99,10.15
			C122.18,142.68,117.18,138.6,117.18,131.8z"/>
	</g>
</g>
</svg>
